Monomakh-Regular.ufo
<glyph name="exclam" format="2">
  <advance width="257"/>
  <unicode hex="0021"/>
  <outline>
    <contour>
      <point x="47" y="588" type="curve" smooth="yes"/>
      <point x="47" y="612"/>
      <point x="75" y="643"/>
      <point x="105" y="665" type="curve" smooth="yes"/>
      <point x="136" y="688"/>
      <point x="173" y="707"/>
      <point x="189" y="707" type="curve" smooth="yes"/>
      <point x="214" y="707"/>
      <point x="220" y="691"/>
      <point x="220" y="681" type="curve" smooth="yes"/>
      <point x="220" y="659"/>
      <point x="211" y="588"/>
      <point x="208" y="564" type="curve" smooth="yes"/>
      <point x="156" y="216" type="line" smooth="yes"/>
      <point x="154" y="204"/>
      <point x="143" y="193"/>
      <point x="129" y="193" type="curve" smooth="yes"/>
      <point x="115" y="193"/>
      <point x="105" y="198"/>
      <point x="102" y="216" type="curve" smooth="yes"/>
      <point x="59" y="494" type="line" smooth="yes"/>
      <point x="55" y="520"/>
      <point x="47" y="578"/>
    </contour>
    <contour>
      <point x="51" y="61" type="curve" smooth="yes"/>
      <point x="51" y="104"/>
      <point x="86" y="139"/>
      <point x="129" y="139" type="curve" smooth="yes"/>
      <point x="172" y="139"/>
      <point x="207" y="104"/>
      <point x="207" y="61" type="curve" smooth="yes"/>
      <point x="207" y="18"/>
      <point x="172" y="-18"/>
      <point x="129" y="-18" type="curve" smooth="yes"/>
      <point x="86" y="-18"/>
      <point x="51" y="18"/>
    </contour>
  </outline>
</glyph>
<glyph name="numbersign" format="2">
  <advance width="800"/>
  <unicode hex="0023"/>
  <outline>
    <contour>
      <point x="74" y="220" type="curve" smooth="yes"/>
      <point x="74" y="226"/>
      <point x="76" y="232"/>
      <point x="82" y="245" type="curve" smooth="yes"/>
      <point x="89" y="261"/>
      <point x="93" y="269"/>
      <point x="100" y="269" type="curve" smooth="yes"/>
      <point x="232" y="269" type="line"/>
      <point x="272" y="427" type="line"/>
      <point x="90" y="427" type="line" smooth="yes"/>
      <point x="83" y="427"/>
      <point x="74" y="432"/>
      <point x="74" y="438" type="curve" smooth="yes"/>
      <point x="74" y="444"/>
      <point x="76" y="450"/>
      <point x="82" y="463" type="curve" smooth="yes"/>
      <point x="89" y="479"/>
      <point x="93" y="486"/>
      <point x="100" y="486" type="curve" smooth="yes"/>
      <point x="287" y="486" type="line"/>
      <point x="340" y="693" type="line" smooth="yes"/>
      <point x="342" y="700"/>
      <point x="349" y="707"/>
      <point x="355" y="707" type="curve" smooth="yes"/>
      <point x="360" y="707"/>
      <point x="366" y="703"/>
      <point x="378" y="694" type="curve" smooth="yes"/>
      <point x="390" y="685"/>
      <point x="398" y="678"/>
      <point x="398" y="672" type="curve" smooth="yes"/>
      <point x="398" y="671"/>
      <point x="397" y="665"/>
      <point x="397" y="664" type="curve" smooth="yes"/>
      <point x="352" y="486" type="line"/>
      <point x="520" y="486" type="line"/>
      <point x="572" y="693" type="line" smooth="yes"/>
      <point x="574" y="700"/>
      <point x="581" y="707"/>
      <point x="587" y="707" type="curve" smooth="yes"/>
      <point x="592" y="707"/>
      <point x="599" y="703"/>
      <point x="611" y="694" type="curve" smooth="yes"/>
      <point x="623" y="685"/>
      <point x="631" y="678"/>
      <point x="631" y="672" type="curve" smooth="yes"/>
      <point x="631" y="671"/>
      <point x="629" y="665"/>
      <point x="629" y="664" type="curve" smooth="yes"/>
      <point x="584" y="486" type="line"/>
      <point x="710" y="486" type="line" smooth="yes"/>
      <point x="717" y="486"/>
      <point x="727" y="481"/>
      <point x="727" y="475" type="curve" smooth="yes"/>
      <point x="727" y="469"/>
      <point x="725" y="463"/>
      <point x="719" y="450" type="curve" smooth="yes"/>
      <point x="712" y="434"/>
      <point x="708" y="427"/>
      <point x="701" y="427" type="curve" smooth="yes"/>
      <point x="569" y="427" type="line"/>
      <point x="529" y="269" type="line"/>
      <point x="710" y="269" type="line" smooth="yes"/>
      <point x="717" y="269"/>
      <point x="727" y="263"/>
      <point x="727" y="257" type="curve" smooth="yes"/>
      <point x="727" y="251"/>
      <point x="725" y="245"/>
      <point x="719" y="232" type="curve" smooth="yes"/>
      <point x="712" y="216"/>
      <point x="708" y="209"/>
      <point x="701" y="209" type="curve" smooth="yes"/>
      <point x="514" y="209" type="line"/>
      <point x="461" y="2" type="line" smooth="yes"/>
      <point x="459" y="-5"/>
      <point x="452" y="-12"/>
      <point x="446" y="-12" type="curve" smooth="yes"/>
      <point x="441" y="-12"/>
      <point x="434" y="-8"/>
      <point x="422" y="1" type="curve" smooth="yes"/>
      <point x="410" y="10"/>
      <point x="402" y="17"/>
      <point x="402" y="23" type="curve" smooth="yes"/>
      <point x="402" y="24"/>
      <point x="404" y="30"/>
      <point x="404" y="31" type="curve" smooth="yes"/>
      <point x="449" y="209" type="line"/>
      <point x="281" y="209" type="line"/>
      <point x="229" y="2" type="line" smooth="yes"/>
      <point x="227" y="-5"/>
      <point x="219" y="-12"/>
      <point x="213" y="-12" type="curve" smooth="yes"/>
      <point x="208" y="-12"/>
      <point x="202" y="-8"/>
      <point x="190" y="1" type="curve" smooth="yes"/>
      <point x="178" y="10"/>
      <point x="170" y="17"/>
      <point x="170" y="23" type="curve" smooth="yes"/>
      <point x="170" y="24"/>
      <point x="171" y="30"/>
      <point x="171" y="31" type="curve" smooth="yes"/>
      <point x="217" y="209" type="line"/>
      <point x="90" y="209" type="line" smooth="yes"/>
      <point x="83" y="209"/>
      <point x="74" y="214"/>
    </contour>
    <contour>
      <point x="296" y="269" type="line"/>
      <point x="464" y="269" type="line"/>
      <point x="504" y="427" type="line"/>
      <point x="336" y="427" type="line"/>
    </contour>
  </outline>
</glyph>
<glyph name="dollar" format="2">
  <advance width="605"/>
  <unicode hex="0024"/>
  <outline>
    <contour>
      <point x="65" y="68" type="curve" smooth="yes"/>
      <point x="65" y="72"/>
      <point x="66" y="86"/>
      <point x="66" y="94" type="curve" smooth="yes"/>
      <point x="73" y="223" type="line" smooth="yes"/>
      <point x="73" y="234"/>
      <point x="80" y="239"/>
      <point x="87" y="239" type="curve" smooth="yes"/>
      <point x="105" y="239"/>
      <point x="115" y="221"/>
      <point x="121" y="204" type="curve" smooth="yes"/>
      <point x="156" y="107"/>
      <point x="208" y="21"/>
      <point x="296" y="14" type="curve"/>
      <point x="296" y="303" type="line"/>
      <point x="186" y="356"/>
      <point x="89" y="411"/>
      <point x="89" y="538" type="curve" smooth="yes"/>
      <point x="89" y="630"/>
      <point x="154" y="704"/>
      <point x="296" y="710" type="curve"/>
      <point x="296" y="771" type="line" smooth="yes"/>
      <point x="296" y="779"/>
      <point x="300" y="785"/>
      <point x="304" y="785" type="curve" smooth="yes"/>
      <point x="308" y="785"/>
      <point x="310" y="784"/>
      <point x="319" y="779" type="curve" smooth="yes"/>
      <point x="329" y="773"/>
      <point x="335" y="770"/>
      <point x="335" y="763" type="curve" smooth="yes"/>
      <point x="335" y="710" type="line"/>
      <point x="380" y="708"/>
      <point x="431" y="697"/>
      <point x="466" y="681" type="curve" smooth="yes"/>
      <point x="511" y="661"/>
      <point x="520" y="651"/>
      <point x="520" y="628" type="curve" smooth="yes"/>
      <point x="520" y="620"/>
      <point x="519" y="605"/>
      <point x="513" y="572" type="curve" smooth="yes"/>
      <point x="508" y="548"/>
      <point x="500" y="511"/>
      <point x="490" y="511" type="curve" smooth="yes"/>
      <point x="478" y="511"/>
      <point x="471" y="522"/>
      <point x="462" y="543" type="curve" smooth="yes"/>
      <point x="436" y="602"/>
      <point x="397" y="669"/>
      <point x="335" y="680" type="curve"/>
      <point x="335" y="416" type="line"/>
      <point x="471" y="344"/>
      <point x="562" y="291"/>
      <point x="562" y="171" type="curve" smooth="yes"/>
      <point x="562" y="52"/>
      <point x="472" y="-9"/>
      <point x="335" y="-16" type="curve"/>
      <point x="335" y="-88" type="line" smooth="yes"/>
      <point x="335" y="-96"/>
      <point x="331" y="-103"/>
      <point x="327" y="-103" type="curve" smooth="yes"/>
      <point x="323" y="-103"/>
      <point x="321" y="-101"/>
      <point x="312" y="-96" type="curve" smooth="yes"/>
      <point x="302" y="-90"/>
      <point x="296" y="-87"/>
      <point x="296" y="-80" type="curve" smooth="yes"/>
      <point x="296" y="-16" type="line"/>
      <point x="239" y="-14"/>
      <point x="167" y="2"/>
      <point x="116" y="23" type="curve" smooth="yes"/>
      <point x="71" y="42"/>
      <point x="65" y="45"/>
    </contour>
    <contour>
      <point x="198" y="573" type="curve" smooth="yes"/>
      <point x="198" y="501"/>
      <point x="240" y="467"/>
      <point x="296" y="436" type="curve"/>
      <point x="296" y="680" type="line"/>
      <point x="233" y="672"/>
      <point x="198" y="628"/>
    </contour>
    <contour>
      <point x="335" y="15" type="line"/>
      <point x="408" y="24"/>
      <point x="449" y="71"/>
      <point x="449" y="137" type="curve" smooth="yes"/>
      <point x="449" y="209"/>
      <point x="404" y="244"/>
      <point x="335" y="282" type="curve"/>
    </contour>
  </outline>
</glyph>
<glyph name="percent" format="2">
  <advance width="726"/>
  <unicode hex="0025"/>
  <outline>
    <contour>
      <point x="31" y="554" type="curve" smooth="yes"/>
      <point x="31" y="648"/>
      <point x="106" y="705"/>
      <point x="190" y="705" type="curve" smooth="yes"/>
      <point x="233" y="705"/>
      <point x="276" y="689"/>
      <point x="302" y="665" type="curve" smooth="yes"/>
      <point x="340" y="631"/>
      <point x="382" y="602"/>
      <point x="430" y="602" type="curve" smooth="yes"/>
      <point x="498" y="602"/>
      <point x="550" y="641"/>
      <point x="603" y="703" type="curve" smooth="yes"/>
      <point x="606" y="708"/>
      <point x="609" y="711"/>
      <point x="614" y="711" type="curve" smooth="yes"/>
      <point x="620" y="711"/>
      <point x="626" y="702"/>
      <point x="632" y="688" type="curve" smooth="yes"/>
      <point x="636" y="678"/>
      <point x="638" y="672"/>
      <point x="638" y="666" type="curve" smooth="yes"/>
      <point x="638" y="664"/>
      <point x="636" y="659"/>
      <point x="634" y="656" type="curve" smooth="yes"/>
      <point x="124" y="-10" type="line" smooth="yes"/>
      <point x="121" y="-15"/>
      <point x="117" y="-18"/>
      <point x="112" y="-18" type="curve" smooth="yes"/>
      <point x="106" y="-18"/>
      <point x="100" y="-9"/>
      <point x="94" y="5" type="curve" smooth="yes"/>
      <point x="90" y="15"/>
      <point x="89" y="22"/>
      <point x="89" y="28" type="curve" smooth="yes"/>
      <point x="89" y="30"/>
      <point x="90" y="34"/>
      <point x="92" y="37" type="curve" smooth="yes"/>
      <point x="515" y="588" type="line"/>
      <point x="513" y="590" type="line"/>
      <point x="493" y="577"/>
      <point x="468" y="572"/>
      <point x="437" y="572" type="curve" smooth="yes"/>
      <point x="407" y="572"/>
      <point x="371" y="580"/>
      <point x="349" y="596" type="curve"/>
      <point x="347" y="594" type="line"/>
      <point x="350" y="581"/>
      <point x="352" y="568"/>
      <point x="352" y="554" type="curve" smooth="yes"/>
      <point x="352" y="460"/>
      <point x="276" y="402"/>
      <point x="191" y="402" type="curve" smooth="yes"/>
      <point x="106" y="402"/>
      <point x="31" y="460"/>
    </contour>
    <contour>
      <point x="117" y="578" type="curve" smooth="yes"/>
      <point x="117" y="490"/>
      <point x="149" y="426"/>
      <point x="197" y="426" type="curve" smooth="yes"/>
      <point x="240" y="426"/>
      <point x="266" y="468"/>
      <point x="266" y="529" type="curve" smooth="yes"/>
      <point x="266" y="617"/>
      <point x="234" y="682"/>
      <point x="186" y="682" type="curve" smooth="yes"/>
      <point x="143" y="682"/>
      <point x="117" y="639"/>
    </contour>
    <contour>
      <point x="375" y="140" type="curve" smooth="yes"/>
      <point x="375" y="234"/>
      <point x="450" y="291"/>
      <point x="535" y="291" type="curve" smooth="yes"/>
      <point x="620" y="291"/>
      <point x="695" y="234"/>
      <point x="695" y="140" type="curve" smooth="yes"/>
      <point x="695" y="46"/>
      <point x="620" y="-12"/>
      <point x="535" y="-12" type="curve" smooth="yes"/>
      <point x="450" y="-12"/>
      <point x="375" y="46"/>
    </contour>
    <contour>
      <point x="461" y="164" type="curve" smooth="yes"/>
      <point x="461" y="76"/>
      <point x="493" y="12"/>
      <point x="541" y="12" type="curve" smooth="yes"/>
      <point x="584" y="12"/>
      <point x="609" y="54"/>
      <point x="609" y="115" type="curve" smooth="yes"/>
      <point x="609" y="203"/>
      <point x="578" y="267"/>
      <point x="530" y="267" type="curve" smooth="yes"/>
      <point x="487" y="267"/>
      <point x="461" y="225"/>
    </contour>
  </outline>
</glyph>
<glyph name="ampersand" format="2">
  <advance width="791"/>
  <unicode hex="0026"/>
  <outline>
    <contour>
      <point x="43" y="152" type="curve" smooth="yes"/>
      <point x="43" y="250"/>
      <point x="125" y="324"/>
      <point x="218" y="375" type="curve"/>
      <point x="218" y="377" type="line"/>
      <point x="175" y="411"/>
      <point x="138" y="456"/>
      <point x="138" y="532" type="curve" smooth="yes"/>
      <point x="138" y="626"/>
      <point x="222" y="706"/>
      <point x="318" y="706" type="curve" smooth="yes"/>
      <point x="400" y="706"/>
      <point x="444" y="629"/>
      <point x="444" y="573" type="curve" smooth="yes"/>
      <point x="444" y="519"/>
      <point x="396" y="463"/>
      <point x="346" y="426" type="curve"/>
      <point x="346" y="421" type="line"/>
      <point x="396" y="388"/>
      <point x="455" y="348"/>
      <point x="485" y="309" type="curve" smooth="yes"/>
      <point x="505" y="284"/>
      <point x="521" y="259"/>
      <point x="535" y="234" type="curve"/>
      <point x="537" y="234" type="line"/>
      <point x="575" y="296"/>
      <point x="603" y="360"/>
      <point x="603" y="407" type="curve" smooth="yes"/>
      <point x="603" y="431"/>
      <point x="580" y="441"/>
      <point x="560" y="443" type="curve" smooth="yes"/>
      <point x="550" y="444"/>
      <point x="546" y="450"/>
      <point x="546" y="459" type="curve" smooth="yes"/>
      <point x="546" y="469"/>
      <point x="551" y="473"/>
      <point x="557" y="473" type="curve" smooth="yes"/>
      <point x="564" y="473"/>
      <point x="582" y="471"/>
      <point x="602" y="469" type="curve" smooth="yes"/>
      <point x="625" y="466"/>
      <point x="639" y="465"/>
      <point x="652" y="465" type="curve" smooth="yes"/>
      <point x="665" y="465"/>
      <point x="680" y="466"/>
      <point x="703" y="469" type="curve" smooth="yes"/>
      <point x="723" y="471"/>
      <point x="740" y="473"/>
      <point x="748" y="473" type="curve" smooth="yes"/>
      <point x="754" y="473"/>
      <point x="759" y="469"/>
      <point x="759" y="459" type="curve" smooth="yes"/>
      <point x="759" y="450"/>
      <point x="755" y="446"/>
      <point x="745" y="444" type="curve" smooth="yes"/>
      <point x="701" y="433"/>
      <point x="687" y="428"/>
      <point x="661" y="390" type="curve" smooth="yes"/>
      <point x="648" y="371"/>
      <point x="630" y="335"/>
      <point x="611" y="297" type="curve" smooth="yes"/>
      <point x="592" y="259"/>
      <point x="573" y="219"/>
      <point x="557" y="198" type="curve"/>
      <point x="568" y="177"/>
      <point x="577" y="156"/>
      <point x="586" y="132" type="curve" smooth="yes"/>
      <point x="605" y="82"/>
      <point x="632" y="37"/>
      <point x="666" y="37" type="curve" smooth="yes"/>
      <point x="698" y="37"/>
      <point x="711" y="50"/>
      <point x="730" y="78" type="curve" smooth="yes"/>
      <point x="737" y="89"/>
      <point x="746" y="101"/>
      <point x="758" y="101" type="curve" smooth="yes"/>
      <point x="767" y="101"/>
      <point x="773" y="95"/>
      <point x="773" y="87" type="curve" smooth="yes"/>
      <point x="773" y="62"/>
      <point x="721" y="-18"/>
      <point x="638" y="-18" type="curve" smooth="yes"/>
      <point x="553" y="-18"/>
      <point x="506" y="25"/>
      <point x="482" y="95" type="curve"/>
      <point x="479" y="95" type="line"/>
      <point x="409" y="20"/>
      <point x="320" y="-16"/>
      <point x="230" y="-16" type="curve" smooth="yes"/>
      <point x="122" y="-16"/>
      <point x="43" y="50"/>
    </contour>
    <contour>
      <point x="162" y="207" type="curve" smooth="yes"/>
      <point x="162" y="80"/>
      <point x="273" y="59"/>
      <point x="321" y="59" type="curve" smooth="yes"/>
      <point x="375" y="59"/>
      <point x="425" y="88"/>
      <point x="466" y="130" type="curve"/>
      <point x="450" y="163"/>
      <point x="434" y="193"/>
      <point x="408" y="228" type="curve" smooth="yes"/>
      <point x="372" y="276"/>
      <point x="303" y="324"/>
      <point x="243" y="359" type="curve"/>
      <point x="184" y="321"/>
      <point x="162" y="269"/>
    </contour>
    <contour>
      <point x="200" y="585" type="curve" smooth="yes"/>
      <point x="200" y="519"/>
      <point x="260" y="476"/>
      <point x="322" y="438" type="curve"/>
      <point x="358" y="464"/>
      <point x="370" y="492"/>
      <point x="370" y="550" type="curve" smooth="yes"/>
      <point x="370" y="605"/>
      <point x="324" y="665"/>
      <point x="271" y="665" type="curve" smooth="yes"/>
      <point x="235" y="665"/>
      <point x="200" y="619"/>
    </contour>
  </outline>
</glyph>
<glyph name="quotesingle" format="2">
  <advance width="283"/>
  <unicode hex="0027"/>
  <outline>
    <contour>
      <point x="82" y="645" type="curve" smooth="yes"/>
      <point x="82" y="675"/>
      <point x="138" y="706"/>
      <point x="169" y="706" type="curve" smooth="yes"/>
      <point x="191" y="706"/>
      <point x="201" y="677"/>
      <point x="201" y="658" type="curve" smooth="yes"/>
      <point x="201" y="654"/>
      <point x="199" y="637"/>
      <point x="198" y="624" type="curve" smooth="yes"/>
      <point x="169" y="394" type="line"/>
      <point x="161" y="390"/>
      <point x="153" y="388"/>
      <point x="142" y="388" type="curve" smooth="yes"/>
      <point x="131" y="388"/>
      <point x="122" y="390"/>
      <point x="114" y="394" type="curve"/>
      <point x="84" y="621" type="line" smooth="yes"/>
      <point x="83" y="632"/>
      <point x="82" y="641"/>
    </contour>
  </outline>
</glyph>
<glyph name="parenleft" format="2">
  <advance width="351"/>
  <unicode hex="0028"/>
  <outline>
    <contour>
      <point x="75" y="262" type="curve" smooth="yes"/>
      <point x="75" y="522"/>
      <point x="264" y="705"/>
      <point x="304" y="705" type="curve" smooth="yes"/>
      <point x="313" y="705"/>
      <point x="320" y="696"/>
      <point x="320" y="690" type="curve" smooth="yes"/>
      <point x="320" y="685"/>
      <point x="315" y="677"/>
      <point x="302" y="663" type="curve" smooth="yes"/>
      <point x="208" y="562"/>
      <point x="170" y="421"/>
      <point x="170" y="262" type="curve" smooth="yes"/>
      <point x="170" y="103"/>
      <point x="208" y="-38"/>
      <point x="302" y="-139" type="curve" smooth="yes"/>
      <point x="315" y="-153"/>
      <point x="320" y="-161"/>
      <point x="320" y="-166" type="curve" smooth="yes"/>
      <point x="320" y="-172"/>
      <point x="313" y="-181"/>
      <point x="304" y="-181" type="curve" smooth="yes"/>
      <point x="264" y="-181"/>
      <point x="75" y="2"/>
    </contour>
  </outline>
</glyph>
<glyph name="parenright" format="2">
  <advance width="351"/>
  <unicode hex="0029"/>
  <outline>
    <contour>
      <point x="31" y="-166" type="curve" smooth="yes"/>
      <point x="31" y="-161"/>
      <point x="37" y="-153"/>
      <point x="50" y="-139" type="curve" smooth="yes"/>
      <point x="144" y="-38"/>
      <point x="182" y="103"/>
      <point x="182" y="262" type="curve" smooth="yes"/>
      <point x="182" y="421"/>
      <point x="144" y="562"/>
      <point x="50" y="663" type="curve" smooth="yes"/>
      <point x="37" y="677"/>
      <point x="31" y="685"/>
      <point x="31" y="690" type="curve" smooth="yes"/>
      <point x="31" y="696"/>
      <point x="38" y="705"/>
      <point x="47" y="705" type="curve" smooth="yes"/>
      <point x="87" y="705"/>
      <point x="276" y="522"/>
      <point x="276" y="262" type="curve" smooth="yes"/>
      <point x="276" y="2"/>
      <point x="87" y="-181"/>
      <point x="47" y="-181" type="curve" smooth="yes"/>
      <point x="38" y="-181"/>
      <point x="31" y="-172"/>
    </contour>
  </outline>
</glyph>
<glyph name="asterisk" format="2">
  <advance width="468"/>
  <unicode hex="002A"/>
  <outline>
    <contour>
      <point x="46" y="576" type="curve" smooth="yes"/>
      <point x="46" y="595"/>
      <point x="60" y="604"/>
      <point x="80" y="604" type="curve" smooth="yes"/>
      <point x="89" y="604"/>
      <point x="100" y="599"/>
      <point x="105" y="596" type="curve" smooth="yes"/>
      <point x="209" y="539" type="line"/>
      <point x="211" y="541" type="line"/>
      <point x="189" y="656" type="line" smooth="yes"/>
      <point x="188" y="661"/>
      <point x="188" y="667"/>
      <point x="188" y="669" type="curve" smooth="yes"/>
      <point x="188" y="687"/>
      <point x="227" y="710"/>
      <point x="246" y="710" type="curve" smooth="yes"/>
      <point x="259" y="710"/>
      <point x="272" y="687"/>
      <point x="272" y="676" type="curve" smooth="yes"/>
      <point x="272" y="673"/>
      <point x="272" y="664"/>
      <point x="271" y="657" type="curve" smooth="yes"/>
      <point x="248" y="541" type="line"/>
      <point x="250" y="539" type="line"/>
      <point x="353" y="596" type="line" smooth="yes"/>
      <point x="360" y="600"/>
      <point x="365" y="602"/>
      <point x="371" y="602" type="curve" smooth="yes"/>
      <point x="388" y="602"/>
      <point x="423" y="574"/>
      <point x="423" y="555" type="curve" smooth="yes"/>
      <point x="423" y="542"/>
      <point x="407" y="526"/>
      <point x="398" y="522" type="curve" smooth="yes"/>
      <point x="395" y="521"/>
      <point x="386" y="519"/>
      <point x="379" y="518" type="curve" smooth="yes"/>
      <point x="261" y="504" type="line"/>
      <point x="261" y="501" type="line"/>
      <point x="346" y="421" type="line" smooth="yes"/>
      <point x="350" y="417"/>
      <point x="354" y="413"/>
      <point x="355" y="411" type="curve" smooth="yes"/>
      <point x="357" y="408"/>
      <point x="358" y="404"/>
      <point x="358" y="399" type="curve" smooth="yes"/>
      <point x="358" y="379"/>
      <point x="343" y="341"/>
      <point x="322" y="341" type="curve" smooth="yes"/>
      <point x="301" y="341"/>
      <point x="289" y="355"/>
      <point x="281" y="372" type="curve" smooth="yes"/>
      <point x="230" y="480" type="line"/>
      <point x="229" y="480" type="line"/>
      <point x="178" y="373" type="line" smooth="yes"/>
      <point x="171" y="358"/>
      <point x="164" y="353"/>
      <point x="142" y="353" type="curve" smooth="yes"/>
      <point x="126" y="353"/>
      <point x="108" y="357"/>
      <point x="100" y="363" type="curve" smooth="yes"/>
      <point x="95" y="367"/>
      <point x="93" y="375"/>
      <point x="93" y="383" type="curve" smooth="yes"/>
      <point x="93" y="402"/>
      <point x="100" y="409"/>
      <point x="112" y="420" type="curve" smooth="yes"/>
      <point x="199" y="501" type="line"/>
      <point x="199" y="504" type="line"/>
      <point x="81" y="519" type="line" smooth="yes"/>
      <point x="76" y="519"/>
      <point x="70" y="520"/>
      <point x="68" y="521" type="curve" smooth="yes"/>
      <point x="54" y="525"/>
      <point x="46" y="555"/>
    </contour>
  </outline>
</glyph>
<glyph name="plus" format="2">
  <advance width="640"/>
  <unicode hex="002B"/>
  <outline>
    <contour>
      <point x="74" y="223" type="curve" smooth="yes"/>
      <point x="74" y="229"/>
      <point x="76" y="235"/>
      <point x="82" y="248" type="curve" smooth="yes"/>
      <point x="89" y="264"/>
      <point x="93" y="271"/>
      <point x="100" y="271" type="curve" smooth="yes"/>
      <point x="289" y="271" type="line"/>
      <point x="289" y="472" type="line" smooth="yes"/>
      <point x="289" y="479"/>
      <point x="295" y="489"/>
      <point x="301" y="489" type="curve" smooth="yes"/>
      <point x="307" y="489"/>
      <point x="312" y="487"/>
      <point x="326" y="482" type="curve" smooth="yes"/>
      <point x="342" y="476"/>
      <point x="352" y="471"/>
      <point x="352" y="464" type="curve" smooth="yes"/>
      <point x="352" y="271" type="line"/>
      <point x="550" y="271" type="line" smooth="yes"/>
      <point x="557" y="271"/>
      <point x="566" y="266"/>
      <point x="566" y="260" type="curve" smooth="yes"/>
      <point x="566" y="254"/>
      <point x="565" y="248"/>
      <point x="559" y="235" type="curve" smooth="yes"/>
      <point x="552" y="219"/>
      <point x="548" y="212"/>
      <point x="541" y="212" type="curve" smooth="yes"/>
      <point x="352" y="212" type="line"/>
      <point x="352" y="11" type="line" smooth="yes"/>
      <point x="352" y="4"/>
      <point x="345" y="-6"/>
      <point x="339" y="-6" type="curve" smooth="yes"/>
      <point x="333" y="-6"/>
      <point x="328" y="-4"/>
      <point x="314" y="1" type="curve" smooth="yes"/>
      <point x="298" y="7"/>
      <point x="289" y="13"/>
      <point x="289" y="20" type="curve" smooth="yes"/>
      <point x="289" y="212" type="line"/>
      <point x="90" y="212" type="line" smooth="yes"/>
      <point x="83" y="212"/>
      <point x="74" y="217"/>
    </contour>
  </outline>
</glyph>
<glyph name="comma" format="2">
  <advance width="257"/>
  <unicode hex="002C"/>
  <outline>
    <contour>
      <point x="51" y="64" type="curve" smooth="yes"/>
      <point x="51" y="78"/>
      <point x="64" y="86"/>
      <point x="82" y="94" type="curve" smooth="yes"/>
      <point x="96" y="100"/>
      <point x="106" y="112"/>
      <point x="115" y="127" type="curve" smooth="yes"/>
      <point x="125" y="143"/>
      <point x="131" y="149"/>
      <point x="146" y="149" type="curve" smooth="yes"/>
      <point x="161" y="149"/>
      <point x="216" y="95"/>
      <point x="216" y="27" type="curve" smooth="yes"/>
      <point x="216" y="-33"/>
      <point x="183" y="-77"/>
      <point x="152" y="-104" type="curve" smooth="yes"/>
      <point x="123" y="-129"/>
      <point x="85" y="-155"/>
      <point x="70" y="-155" type="curve" smooth="yes"/>
      <point x="64" y="-155"/>
      <point x="53" y="-145"/>
      <point x="53" y="-138" type="curve" smooth="yes"/>
      <point x="53" y="-132"/>
      <point x="64" y="-123"/>
      <point x="83" y="-110" type="curve" smooth="yes"/>
      <point x="109" y="-92"/>
      <point x="131" y="-65"/>
      <point x="131" y="-31" type="curve" smooth="yes"/>
      <point x="131" y="-5"/>
      <point x="119" y="7"/>
      <point x="96" y="22" type="curve" smooth="yes"/>
      <point x="70" y="39"/>
      <point x="51" y="52"/>
    </contour>
  </outline>
</glyph>
<glyph name="period" format="2">
  <advance width="257"/>
  <unicode hex="002E"/>
  <outline>
    <contour>
      <point x="51" y="61" type="curve" smooth="yes"/>
      <point x="51" y="104"/>
      <point x="86" y="139"/>
      <point x="129" y="139" type="curve" smooth="yes"/>
      <point x="172" y="139"/>
      <point x="207" y="104"/>
      <point x="207" y="61" type="curve" smooth="yes"/>
      <point x="207" y="18"/>
      <point x="172" y="-18"/>
      <point x="129" y="-18" type="curve" smooth="yes"/>
      <point x="86" y="-18"/>
      <point x="51" y="18"/>
    </contour>
  </outline>
</glyph>
<glyph name="slash" format="2">
  <advance width="484"/>
  <unicode hex="002F"/>
  <outline>
    <contour>
      <point x="31" y="-71" type="curve" smooth="yes"/>
      <point x="31" y="-67"/>
      <point x="33" y="-62"/>
      <point x="35" y="-58" type="curve" smooth="yes"/>
      <point x="399" y="697" type="line" smooth="yes"/>
      <point x="402" y="703"/>
      <point x="407" y="708"/>
      <point x="412" y="708" type="curve" smooth="yes"/>
      <point x="414" y="708"/>
      <point x="419" y="705"/>
      <point x="423" y="703" type="curve" smooth="yes"/>
      <point x="449" y="688"/>
      <point x="453" y="677"/>
      <point x="453" y="669" type="curve" smooth="yes"/>
      <point x="453" y="665"/>
      <point x="451" y="660"/>
      <point x="449" y="656" type="curve" smooth="yes"/>
      <point x="85" y="-99" type="line" smooth="yes"/>
      <point x="82" y="-105"/>
      <point x="77" y="-109"/>
      <point x="72" y="-109" type="curve" smooth="yes"/>
      <point x="70" y="-109"/>
      <point x="65" y="-107"/>
      <point x="61" y="-105" type="curve" smooth="yes"/>
      <point x="35" y="-90"/>
      <point x="31" y="-79"/>
    </contour>
  </outline>
</glyph>
<glyph name="zero" format="2">
  <advance width="640"/>
  <unicode hex="0030"/>
  <outline>
    <contour>
      <point x="55" y="347" type="curve" smooth="yes"/>
      <point x="55" y="560"/>
      <point x="176" y="711"/>
      <point x="320" y="711" type="curve" smooth="yes"/>
      <point x="464" y="711"/>
      <point x="586" y="560"/>
      <point x="586" y="347" type="curve" smooth="yes"/>
      <point x="586" y="134"/>
      <point x="464" y="-17"/>
      <point x="320" y="-17" type="curve" smooth="yes"/>
      <point x="176" y="-17"/>
      <point x="55" y="134"/>
    </contour>
    <contour>
      <point x="192" y="347" type="curve" smooth="yes"/>
      <point x="192" y="154"/>
      <point x="219" y="13"/>
      <point x="320" y="13" type="curve" smooth="yes"/>
      <point x="421" y="13"/>
      <point x="448" y="154"/>
      <point x="448" y="347" type="curve" smooth="yes"/>
      <point x="448" y="540"/>
      <point x="421" y="682"/>
      <point x="320" y="682" type="curve" smooth="yes"/>
      <point x="219" y="682"/>
      <point x="192" y="540"/>
    </contour>
  </outline>
</glyph>
<glyph name="one" format="2">
  <advance width="382"/>
  <unicode hex="0031"/>
  <outline>
    <contour>
      <point x="45" y="6" type="curve" smooth="yes"/>
      <point x="45" y="15"/>
      <point x="49" y="20"/>
      <point x="59" y="21" type="curve" smooth="yes"/>
      <point x="117" y="27" type="line" smooth="yes"/>
      <point x="130" y="28"/>
      <point x="143" y="31"/>
      <point x="143" y="50" type="curve" smooth="yes"/>
      <point x="143" y="533" type="line" smooth="yes"/>
      <point x="143" y="583"/>
      <point x="118" y="595"/>
      <point x="65" y="595" type="curve" smooth="yes"/>
      <point x="53" y="595"/>
      <point x="45" y="598"/>
      <point x="45" y="608" type="curve" smooth="yes"/>
      <point x="45" y="620"/>
      <point x="55" y="623"/>
      <point x="63" y="624" type="curve" smooth="yes"/>
      <point x="136" y="635"/>
      <point x="191" y="659"/>
      <point x="231" y="690" type="curve" smooth="yes"/>
      <point x="236" y="693"/>
      <point x="244" y="698"/>
      <point x="250" y="698" type="curve" smooth="yes"/>
      <point x="262" y="698"/>
      <point x="264" y="691"/>
      <point x="264" y="683" type="curve" smooth="yes"/>
      <point x="264" y="50" type="line" smooth="yes"/>
      <point x="264" y="31"/>
      <point x="276" y="28"/>
      <point x="289" y="27" type="curve" smooth="yes"/>
      <point x="348" y="21" type="line" smooth="yes"/>
      <point x="358" y="20"/>
      <point x="361" y="15"/>
      <point x="361" y="6" type="curve" smooth="yes"/>
      <point x="361" y="-4"/>
      <point x="357" y="-8"/>
      <point x="351" y="-8" type="curve" smooth="yes"/>
      <point x="338" y="-8"/>
      <point x="301" y="-5"/>
      <point x="281" y="-3" type="curve" smooth="yes"/>
      <point x="259" y="-1"/>
      <point x="222" y="2"/>
      <point x="203" y="2" type="curve" smooth="yes"/>
      <point x="184" y="2"/>
      <point x="147" y="-1"/>
      <point x="125" y="-3" type="curve" smooth="yes"/>
      <point x="105" y="-5"/>
      <point x="68" y="-8"/>
      <point x="55" y="-8" type="curve" smooth="yes"/>
      <point x="49" y="-8"/>
      <point x="45" y="-4"/>
    </contour>
  </outline>
</glyph>
<glyph name="two" format="2">
  <advance width="571"/>
  <unicode hex="0032"/>
  <outline>
    <contour>
      <point x="30" y="8" type="curve" smooth="yes"/>
      <point x="30" y="18"/>
      <point x="35" y="26"/>
      <point x="38" y="28" type="curve" smooth="yes"/>
      <point x="227" y="208"/>
      <point x="353" y="337"/>
      <point x="353" y="503" type="curve" smooth="yes"/>
      <point x="353" y="566"/>
      <point x="310" y="620"/>
      <point x="225" y="620" type="curve" smooth="yes"/>
      <point x="178" y="620"/>
      <point x="122" y="594"/>
      <point x="80" y="541" type="curve" smooth="yes"/>
      <point x="72" y="531"/>
      <point x="67" y="525"/>
      <point x="59" y="525" type="curve" smooth="yes"/>
      <point x="47" y="525"/>
      <point x="42" y="530"/>
      <point x="42" y="542" type="curve" smooth="yes"/>
      <point x="42" y="568"/>
      <point x="152" y="708"/>
      <point x="281" y="708" type="curve" smooth="yes"/>
      <point x="403" y="708"/>
      <point x="490" y="641"/>
      <point x="490" y="529" type="curve" smooth="yes"/>
      <point x="490" y="428"/>
      <point x="377" y="311"/>
      <point x="273" y="213" type="curve" smooth="yes"/>
      <point x="236" y="178"/>
      <point x="201" y="145"/>
      <point x="172" y="112" type="curve"/>
      <point x="172" y="107" type="line"/>
      <point x="428" y="107" type="line" smooth="yes"/>
      <point x="462" y="107"/>
      <point x="470" y="118"/>
      <point x="488" y="151" type="curve" smooth="yes"/>
      <point x="494" y="163"/>
      <point x="506" y="182"/>
      <point x="519" y="182" type="curve" smooth="yes"/>
      <point x="528" y="182"/>
      <point x="534" y="177"/>
      <point x="534" y="169" type="curve" smooth="yes"/>
      <point x="534" y="165"/>
      <point x="530" y="151"/>
      <point x="527" y="142" type="curve" smooth="yes"/>
      <point x="475" y="0" type="line"/>
      <point x="38" y="0" type="line" smooth="yes"/>
      <point x="34" y="0"/>
      <point x="30" y="4"/>
    </contour>
  </outline>
</glyph>
<glyph name="three" format="2">
  <advance width="488"/>
  <unicode hex="0033"/>
  <outline>
    <contour>
      <point x="25" y="10" type="curve" smooth="yes"/>
      <point x="25" y="19"/>
      <point x="33" y="22"/>
      <point x="44" y="22" type="curve" smooth="yes"/>
      <point x="185" y="22"/>
      <point x="315" y="74"/>
      <point x="315" y="220" type="curve" smooth="yes"/>
      <point x="315" y="305"/>
      <point x="216" y="327"/>
      <point x="138" y="327" type="curve" smooth="yes"/>
      <point x="130" y="327"/>
      <point x="122" y="330"/>
      <point x="122" y="337" type="curve" smooth="yes"/>
      <point x="122" y="352"/>
      <point x="134" y="359"/>
      <point x="165" y="378" type="curve" smooth="yes"/>
      <point x="231" y="417"/>
      <point x="305" y="469"/>
      <point x="305" y="544" type="curve" smooth="yes"/>
      <point x="305" y="584"/>
      <point x="278" y="619"/>
      <point x="212" y="619" type="curve" smooth="yes"/>
      <point x="159" y="619"/>
      <point x="113" y="589"/>
      <point x="71" y="547" type="curve" smooth="yes"/>
      <point x="66" y="542"/>
      <point x="56" y="534"/>
      <point x="50" y="534" type="curve" smooth="yes"/>
      <point x="42" y="534"/>
      <point x="38" y="538"/>
      <point x="38" y="547" type="curve" smooth="yes"/>
      <point x="38" y="582"/>
      <point x="142" y="707"/>
      <point x="259" y="707" type="curve" smooth="yes"/>
      <point x="333" y="707"/>
      <point x="413" y="666"/>
      <point x="413" y="584" type="curve" smooth="yes"/>
      <point x="413" y="541"/>
      <point x="366" y="491"/>
      <point x="327" y="464" type="curve" smooth="yes"/>
      <point x="304" y="448"/>
      <point x="291" y="439"/>
      <point x="271" y="421" type="curve"/>
      <point x="272" y="417" type="line"/>
      <point x="369" y="407"/>
      <point x="453" y="347"/>
      <point x="453" y="254" type="curve" smooth="yes"/>
      <point x="453" y="94"/>
      <point x="294" y="-17"/>
      <point x="107" y="-17" type="curve" smooth="yes"/>
      <point x="63" y="-17"/>
      <point x="25" y="-8"/>
    </contour>
  </outline>
</glyph>
<glyph name="four" format="2">
  <advance width="589"/>
  <unicode hex="0034"/>
  <outline>
    <contour>
      <point x="12" y="160" type="curve" smooth="yes"/>
      <point x="12" y="186"/>
      <point x="33" y="214"/>
      <point x="44" y="229" type="curve" smooth="yes"/>
      <point x="375" y="688" type="line" smooth="yes"/>
      <point x="380" y="695"/>
      <point x="391" y="703"/>
      <point x="397" y="703" type="curve" smooth="yes"/>
      <point x="409" y="703"/>
      <point x="412" y="696"/>
      <point x="412" y="688" type="curve" smooth="yes"/>
      <point x="412" y="251" type="line"/>
      <point x="464" y="251" type="line" smooth="yes"/>
      <point x="501" y="251"/>
      <point x="516" y="259"/>
      <point x="534" y="299" type="curve" smooth="yes"/>
      <point x="540" y="314"/>
      <point x="547" y="327"/>
      <point x="560" y="327" type="curve" smooth="yes"/>
      <point x="568" y="327"/>
      <point x="572" y="321"/>
      <point x="572" y="315" type="curve" smooth="yes"/>
      <point x="572" y="307"/>
      <point x="567" y="289"/>
      <point x="564" y="278" type="curve" smooth="yes"/>
      <point x="528" y="167" type="line"/>
      <point x="412" y="167" type="line"/>
      <point x="412" y="50" type="line" smooth="yes"/>
      <point x="412" y="31"/>
      <point x="425" y="28"/>
      <point x="438" y="27" type="curve" smooth="yes"/>
      <point x="496" y="21" type="line" smooth="yes"/>
      <point x="506" y="20"/>
      <point x="510" y="15"/>
      <point x="510" y="6" type="curve" smooth="yes"/>
      <point x="510" y="-4"/>
      <point x="506" y="-8"/>
      <point x="500" y="-8" type="curve" smooth="yes"/>
      <point x="487" y="-8"/>
      <point x="450" y="-5"/>
      <point x="430" y="-3" type="curve" smooth="yes"/>
      <point x="408" y="-1"/>
      <point x="371" y="2"/>
      <point x="352" y="2" type="curve" smooth="yes"/>
      <point x="333" y="2"/>
      <point x="295" y="-1"/>
      <point x="273" y="-3" type="curve" smooth="yes"/>
      <point x="253" y="-5"/>
      <point x="217" y="-8"/>
      <point x="204" y="-8" type="curve" smooth="yes"/>
      <point x="198" y="-8"/>
      <point x="193" y="-4"/>
      <point x="193" y="6" type="curve" smooth="yes"/>
      <point x="193" y="15"/>
      <point x="197" y="20"/>
      <point x="207" y="21" type="curve" smooth="yes"/>
      <point x="266" y="27" type="line" smooth="yes"/>
      <point x="279" y="28"/>
      <point x="291" y="31"/>
      <point x="291" y="50" type="curve" smooth="yes"/>
      <point x="291" y="167" type="line"/>
      <point x="69" y="167" type="line" smooth="yes"/>
      <point x="57" y="167"/>
      <point x="46" y="165"/>
      <point x="38" y="153" type="curve" smooth="yes"/>
      <point x="34" y="147"/>
      <point x="32" y="145"/>
      <point x="24" y="145" type="curve" smooth="yes"/>
      <point x="19" y="145"/>
      <point x="12" y="148"/>
    </contour>
    <contour>
      <point x="108" y="262" type="curve" smooth="yes"/>
      <point x="108" y="255"/>
      <point x="114" y="251"/>
      <point x="126" y="251" type="curve" smooth="yes"/>
      <point x="291" y="251" type="line"/>
      <point x="291" y="494" type="line" smooth="yes"/>
      <point x="291" y="501"/>
      <point x="288" y="504"/>
      <point x="284" y="504" type="curve" smooth="yes"/>
      <point x="280" y="504"/>
      <point x="276" y="501"/>
      <point x="271" y="494" type="curve" smooth="yes"/>
      <point x="117" y="280" type="line" smooth="yes"/>
      <point x="113" y="275"/>
      <point x="108" y="269"/>
    </contour>
  </outline>
</glyph>
<glyph name="five" format="2">
  <advance width="503"/>
  <unicode hex="0035"/>
  <outline>
    <contour>
      <point x="27" y="10" type="curve" smooth="yes"/>
      <point x="27" y="19"/>
      <point x="35" y="22"/>
      <point x="44" y="22" type="curve" smooth="yes"/>
      <point x="201" y="22"/>
      <point x="339" y="94"/>
      <point x="339" y="249" type="curve" smooth="yes"/>
      <point x="339" y="322"/>
      <point x="296" y="366"/>
      <point x="209" y="366" type="curve" smooth="yes"/>
      <point x="173" y="366"/>
      <point x="136" y="354"/>
      <point x="110" y="338" type="curve" smooth="yes"/>
      <point x="100" y="332"/>
      <point x="85" y="324"/>
      <point x="76" y="324" type="curve" smooth="yes"/>
      <point x="66" y="324"/>
      <point x="62" y="333"/>
      <point x="62" y="340" type="curve" smooth="yes"/>
      <point x="62" y="346"/>
      <point x="63" y="354"/>
      <point x="66" y="364" type="curve" smooth="yes"/>
      <point x="70" y="377"/>
      <point x="75" y="387"/>
      <point x="76" y="406" type="curve" smooth="yes"/>
      <point x="99" y="705" type="line"/>
      <point x="166" y="697"/>
      <point x="229" y="691"/>
      <point x="278" y="691" type="curve" smooth="yes"/>
      <point x="307" y="691"/>
      <point x="338" y="692"/>
      <point x="363" y="695" type="curve" smooth="yes"/>
      <point x="398" y="699"/>
      <point x="405" y="706"/>
      <point x="423" y="739" type="curve" smooth="yes"/>
      <point x="429" y="751"/>
      <point x="441" y="770"/>
      <point x="454" y="770" type="curve" smooth="yes"/>
      <point x="463" y="770"/>
      <point x="469" y="765"/>
      <point x="469" y="757" type="curve" smooth="yes"/>
      <point x="469" y="753"/>
      <point x="464" y="739"/>
      <point x="461" y="730" type="curve" smooth="yes"/>
      <point x="412" y="594" type="line"/>
      <point x="352" y="589"/>
      <point x="321" y="586"/>
      <point x="261" y="586" type="curve" smooth="yes"/>
      <point x="224" y="586"/>
      <point x="163" y="591"/>
      <point x="123" y="597" type="curve"/>
      <point x="112" y="451" type="line"/>
      <point x="114" y="449" type="line"/>
      <point x="159" y="472"/>
      <point x="216" y="479"/>
      <point x="249" y="479" type="curve" smooth="yes"/>
      <point x="381" y="479"/>
      <point x="466" y="406"/>
      <point x="466" y="302" type="curve" smooth="yes"/>
      <point x="466" y="127"/>
      <point x="288" y="-17"/>
      <point x="83" y="-17" type="curve" smooth="yes"/>
      <point x="41" y="-17"/>
      <point x="27" y="-4"/>
    </contour>
  </outline>
</glyph>
<glyph name="six" format="2">
  <advance width="576"/>
  <unicode hex="0036"/>
  <outline>
    <contour>
      <point x="45" y="271" type="curve" smooth="yes"/>
      <point x="45" y="504"/>
      <point x="185" y="709"/>
      <point x="447" y="709" type="curve" smooth="yes"/>
      <point x="465" y="709"/>
      <point x="519" y="704"/>
      <point x="519" y="683" type="curve" smooth="yes"/>
      <point x="519" y="674"/>
      <point x="511" y="670"/>
      <point x="478" y="670" type="curve" smooth="yes"/>
      <point x="288" y="670"/>
      <point x="201" y="530"/>
      <point x="185" y="352" type="curve"/>
      <point x="187" y="350" type="line"/>
      <point x="219" y="374"/>
      <point x="272" y="401"/>
      <point x="332" y="401" type="curve" smooth="yes"/>
      <point x="464" y="401"/>
      <point x="536" y="323"/>
      <point x="536" y="223" type="curve" smooth="yes"/>
      <point x="536" y="65"/>
      <point x="419" y="-15"/>
      <point x="287" y="-15" type="curve" smooth="yes"/>
      <point x="152" y="-15"/>
      <point x="45" y="98"/>
    </contour>
    <contour>
      <point x="180" y="259" type="curve" smooth="yes"/>
      <point x="180" y="105"/>
      <point x="223" y="17"/>
      <point x="310" y="17" type="curve" smooth="yes"/>
      <point x="362" y="17"/>
      <point x="415" y="66"/>
      <point x="415" y="187" type="curve" smooth="yes"/>
      <point x="415" y="290"/>
      <point x="401" y="362"/>
      <point x="292" y="362" type="curve" smooth="yes"/>
      <point x="248" y="362"/>
      <point x="200" y="329"/>
      <point x="182" y="313" type="curve"/>
      <point x="181" y="293"/>
      <point x="180" y="276"/>
    </contour>
  </outline>
</glyph>
<glyph name="seven" format="2">
  <advance width="498"/>
  <unicode hex="0037"/>
  <outline>
    <contour>
      <point x="16" y="521" type="curve" smooth="yes"/>
      <point x="16" y="525"/>
      <point x="19" y="539"/>
      <point x="21" y="548" type="curve" smooth="yes"/>
      <point x="62" y="693" type="line"/>
      <point x="475" y="693" type="line" smooth="yes"/>
      <point x="482" y="693"/>
      <point x="484" y="689"/>
      <point x="484" y="684" type="curve" smooth="yes"/>
      <point x="484" y="618"/>
      <point x="398" y="481"/>
      <point x="367" y="438" type="curve" smooth="yes"/>
      <point x="297" y="338"/>
      <point x="271" y="254"/>
      <point x="271" y="155" type="curve" smooth="yes"/>
      <point x="271" y="107"/>
      <point x="279" y="77"/>
      <point x="292" y="59" type="curve" smooth="yes"/>
      <point x="307" y="38"/>
      <point x="324" y="32"/>
      <point x="343" y="29" type="curve" smooth="yes"/>
      <point x="354" y="27"/>
      <point x="362" y="24"/>
      <point x="362" y="15" type="curve" smooth="yes"/>
      <point x="362" y="4"/>
      <point x="355" y="0"/>
      <point x="347" y="0" type="curve" smooth="yes"/>
      <point x="187" y="0" type="line" smooth="yes"/>
      <point x="151" y="0"/>
      <point x="137" y="13"/>
      <point x="137" y="52" type="curve" smooth="yes"/>
      <point x="137" y="159"/>
      <point x="173" y="248"/>
      <point x="315" y="428" type="curve" smooth="yes"/>
      <point x="354" y="477"/>
      <point x="392" y="527"/>
      <point x="416" y="581" type="curve"/>
      <point x="416" y="584" type="line"/>
      <point x="124" y="584" type="line" smooth="yes"/>
      <point x="90" y="584"/>
      <point x="73" y="575"/>
      <point x="60" y="540" type="curve" smooth="yes"/>
      <point x="55" y="527"/>
      <point x="44" y="508"/>
      <point x="31" y="508" type="curve" smooth="yes"/>
      <point x="22" y="508"/>
      <point x="16" y="513"/>
    </contour>
  </outline>
</glyph>
<glyph name="eight" format="2">
  <advance width="597"/>
  <unicode hex="0038"/>
  <outline>
    <contour>
      <point x="59" y="138" type="curve" smooth="yes"/>
      <point x="59" y="229"/>
      <point x="148" y="289"/>
      <point x="238" y="322" type="curve"/>
      <point x="238" y="325" type="line"/>
      <point x="160" y="372"/>
      <point x="76" y="429"/>
      <point x="76" y="515" type="curve" smooth="yes"/>
      <point x="76" y="634"/>
      <point x="191" y="707"/>
      <point x="307" y="707" type="curve" smooth="yes"/>
      <point x="432" y="707"/>
      <point x="518" y="645"/>
      <point x="518" y="562" type="curve" smooth="yes"/>
      <point x="518" y="481"/>
      <point x="457" y="431"/>
      <point x="386" y="387" type="curve"/>
      <point x="386" y="384" type="line"/>
      <point x="469" y="333"/>
      <point x="547" y="277"/>
      <point x="547" y="177" type="curve" smooth="yes"/>
      <point x="547" y="38"/>
      <point x="404" y="-17"/>
      <point x="300" y="-17" type="curve" smooth="yes"/>
      <point x="191" y="-17"/>
      <point x="59" y="22"/>
    </contour>
    <contour>
      <point x="138" y="146" type="curve" smooth="yes"/>
      <point x="138" y="65"/>
      <point x="199" y="14"/>
      <point x="275" y="14" type="curve" smooth="yes"/>
      <point x="350" y="14"/>
      <point x="420" y="51"/>
      <point x="420" y="139" type="curve" smooth="yes"/>
      <point x="420" y="198"/>
      <point x="382" y="231"/>
      <point x="332" y="263" type="curve" smooth="yes"/>
      <point x="259" y="310" type="line"/>
      <point x="179" y="274"/>
      <point x="138" y="221"/>
    </contour>
    <contour>
      <point x="203" y="574" type="curve" smooth="yes"/>
      <point x="203" y="520"/>
      <point x="229" y="484"/>
      <point x="278" y="453" type="curve" smooth="yes"/>
      <point x="364" y="398" type="line"/>
      <point x="416" y="431"/>
      <point x="443" y="481"/>
      <point x="443" y="545" type="curve" smooth="yes"/>
      <point x="443" y="604"/>
      <point x="411" y="675"/>
      <point x="312" y="675" type="curve" smooth="yes"/>
      <point x="250" y="675"/>
      <point x="203" y="628"/>
    </contour>
  </outline>
</glyph>
<glyph name="nine" format="2">
  <advance width="576"/>
  <unicode hex="0039"/>
  <outline>
    <contour>
      <point x="40" y="471" type="curve" smooth="yes"/>
      <point x="40" y="629"/>
      <point x="157" y="709"/>
      <point x="289" y="709" type="curve" smooth="yes"/>
      <point x="424" y="709"/>
      <point x="531" y="596"/>
      <point x="531" y="423" type="curve" smooth="yes"/>
      <point x="531" y="190"/>
      <point x="391" y="-15"/>
      <point x="129" y="-15" type="curve" smooth="yes"/>
      <point x="111" y="-15"/>
      <point x="58" y="-10"/>
      <point x="58" y="11" type="curve" smooth="yes"/>
      <point x="58" y="20"/>
      <point x="66" y="24"/>
      <point x="99" y="24" type="curve" smooth="yes"/>
      <point x="289" y="24"/>
      <point x="376" y="164"/>
      <point x="392" y="342" type="curve"/>
      <point x="389" y="344" type="line"/>
      <point x="357" y="320"/>
      <point x="304" y="292"/>
      <point x="244" y="292" type="curve" smooth="yes"/>
      <point x="112" y="292"/>
      <point x="40" y="371"/>
    </contour>
    <contour>
      <point x="161" y="507" type="curve" smooth="yes"/>
      <point x="161" y="404"/>
      <point x="176" y="332"/>
      <point x="285" y="332" type="curve" smooth="yes"/>
      <point x="329" y="332"/>
      <point x="376" y="364"/>
      <point x="394" y="380" type="curve"/>
      <point x="395" y="400"/>
      <point x="396" y="418"/>
      <point x="396" y="435" type="curve" smooth="yes"/>
      <point x="396" y="589"/>
      <point x="354" y="677"/>
      <point x="267" y="677" type="curve" smooth="yes"/>
      <point x="215" y="677"/>
      <point x="161" y="628"/>
    </contour>
  </outline>
</glyph>
<glyph name="less" format="2">
  <advance width="640"/>
  <unicode hex="003C"/>
  <outline>
    <contour>
      <point x="74" y="241" type="curve" smooth="yes"/>
      <point x="74" y="257"/>
      <point x="89" y="267"/>
      <point x="105" y="276" type="curve" smooth="yes"/>
      <point x="484" y="484" type="line" smooth="yes"/>
      <point x="488" y="486"/>
      <point x="493" y="488"/>
      <point x="497" y="488" type="curve" smooth="yes"/>
      <point x="503" y="488"/>
      <point x="507" y="483"/>
      <point x="521" y="464" type="curve" smooth="yes"/>
      <point x="524" y="460"/>
      <point x="528" y="452"/>
      <point x="528" y="448" type="curve" smooth="yes"/>
      <point x="528" y="443"/>
      <point x="522" y="438"/>
      <point x="516" y="435" type="curve" smooth="yes"/>
      <point x="167" y="242" type="line"/>
      <point x="167" y="240" type="line"/>
      <point x="516" y="48" type="line" smooth="yes"/>
      <point x="522" y="45"/>
      <point x="528" y="39"/>
      <point x="528" y="34" type="curve" smooth="yes"/>
      <point x="528" y="30"/>
      <point x="524" y="22"/>
      <point x="521" y="18" type="curve" smooth="yes"/>
      <point x="507" y="-1"/>
      <point x="503" y="-6"/>
      <point x="497" y="-6" type="curve" smooth="yes"/>
      <point x="493" y="-6"/>
      <point x="488" y="-4"/>
      <point x="484" y="-2" type="curve" smooth="yes"/>
      <point x="105" y="207" type="line" smooth="yes"/>
      <point x="89" y="216"/>
      <point x="74" y="225"/>
    </contour>
  </outline>
</glyph>
<glyph name="equal" format="2">
  <advance width="640"/>
  <unicode hex="003D"/>
  <outline>
    <contour>
      <point x="74" y="139" type="curve" smooth="yes"/>
      <point x="74" y="145"/>
      <point x="76" y="151"/>
      <point x="82" y="164" type="curve" smooth="yes"/>
      <point x="89" y="180"/>
      <point x="93" y="188"/>
      <point x="100" y="188" type="curve" smooth="yes"/>
      <point x="550" y="188" type="line" smooth="yes"/>
      <point x="557" y="188"/>
      <point x="566" y="182"/>
      <point x="566" y="176" type="curve" smooth="yes"/>
      <point x="566" y="170"/>
      <point x="565" y="164"/>
      <point x="559" y="151" type="curve" smooth="yes"/>
      <point x="552" y="135"/>
      <point x="548" y="128"/>
      <point x="541" y="128" type="curve" smooth="yes"/>
      <point x="90" y="128" type="line" smooth="yes"/>
      <point x="83" y="128"/>
      <point x="74" y="133"/>
    </contour>
    <contour>
      <point x="74" y="307" type="curve" smooth="yes"/>
      <point x="74" y="313"/>
      <point x="76" y="319"/>
      <point x="82" y="332" type="curve" smooth="yes"/>
      <point x="89" y="348"/>
      <point x="93" y="355"/>
      <point x="100" y="355" type="curve" smooth="yes"/>
      <point x="550" y="355" type="line" smooth="yes"/>
      <point x="557" y="355"/>
      <point x="566" y="350"/>
      <point x="566" y="344" type="curve" smooth="yes"/>
      <point x="566" y="338"/>
      <point x="565" y="332"/>
      <point x="559" y="319" type="curve" smooth="yes"/>
      <point x="552" y="303"/>
      <point x="548" y="296"/>
      <point x="541" y="296" type="curve" smooth="yes"/>
      <point x="90" y="296" type="line" smooth="yes"/>
      <point x="83" y="296"/>
      <point x="74" y="301"/>
    </contour>
  </outline>
</glyph>
<glyph name="greater" format="2">
  <advance width="640"/>
  <unicode hex="003E"/>
  <outline>
    <contour>
      <point x="112" y="34" type="curve" smooth="yes"/>
      <point x="112" y="39"/>
      <point x="119" y="45"/>
      <point x="125" y="48" type="curve" smooth="yes"/>
      <point x="474" y="240" type="line"/>
      <point x="474" y="242" type="line"/>
      <point x="125" y="435" type="line" smooth="yes"/>
      <point x="119" y="438"/>
      <point x="112" y="443"/>
      <point x="112" y="448" type="curve" smooth="yes"/>
      <point x="112" y="452"/>
      <point x="117" y="460"/>
      <point x="120" y="464" type="curve" smooth="yes"/>
      <point x="134" y="483"/>
      <point x="138" y="488"/>
      <point x="144" y="488" type="curve" smooth="yes"/>
      <point x="148" y="488"/>
      <point x="152" y="486"/>
      <point x="156" y="484" type="curve" smooth="yes"/>
      <point x="535" y="276" type="line" smooth="yes"/>
      <point x="551" y="267"/>
      <point x="566" y="257"/>
      <point x="566" y="241" type="curve" smooth="yes"/>
      <point x="566" y="225"/>
      <point x="551" y="216"/>
      <point x="535" y="207" type="curve" smooth="yes"/>
      <point x="156" y="-2" type="line" smooth="yes"/>
      <point x="152" y="-4"/>
      <point x="148" y="-6"/>
      <point x="144" y="-6" type="curve" smooth="yes"/>
      <point x="138" y="-6"/>
      <point x="134" y="-1"/>
      <point x="120" y="18" type="curve" smooth="yes"/>
      <point x="117" y="22"/>
      <point x="112" y="30"/>
    </contour>
  </outline>
</glyph>
<glyph name="question" format="2">
  <advance width="437"/>
  <unicode hex="003F"/>
  <outline>
    <contour>
      <point x="37" y="519" type="curve" smooth="yes"/>
      <point x="37" y="537"/>
      <point x="56" y="629"/>
      <point x="67" y="641" type="curve" smooth="yes"/>
      <point x="92" y="667"/>
      <point x="147" y="707"/>
      <point x="222" y="707" type="curve" smooth="yes"/>
      <point x="344" y="707"/>
      <point x="396" y="592"/>
      <point x="396" y="522" type="curve" smooth="yes"/>
      <point x="396" y="466"/>
      <point x="380" y="410"/>
      <point x="362" y="387" type="curve" smooth="yes"/>
      <point x="341" y="359"/>
      <point x="289" y="334"/>
      <point x="243" y="312" type="curve" smooth="yes"/>
      <point x="191" y="287"/>
      <point x="181" y="267"/>
      <point x="181" y="253" type="curve" smooth="yes"/>
      <point x="181" y="244"/>
      <point x="185" y="236"/>
      <point x="190" y="230" type="curve" smooth="yes"/>
      <point x="194" y="225"/>
      <point x="200" y="218"/>
      <point x="200" y="210" type="curve" smooth="yes"/>
      <point x="200" y="201"/>
      <point x="194" y="193"/>
      <point x="180" y="193" type="curve" smooth="yes"/>
      <point x="152" y="193"/>
      <point x="129" y="254"/>
      <point x="129" y="283" type="curve" smooth="yes"/>
      <point x="129" y="370"/>
      <point x="198" y="403"/>
      <point x="257" y="431" type="curve" smooth="yes"/>
      <point x="311" y="457"/>
      <point x="355" y="483"/>
      <point x="355" y="544" type="curve" smooth="yes"/>
      <point x="355" y="578"/>
      <point x="314" y="608"/>
      <point x="245" y="608" type="curve" smooth="yes"/>
      <point x="194" y="608"/>
      <point x="130" y="569"/>
      <point x="99" y="541" type="curve" smooth="yes"/>
      <point x="80" y="523"/>
      <point x="63" y="508"/>
      <point x="54" y="508" type="curve" smooth="yes"/>
      <point x="48" y="508"/>
      <point x="37" y="514"/>
    </contour>
    <contour>
      <point x="113" y="61" type="curve" smooth="yes"/>
      <point x="113" y="104"/>
      <point x="148" y="139"/>
      <point x="191" y="139" type="curve" smooth="yes"/>
      <point x="234" y="139"/>
      <point x="270" y="104"/>
      <point x="270" y="61" type="curve" smooth="yes"/>
      <point x="270" y="18"/>
      <point x="234" y="-18"/>
      <point x="191" y="-18" type="curve" smooth="yes"/>
      <point x="148" y="-18"/>
      <point x="113" y="18"/>
    </contour>
  </outline>
</glyph>
<glyph name="at" format="2">
  <advance width="978"/>
  <unicode hex="0040"/>
  <outline>
    <contour>
      <point x="55" y="250" type="curve" smooth="yes"/>
      <point x="55" y="494"/>
      <point x="268" y="708"/>
      <point x="541" y="708" type="curve" smooth="yes"/>
      <point x="799" y="708"/>
      <point x="924" y="535"/>
      <point x="924" y="365" type="curve" smooth="yes"/>
      <point x="924" y="201"/>
      <point x="782" y="25"/>
      <point x="630" y="25" type="curve" smooth="yes"/>
      <point x="573" y="25"/>
      <point x="525" y="59"/>
      <point x="512" y="120" type="curve"/>
      <point x="504" y="120" type="line"/>
      <point x="470" y="71"/>
      <point x="407" y="25"/>
      <point x="337" y="25" type="curve" smooth="yes"/>
      <point x="288" y="25"/>
      <point x="238" y="101"/>
      <point x="238" y="205" type="curve" smooth="yes"/>
      <point x="238" y="386"/>
      <point x="463" y="546"/>
      <point x="672" y="546" type="curve" smooth="yes"/>
      <point x="680" y="546"/>
      <point x="714" y="541"/>
      <point x="714" y="536" type="curve" smooth="yes"/>
      <point x="714" y="531"/>
      <point x="712" y="523"/>
      <point x="712" y="521" type="curve" smooth="yes"/>
      <point x="612" y="162" type="line" smooth="yes"/>
      <point x="608" y="145"/>
      <point x="604" y="129"/>
      <point x="604" y="119" type="curve" smooth="yes"/>
      <point x="604" y="82"/>
      <point x="621" y="64"/>
      <point x="649" y="64" type="curve" smooth="yes"/>
      <point x="774" y="64"/>
      <point x="850" y="229"/>
      <point x="850" y="357" type="curve" smooth="yes"/>
      <point x="850" y="522"/>
      <point x="755" y="661"/>
      <point x="539" y="661" type="curve" smooth="yes"/>
      <point x="286" y="661"/>
      <point x="129" y="466"/>
      <point x="129" y="249" type="curve" smooth="yes"/>
      <point x="129" y="35"/>
      <point x="250" y="-113"/>
      <point x="482" y="-113" type="curve" smooth="yes"/>
      <point x="583" y="-113"/>
      <point x="709" y="-80"/>
      <point x="783" y="-5" type="curve" smooth="yes"/>
      <point x="796" y="8"/>
      <point x="810" y="22"/>
      <point x="828" y="22" type="curve" smooth="yes"/>
      <point x="842" y="22"/>
      <point x="849" y="9"/>
      <point x="849" y="-2" type="curve" smooth="yes"/>
      <point x="849" y="-57"/>
      <point x="668" y="-160"/>
      <point x="480" y="-160" type="curve" smooth="yes"/>
      <point x="216" y="-160"/>
      <point x="55" y="8"/>
    </contour>
    <contour>
      <point x="347" y="245" type="curve" smooth="yes"/>
      <point x="347" y="194"/>
      <point x="357" y="85"/>
      <point x="404" y="85" type="curve" smooth="yes"/>
      <point x="436" y="85"/>
      <point x="498" y="127"/>
      <point x="513" y="182" type="curve" smooth="yes"/>
      <point x="594" y="477" type="line"/>
      <point x="457" y="477"/>
      <point x="347" y="429"/>
    </contour>
  </outline>
</glyph>
<glyph name="A" format="2">
  <advance width="672"/>
  <unicode hex="0041"/>
  <anchor x="289" y="0" name="Bottom"/>
  <anchor x="336" y="762" name="TopCap"/>
  <outline>
    <contour>
      <point x="6" y="0" type="line"/>
      <point x="6" y="29" type="line"/>
      <point x="53" y="29"/>
      <point x="75" y="63"/>
      <point x="87" y="100" type="curve" smooth="yes"/>
      <point x="262" y="616" type="line" smooth="yes"/>
      <point x="264" y="624"/>
      <point x="266" y="629"/>
      <point x="266" y="637" type="curve" smooth="yes"/>
      <point x="266" y="647"/>
      <point x="260" y="653"/>
      <point x="250" y="655" type="curve" smooth="yes"/>
      <point x="241" y="657"/>
      <point x="229" y="663"/>
      <point x="229" y="671" type="curve" smooth="yes"/>
      <point x="229" y="679"/>
      <point x="240" y="684"/>
      <point x="246" y="684" type="curve" smooth="yes"/>
      <point x="298" y="684"/>
      <point x="342" y="690"/>
      <point x="361" y="704" type="curve" smooth="yes"/>
      <point x="367" y="708"/>
      <point x="380" y="711"/>
      <point x="385" y="711" type="curve" smooth="yes"/>
      <point x="396" y="711"/>
      <point x="402" y="695"/>
      <point x="410" y="670" type="curve" smooth="yes"/>
      <point x="614" y="29" type="line"/>
      <point x="661" y="29" type="line"/>
      <point x="661" y="0" type="line"/>
      <point x="414" y="0" type="line"/>
      <point x="414" y="29" type="line"/>
      <point x="468" y="29" type="line"/>
      <point x="415" y="199" type="line"/>
      <point x="156" y="199" type="line"/>
      <point x="120" y="96" type="line" smooth="yes"/>
      <point x="117" y="87"/>
      <point x="114" y="73"/>
      <point x="114" y="66" type="curve" smooth="yes"/>
      <point x="114" y="49"/>
      <point x="126" y="29"/>
      <point x="166" y="29" type="curve"/>
      <point x="166" y="0" type="line"/>
    </contour>
    <contour>
      <point x="166" y="229" type="line"/>
      <point x="405" y="229" type="line"/>
      <point x="289" y="592" type="line"/>
    </contour>
  </outline>
</glyph>
<glyph name="B" format="2">
  <advance width="666"/>
  <unicode hex="0042"/>
  <anchor x="289" y="0" name="Bottom"/>
  <outline>
    <contour>
      <point x="47" y="0" type="line"/>
      <point x="47" y="29" type="line"/>
      <point x="98" y="29" type="line"/>
      <point x="98" y="664" type="line"/>
      <point x="47" y="664" type="line"/>
      <point x="47" y="693" type="line"/>
      <point x="354" y="693" type="line" smooth="yes"/>
      <point x="473" y="693"/>
      <point x="576" y="644"/>
      <point x="576" y="537" type="curve" smooth="yes"/>
      <point x="576" y="449"/>
      <point x="512" y="396"/>
      <point x="406" y="390" type="curve"/>
      <point x="406" y="383" type="line"/>
      <point x="520" y="368"/>
      <point x="635" y="313"/>
      <point x="635" y="193" type="curve" smooth="yes"/>
      <point x="635" y="47"/>
      <point x="504" y="0"/>
      <point x="397" y="0" type="curve" smooth="yes"/>
    </contour>
    <contour>
      <point x="235" y="29" type="line"/>
      <point x="351" y="29" type="line" smooth="yes"/>
      <point x="439" y="29"/>
      <point x="484" y="75"/>
      <point x="484" y="197" type="curve" smooth="yes"/>
      <point x="484" y="297"/>
      <point x="442" y="364"/>
      <point x="353" y="365" type="curve" smooth="yes"/>
      <point x="235" y="365" type="line"/>
    </contour>
    <contour>
      <point x="235" y="395" type="line"/>
      <point x="331" y="395" type="line" smooth="yes"/>
      <point x="428" y="395"/>
      <point x="442" y="465"/>
      <point x="442" y="537" type="curve" smooth="yes"/>
      <point x="442" y="614"/>
      <point x="413" y="664"/>
      <point x="330" y="664" type="curve" smooth="yes"/>
      <point x="235" y="664" type="line"/>
    </contour>
  </outline>
</glyph>
<glyph name="C" format="2">
  <advance width="731"/>
  <unicode hex="0043"/>
  <anchor x="405" y="0" name="Bottom"/>
  <anchor x="405" y="762" name="TopCap"/>
  <outline>
    <contour>
      <point x="55" y="347" type="curve" smooth="yes"/>
      <point x="55" y="588"/>
      <point x="221" y="711"/>
      <point x="405" y="711" type="curve" smooth="yes"/>
      <point x="484" y="711"/>
      <point x="550" y="693"/>
      <point x="604" y="664" type="curve" smooth="yes"/>
      <point x="647" y="641"/>
      <point x="658" y="630"/>
      <point x="658" y="607" type="curve" smooth="yes"/>
      <point x="658" y="603"/>
      <point x="657" y="588"/>
      <point x="656" y="582" type="curve" smooth="yes"/>
      <point x="648" y="487" type="line" smooth="yes"/>
      <point x="647" y="478"/>
      <point x="644" y="472"/>
      <point x="637" y="472" type="curve" smooth="yes"/>
      <point x="622" y="472"/>
      <point x="614" y="490"/>
      <point x="605" y="511" type="curve" smooth="yes"/>
      <point x="576" y="583"/>
      <point x="534" y="682"/>
      <point x="405" y="682" type="curve" smooth="yes"/>
      <point x="252" y="682"/>
      <point x="211" y="491"/>
      <point x="211" y="347" type="curve" smooth="yes"/>
      <point x="211" y="203"/>
      <point x="252" y="13"/>
      <point x="405" y="13" type="curve" smooth="yes"/>
      <point x="512" y="13"/>
      <point x="582" y="103"/>
      <point x="609" y="170" type="curve" smooth="yes"/>
      <point x="618" y="191"/>
      <point x="627" y="215"/>
      <point x="642" y="215" type="curve" smooth="yes"/>
      <point x="649" y="215"/>
      <point x="653" y="209"/>
      <point x="654" y="200" type="curve" smooth="yes"/>
      <point x="660" y="98" type="line" smooth="yes"/>
      <point x="660" y="92"/>
      <point x="661" y="76"/>
      <point x="661" y="72" type="curve" smooth="yes"/>
      <point x="661" y="51"/>
      <point x="650" y="43"/>
      <point x="607" y="21" type="curve" smooth="yes"/>
      <point x="555" y="-5"/>
      <point x="484" y="-17"/>
      <point x="405" y="-17" type="curve" smooth="yes"/>
      <point x="221" y="-17"/>
      <point x="55" y="106"/>
    </contour>
  </outline>
</glyph>
<glyph name="F" format="2">
  <advance width="574"/>
  <unicode hex="0046"/>
  <anchor x="168" y="0" name="Bottom"/>
  <outline>
    <contour>
      <point x="47" y="0" type="line"/>
      <point x="47" y="29" type="line"/>
      <point x="98" y="29" type="line"/>
      <point x="98" y="664" type="line"/>
      <point x="47" y="664" type="line"/>
      <point x="47" y="693" type="line"/>
      <point x="545" y="693" type="line" smooth="yes"/>
      <point x="553" y="693"/>
      <point x="557" y="691"/>
      <point x="557" y="687" type="curve" smooth="yes"/>
      <point x="557" y="683"/>
      <point x="554" y="673"/>
      <point x="553" y="669" type="curve" smooth="yes"/>
      <point x="539" y="626"/>
      <point x="530" y="582"/>
      <point x="527" y="537" type="curve" smooth="yes"/>
      <point x="527" y="531"/>
      <point x="519" y="526"/>
      <point x="511" y="526" type="curve" smooth="yes"/>
      <point x="505" y="526"/>
      <point x="496" y="530"/>
      <point x="495" y="537" type="curve" smooth="yes"/>
      <point x="491" y="563"/>
      <point x="481" y="589"/>
      <point x="466" y="610" type="curve" smooth="yes"/>
      <point x="442" y="645"/>
      <point x="411" y="664"/>
      <point x="364" y="664" type="curve" smooth="yes"/>
      <point x="235" y="664" type="line"/>
      <point x="235" y="374" type="line"/>
      <point x="279" y="374" type="line" smooth="yes"/>
      <point x="320" y="374"/>
      <point x="361" y="385"/>
      <point x="382" y="408" type="curve" smooth="yes"/>
      <point x="397" y="424"/>
      <point x="409" y="445"/>
      <point x="414" y="469" type="curve" smooth="yes"/>
      <point x="416" y="477"/>
      <point x="421" y="482"/>
      <point x="429" y="482" type="curve" smooth="yes"/>
      <point x="440" y="482"/>
      <point x="445" y="477"/>
      <point x="445" y="469" type="curve" smooth="yes"/>
      <point x="445" y="245" type="line" smooth="yes"/>
      <point x="445" y="237"/>
      <point x="439" y="231"/>
      <point x="429" y="231" type="curve" smooth="yes"/>
      <point x="421" y="231"/>
      <point x="416" y="236"/>
      <point x="414" y="244" type="curve" smooth="yes"/>
      <point x="410" y="264"/>
      <point x="398" y="290"/>
      <point x="384" y="308" type="curve" smooth="yes"/>
      <point x="362" y="336"/>
      <point x="320" y="345"/>
      <point x="279" y="345" type="curve" smooth="yes"/>
      <point x="235" y="345" type="line"/>
      <point x="235" y="29" type="line"/>
      <point x="286" y="29" type="line"/>
      <point x="286" y="0" type="line"/>
    </contour>
  </outline>
</glyph>
<glyph name="G" format="2">
  <advance width="791"/>
  <unicode hex="0047"/>
  <anchor x="405" y="762" name="TopCap"/>
  <anchor x="408" y="0" name="Bottom"/>
  <outline>
    <contour>
      <point x="55" y="347" type="curve" smooth="yes"/>
      <point x="55" y="588"/>
      <point x="221" y="711"/>
      <point x="405" y="711" type="curve" smooth="yes"/>
      <point x="484" y="711"/>
      <point x="550" y="693"/>
      <point x="604" y="664" type="curve" smooth="yes"/>
      <point x="647" y="641"/>
      <point x="658" y="630"/>
      <point x="658" y="607" type="curve" smooth="yes"/>
      <point x="658" y="603"/>
      <point x="657" y="588"/>
      <point x="656" y="582" type="curve" smooth="yes"/>
      <point x="648" y="487" type="line" smooth="yes"/>
      <point x="647" y="478"/>
      <point x="644" y="472"/>
      <point x="637" y="472" type="curve" smooth="yes"/>
      <point x="622" y="472"/>
      <point x="614" y="490"/>
      <point x="605" y="511" type="curve" smooth="yes"/>
      <point x="576" y="583"/>
      <point x="534" y="682"/>
      <point x="405" y="682" type="curve" smooth="yes"/>
      <point x="252" y="682"/>
      <point x="211" y="491"/>
      <point x="211" y="347" type="curve" smooth="yes"/>
      <point x="211" y="203"/>
      <point x="252" y="13"/>
      <point x="405" y="13" type="curve" smooth="yes"/>
      <point x="534" y="13"/>
      <point x="558" y="93"/>
      <point x="558" y="140" type="curve" smooth="yes"/>
      <point x="558" y="233" type="line" smooth="yes"/>
      <point x="558" y="248"/>
      <point x="554" y="258"/>
      <point x="544" y="268" type="curve" smooth="yes"/>
      <point x="537" y="275"/>
      <point x="526" y="279"/>
      <point x="510" y="279" type="curve" smooth="yes"/>
      <point x="472" y="279" type="line" smooth="yes"/>
      <point x="463" y="279"/>
      <point x="456" y="286"/>
      <point x="456" y="294" type="curve" smooth="yes"/>
      <point x="456" y="302"/>
      <point x="461" y="309"/>
      <point x="468" y="309" type="curve" smooth="yes"/>
      <point x="720" y="309" type="line" smooth="yes"/>
      <point x="728" y="309"/>
      <point x="733" y="304"/>
      <point x="733" y="294" type="curve" smooth="yes"/>
      <point x="733" y="287"/>
      <point x="730" y="279"/>
      <point x="723" y="279" type="curve" smooth="yes"/>
      <point x="712" y="279"/>
      <point x="700" y="278"/>
      <point x="693" y="271" type="curve" smooth="yes"/>
      <point x="684" y="261"/>
      <point x="682" y="248"/>
      <point x="682" y="233" type="curve" smooth="yes"/>
      <point x="682" y="90" type="line" smooth="yes"/>
      <point x="682" y="83"/>
      <point x="685" y="79"/>
      <point x="690" y="76" type="curve" smooth="yes"/>
      <point x="693" y="74"/>
      <point x="698" y="69"/>
      <point x="698" y="65" type="curve" smooth="yes"/>
      <point x="698" y="56"/>
      <point x="691" y="50"/>
      <point x="676" y="41" type="curve" smooth="yes"/>
      <point x="623" y="9"/>
      <point x="484" y="-17"/>
      <point x="405" y="-17" type="curve" smooth="yes"/>
      <point x="221" y="-17"/>
      <point x="55" y="106"/>
    </contour>
  </outline>
</glyph>
<glyph name="H" format="2">
  <advance width="781"/>
  <unicode hex="0048"/>
  <anchor x="391" y="762" name="TopCap"/>
  <anchor x="391" y="0" name="Bottom"/>
  <outline>
    <contour>
      <point x="47" y="0" type="line"/>
      <point x="47" y="29" type="line"/>
      <point x="98" y="29" type="line"/>
      <point x="98" y="664" type="line"/>
      <point x="47" y="664" type="line"/>
      <point x="47" y="693" type="line"/>
      <point x="286" y="693" type="line"/>
      <point x="286" y="664" type="line"/>
      <point x="235" y="664" type="line"/>
      <point x="235" y="380" type="line"/>
      <point x="546" y="380" type="line"/>
      <point x="546" y="664" type="line"/>
      <point x="495" y="664" type="line"/>
      <point x="495" y="693" type="line"/>
      <point x="734" y="693" type="line"/>
      <point x="734" y="664" type="line"/>
      <point x="684" y="664" type="line"/>
      <point x="684" y="29" type="line"/>
      <point x="734" y="29" type="line"/>
      <point x="734" y="0" type="line"/>
      <point x="495" y="0" type="line"/>
      <point x="495" y="29" type="line"/>
      <point x="546" y="29" type="line"/>
      <point x="546" y="351" type="line"/>
      <point x="235" y="351" type="line"/>
      <point x="235" y="29" type="line"/>
      <point x="286" y="29" type="line"/>
      <point x="286" y="0" type="line"/>
    </contour>
  </outline>
</glyph>
<glyph name="I" format="2">
  <advance width="333"/>
  <unicode hex="0049"/>
  <anchor x="167" y="762" name="TopCap"/>
  <anchor x="167" y="0" name="Bottom"/>
  <outline>
    <contour>
      <point x="47" y="0" type="line"/>
      <point x="47" y="29" type="line"/>
      <point x="98" y="29" type="line"/>
      <point x="98" y="664" type="line"/>
      <point x="47" y="664" type="line"/>
      <point x="47" y="693" type="line"/>
      <point x="286" y="693" type="line"/>
      <point x="286" y="664" type="line"/>
      <point x="235" y="664" type="line"/>
      <point x="235" y="29" type="line"/>
      <point x="286" y="29" type="line"/>
      <point x="286" y="0" type="line"/>
    </contour>
  </outline>
</glyph>
<glyph name="J" format="2">
  <advance width="496"/>
  <unicode hex="004A"/>
  <anchor x="197" y="0" name="Bottom"/>
  <anchor x="337" y="762" name="TopCap"/>
  <outline>
    <contour>
      <point x="12" y="133" type="curve" smooth="yes"/>
      <point x="12" y="164"/>
      <point x="130" y="206"/>
      <point x="156" y="206" type="curve" smooth="yes"/>
      <point x="164" y="206"/>
      <point x="167" y="200"/>
      <point x="167" y="196" type="curve" smooth="yes"/>
      <point x="167" y="190"/>
      <point x="162" y="181"/>
      <point x="157" y="174" type="curve" smooth="yes"/>
      <point x="139" y="147"/>
      <point x="127" y="113"/>
      <point x="127" y="79" type="curve" smooth="yes"/>
      <point x="127" y="50"/>
      <point x="140" y="13"/>
      <point x="193" y="13" type="curve" smooth="yes"/>
      <point x="254" y="13"/>
      <point x="269" y="67"/>
      <point x="269" y="132" type="curve" smooth="yes"/>
      <point x="269" y="664" type="line"/>
      <point x="218" y="664" type="line"/>
      <point x="218" y="693" type="line"/>
      <point x="457" y="693" type="line"/>
      <point x="457" y="664" type="line"/>
      <point x="406" y="664" type="line"/>
      <point x="406" y="238" type="line" smooth="yes"/>
      <point x="406" y="71"/>
      <point x="342" y="-17"/>
      <point x="196" y="-17" type="curve" smooth="yes"/>
      <point x="106" y="-17"/>
      <point x="12" y="33"/>
    </contour>
  </outline>
</glyph>
<glyph name="K" format="2">
  <advance width="750"/>
  <unicode hex="004B"/>
  <anchor x="405" y="0" name="Bottom"/>
  <outline>
    <contour>
      <point x="47" y="0" type="line"/>
      <point x="47" y="29" type="line"/>
      <point x="98" y="29" type="line"/>
      <point x="98" y="664" type="line"/>
      <point x="47" y="664" type="line"/>
      <point x="47" y="693" type="line"/>
      <point x="286" y="693" type="line"/>
      <point x="286" y="664" type="line"/>
      <point x="235" y="664" type="line"/>
      <point x="235" y="343" type="line"/>
      <point x="458" y="587" type="line" smooth="yes"/>
      <point x="470" y="600"/>
      <point x="482" y="618"/>
      <point x="482" y="633" type="curve" smooth="yes"/>
      <point x="482" y="656"/>
      <point x="455" y="664"/>
      <point x="415" y="664" type="curve"/>
      <point x="415" y="693" type="line"/>
      <point x="637" y="693" type="line"/>
      <point x="637" y="664" type="line"/>
      <point x="590" y="664"/>
      <point x="544" y="635"/>
      <point x="509" y="597" type="curve" smooth="yes"/>
      <point x="369" y="443" type="line"/>
      <point x="554" y="178" type="line" smooth="yes"/>
      <point x="620" y="84"/>
      <point x="664" y="38"/>
      <point x="716" y="26" type="curve" smooth="yes"/>
      <point x="730" y="23"/>
      <point x="744" y="19"/>
      <point x="744" y="12" type="curve" smooth="yes"/>
      <point x="744" y="-7"/>
      <point x="717" y="-20"/>
      <point x="688" y="-20" type="curve" smooth="yes"/>
      <point x="561" y="-20"/>
      <point x="493" y="40"/>
      <point x="418" y="155" type="curve" smooth="yes"/>
      <point x="283" y="350" type="line"/>
      <point x="235" y="297" type="line"/>
      <point x="235" y="29" type="line"/>
      <point x="286" y="29" type="line"/>
      <point x="286" y="0" type="line"/>
    </contour>
  </outline>
</glyph>
<glyph name="L" format="2">
  <advance width="613"/>
  <unicode hex="004C"/>
  <anchor x="197" y="762" name="TopCap"/>
  <anchor x="328" y="0" name="Bottom"/>
  <outline>
    <contour>
      <point x="47" y="0" type="line"/>
      <point x="47" y="29" type="line"/>
      <point x="98" y="29" type="line"/>
      <point x="98" y="664" type="line"/>
      <point x="47" y="664" type="line"/>
      <point x="47" y="693" type="line"/>
      <point x="286" y="693" type="line"/>
      <point x="286" y="664" type="line"/>
      <point x="235" y="664" type="line"/>
      <point x="235" y="29" type="line"/>
      <point x="325" y="29" type="line" smooth="yes"/>
      <point x="390" y="29"/>
      <point x="458" y="49"/>
      <point x="504" y="103" type="curve" smooth="yes"/>
      <point x="528" y="131"/>
      <point x="546" y="158"/>
      <point x="561" y="191" type="curve" smooth="yes"/>
      <point x="566" y="202"/>
      <point x="571" y="208"/>
      <point x="584" y="208" type="curve" smooth="yes"/>
      <point x="594" y="208"/>
      <point x="602" y="200"/>
      <point x="602" y="191" type="curve" smooth="yes"/>
      <point x="602" y="184"/>
      <point x="600" y="170"/>
      <point x="596" y="150" type="curve" smooth="yes"/>
      <point x="564" y="0" type="line"/>
    </contour>
  </outline>
</glyph>
<glyph name="M" format="2">
  <advance width="935"/>
  <unicode hex="004D"/>
  <anchor x="442" y="0" name="Bottom"/>
  <outline>
    <contour>
      <point x="43" y="0" type="line"/>
      <point x="43" y="29" type="line"/>
      <point x="80" y="29"/>
      <point x="126" y="49"/>
      <point x="129" y="95" type="curve" smooth="yes"/>
      <point x="162" y="522" type="line" smooth="yes"/>
      <point x="162" y="530"/>
      <point x="163" y="545"/>
      <point x="163" y="549" type="curve" smooth="yes"/>
      <point x="163" y="570"/>
      <point x="157" y="585"/>
      <point x="147" y="605" type="curve" smooth="yes"/>
      <point x="137" y="626"/>
      <point x="129" y="640"/>
      <point x="112" y="652" type="curve" smooth="yes"/>
      <point x="100" y="660"/>
      <point x="87" y="664"/>
      <point x="70" y="664" type="curve" smooth="yes"/>
      <point x="61" y="664"/>
      <point x="57" y="672"/>
      <point x="57" y="679" type="curve" smooth="yes"/>
      <point x="57" y="686"/>
      <point x="61" y="693"/>
      <point x="70" y="693" type="curve" smooth="yes"/>
      <point x="218" y="693" type="line" smooth="yes"/>
      <point x="247" y="693"/>
      <point x="253" y="691"/>
      <point x="263" y="670" type="curve" smooth="yes"/>
      <point x="489" y="170" type="line"/>
      <point x="689" y="670" type="line" smooth="yes"/>
      <point x="693" y="681"/>
      <point x="699" y="693"/>
      <point x="718" y="693" type="curve" smooth="yes"/>
      <point x="847" y="693" type="line"/>
      <point x="847" y="664" type="line"/>
      <point x="796" y="664" type="line"/>
      <point x="854" y="29" type="line"/>
      <point x="904" y="29" type="line"/>
      <point x="904" y="0" type="line"/>
      <point x="659" y="0" type="line"/>
      <point x="659" y="29" type="line"/>
      <point x="714" y="29" type="line"/>
      <point x="670" y="541" type="line"/>
      <point x="668" y="541" type="line"/>
      <point x="665" y="526"/>
      <point x="661" y="517"/>
      <point x="657" y="506" type="curve" smooth="yes"/>
      <point x="453" y="-2" type="line" smooth="yes"/>
      <point x="451" y="-8"/>
      <point x="444" y="-12"/>
      <point x="438" y="-12" type="curve" smooth="yes"/>
      <point x="432" y="-12"/>
      <point x="426" y="-8"/>
      <point x="423" y="-2" type="curve" smooth="yes"/>
      <point x="208" y="473" type="line" smooth="yes"/>
      <point x="205" y="480"/>
      <point x="200" y="494"/>
      <point x="198" y="506" type="curve"/>
      <point x="195" y="506" type="line"/>
      <point x="164" y="97" type="line" smooth="yes"/>
      <point x="164" y="94"/>
      <point x="163" y="85"/>
      <point x="163" y="83" type="curve" smooth="yes"/>
      <point x="163" y="44"/>
      <point x="206" y="29"/>
      <point x="247" y="29" type="curve"/>
      <point x="247" y="0" type="line"/>
    </contour>
  </outline>
</glyph>
<glyph name="N" format="2">
  <advance width="722"/>
  <unicode hex="004E"/>
  <anchor x="408" y="762" name="TopCap"/>
  <anchor x="390" y="0" name="Bottom"/>
  <outline>
    <contour>
      <point x="39" y="680" type="curve" smooth="yes"/>
      <point x="39" y="687"/>
      <point x="44" y="693"/>
      <point x="53" y="693" type="curve" smooth="yes"/>
      <point x="179" y="693" type="line" smooth="yes"/>
      <point x="220" y="693"/>
      <point x="236" y="675"/>
      <point x="251" y="654" type="curve" smooth="yes"/>
      <point x="572" y="206" type="line"/>
      <point x="577" y="206" type="line"/>
      <point x="577" y="600" type="line" smooth="yes"/>
      <point x="577" y="650"/>
      <point x="543" y="664"/>
      <point x="494" y="664" type="curve"/>
      <point x="494" y="693" type="line"/>
      <point x="696" y="693" type="line"/>
      <point x="696" y="664" type="line"/>
      <point x="659" y="664"/>
      <point x="610" y="645"/>
      <point x="610" y="599" type="curve" smooth="yes"/>
      <point x="610" y="-12" type="line"/>
      <point x="582" y="-12" type="line" smooth="yes"/>
      <point x="561" y="-12"/>
      <point x="545" y="7"/>
      <point x="538" y="17" type="curve" smooth="yes"/>
      <point x="173" y="526" type="line"/>
      <point x="168" y="526" type="line"/>
      <point x="168" y="94" type="line" smooth="yes"/>
      <point x="168" y="44"/>
      <point x="202" y="29"/>
      <point x="251" y="29" type="curve"/>
      <point x="251" y="0" type="line"/>
      <point x="49" y="0" type="line"/>
      <point x="49" y="29" type="line"/>
      <point x="86" y="29"/>
      <point x="135" y="49"/>
      <point x="135" y="95" type="curve" smooth="yes"/>
      <point x="135" y="560" type="line" smooth="yes"/>
      <point x="135" y="566"/>
      <point x="134" y="575"/>
      <point x="130" y="583" type="curve" smooth="yes"/>
      <point x="126" y="593"/>
      <point x="118" y="604"/>
      <point x="107" y="618" type="curve" smooth="yes"/>
      <point x="87" y="644"/>
      <point x="71" y="655"/>
      <point x="52" y="663" type="curve" smooth="yes"/>
      <point x="45" y="666"/>
      <point x="39" y="671"/>
    </contour>
  </outline>
</glyph>
<glyph name="O" format="2">
  <advance width="810"/>
  <unicode hex="004F"/>
  <anchor x="405" y="762" name="TopCap"/>
  <anchor x="405" y="0" name="Bottom"/>
  <outline>
    <contour>
      <point x="55" y="347" type="curve" smooth="yes"/>
      <point x="55" y="560"/>
      <point x="212" y="711"/>
      <point x="405" y="711" type="curve" smooth="yes"/>
      <point x="598" y="711"/>
      <point x="756" y="560"/>
      <point x="756" y="347" type="curve" smooth="yes"/>
      <point x="756" y="134"/>
      <point x="598" y="-17"/>
      <point x="405" y="-17" type="curve" smooth="yes"/>
      <point x="212" y="-17"/>
      <point x="55" y="134"/>
    </contour>
    <contour>
      <point x="211" y="347" type="curve" smooth="yes"/>
      <point x="211" y="154"/>
      <point x="252" y="13"/>
      <point x="405" y="13" type="curve" smooth="yes"/>
      <point x="558" y="13"/>
      <point x="600" y="154"/>
      <point x="600" y="347" type="curve" smooth="yes"/>
      <point x="600" y="540"/>
      <point x="558" y="682"/>
      <point x="405" y="682" type="curve" smooth="yes"/>
      <point x="252" y="682"/>
      <point x="211" y="540"/>
    </contour>
  </outline>
</glyph>
<glyph name="P" format="2">
  <advance width="643"/>
  <unicode hex="0050"/>
  <anchor x="168" y="0" name="Bottom"/>
  <outline>
    <contour>
      <point x="47" y="0" type="line"/>
      <point x="47" y="29" type="line"/>
      <point x="98" y="29" type="line"/>
      <point x="98" y="664" type="line"/>
      <point x="47" y="664" type="line"/>
      <point x="47" y="693" type="line"/>
      <point x="307" y="693" type="line" smooth="yes"/>
      <point x="533" y="693"/>
      <point x="622" y="608"/>
      <point x="622" y="501" type="curve" smooth="yes"/>
      <point x="622" y="369"/>
      <point x="513" y="293"/>
      <point x="366" y="293" type="curve" smooth="yes"/>
      <point x="321" y="293"/>
      <point x="254" y="314"/>
      <point x="254" y="336" type="curve" smooth="yes"/>
      <point x="254" y="344"/>
      <point x="258" y="351"/>
      <point x="265" y="351" type="curve" smooth="yes"/>
      <point x="269" y="351"/>
      <point x="277" y="348"/>
      <point x="286" y="343" type="curve" smooth="yes"/>
      <point x="301" y="334"/>
      <point x="333" y="326"/>
      <point x="350" y="326" type="curve" smooth="yes"/>
      <point x="433" y="326"/>
      <point x="472" y="373"/>
      <point x="472" y="500" type="curve" smooth="yes"/>
      <point x="472" y="595"/>
      <point x="441" y="664"/>
      <point x="322" y="664" type="curve" smooth="yes"/>
      <point x="235" y="664" type="line"/>
      <point x="235" y="29" type="line"/>
      <point x="286" y="29" type="line"/>
      <point x="286" y="0" type="line"/>
    </contour>
  </outline>
</glyph>
<glyph name="Q" format="2">
  <advance width="810"/>
  <unicode hex="0051"/>
  <anchor x="215" y="0" name="Bottom"/>
  <outline>
    <contour>
      <point x="55" y="347" type="curve" smooth="yes"/>
      <point x="55" y="560"/>
      <point x="212" y="711"/>
      <point x="405" y="711" type="curve" smooth="yes"/>
      <point x="598" y="711"/>
      <point x="756" y="560"/>
      <point x="756" y="347" type="curve" smooth="yes"/>
      <point x="756" y="161"/>
      <point x="636" y="31"/>
      <point x="505" y="-2" type="curve"/>
      <point x="551" y="-126"/>
      <point x="613" y="-151"/>
      <point x="670" y="-162" type="curve" smooth="yes"/>
      <point x="684" y="-165"/>
      <point x="698" y="-168"/>
      <point x="698" y="-175" type="curve" smooth="yes"/>
      <point x="698" y="-194"/>
      <point x="662" y="-207"/>
      <point x="633" y="-207" type="curve" smooth="yes"/>
      <point x="516" y="-207"/>
      <point x="423" y="-151"/>
      <point x="363" y="-14" type="curve"/>
      <point x="189" y="6"/>
      <point x="55" y="150"/>
    </contour>
    <contour>
      <point x="211" y="347" type="curve" smooth="yes"/>
      <point x="211" y="179"/>
      <point x="242" y="51"/>
      <point x="351" y="20" type="curve"/>
      <point x="377" y="36"/>
      <point x="438" y="62"/>
      <point x="467" y="62" type="curve" smooth="yes"/>
      <point x="472" y="62"/>
      <point x="484" y="55"/>
      <point x="491" y="33" type="curve"/>
      <point x="569" y="74"/>
      <point x="600" y="188"/>
      <point x="600" y="347" type="curve" smooth="yes"/>
      <point x="600" y="540"/>
      <point x="558" y="682"/>
      <point x="405" y="682" type="curve" smooth="yes"/>
      <point x="252" y="682"/>
      <point x="211" y="540"/>
    </contour>
  </outline>
</glyph>
<glyph name="R" format="2">
  <advance width="719"/>
  <unicode hex="0052"/>
  <anchor x="306" y="762" name="TopCap"/>
  <anchor x="398" y="0" name="Bottom"/>
  <outline>
    <contour>
      <point x="47" y="0" type="line"/>
      <point x="47" y="29" type="line"/>
      <point x="98" y="29" type="line"/>
      <point x="98" y="664" type="line"/>
      <point x="47" y="664" type="line"/>
      <point x="47" y="693" type="line"/>
      <point x="326" y="693" type="line" smooth="yes"/>
      <point x="493" y="693"/>
      <point x="588" y="623"/>
      <point x="588" y="506" type="curve" smooth="yes"/>
      <point x="588" y="402"/>
      <point x="524" y="363"/>
      <point x="432" y="347" type="curve"/>
      <point x="432" y="343" type="line"/>
      <point x="545" y="154" type="line" smooth="yes"/>
      <point x="603" y="57"/>
      <point x="634" y="38"/>
      <point x="686" y="26" type="curve" smooth="yes"/>
      <point x="700" y="23"/>
      <point x="714" y="19"/>
      <point x="714" y="12" type="curve" smooth="yes"/>
      <point x="714" y="-7"/>
      <point x="680" y="-20"/>
      <point x="651" y="-20" type="curve" smooth="yes"/>
      <point x="524" y="-20"/>
      <point x="472" y="33"/>
      <point x="408" y="140" type="curve" smooth="yes"/>
      <point x="289" y="338" type="line"/>
      <point x="235" y="338" type="line"/>
      <point x="235" y="29" type="line"/>
      <point x="286" y="29" type="line"/>
      <point x="286" y="0" type="line"/>
    </contour>
    <contour>
      <point x="235" y="367" type="line"/>
      <point x="302" y="367" type="line" smooth="yes"/>
      <point x="396" y="367"/>
      <point x="449" y="406"/>
      <point x="449" y="508" type="curve" smooth="yes"/>
      <point x="449" y="607"/>
      <point x="412" y="664"/>
      <point x="293" y="664" type="curve" smooth="yes"/>
      <point x="235" y="664" type="line"/>
    </contour>
  </outline>
</glyph>
<glyph name="S" format="2">
  <advance width="605"/>
  <unicode hex="0053"/>
  <anchor x="316" y="762" name="TopCap"/>
  <anchor x="306" y="0" name="Bottom"/>
  <outline>
    <contour>
      <point x="65" y="68" type="curve" smooth="yes"/>
      <point x="65" y="72"/>
      <point x="66" y="86"/>
      <point x="66" y="94" type="curve" smooth="yes"/>
      <point x="73" y="223" type="line" smooth="yes"/>
      <point x="73" y="234"/>
      <point x="80" y="239"/>
      <point x="87" y="239" type="curve" smooth="yes"/>
      <point x="105" y="239"/>
      <point x="115" y="221"/>
      <point x="121" y="204" type="curve" smooth="yes"/>
      <point x="158" y="102"/>
      <point x="213" y="13"/>
      <point x="308" y="13" type="curve" smooth="yes"/>
      <point x="398" y="13"/>
      <point x="438" y="65"/>
      <point x="438" y="129" type="curve" smooth="yes"/>
      <point x="438" y="214"/>
      <point x="377" y="257"/>
      <point x="274" y="311" type="curve" smooth="yes"/>
      <point x="172" y="364"/>
      <point x="89" y="415"/>
      <point x="89" y="538" type="curve" smooth="yes"/>
      <point x="89" y="634"/>
      <point x="160" y="711"/>
      <point x="316" y="711" type="curve" smooth="yes"/>
      <point x="366" y="711"/>
      <point x="426" y="699"/>
      <point x="466" y="681" type="curve" smooth="yes"/>
      <point x="511" y="661"/>
      <point x="520" y="651"/>
      <point x="520" y="628" type="curve" smooth="yes"/>
      <point x="520" y="620"/>
      <point x="519" y="605"/>
      <point x="513" y="572" type="curve" smooth="yes"/>
      <point x="508" y="548"/>
      <point x="500" y="511"/>
      <point x="490" y="511" type="curve" smooth="yes"/>
      <point x="478" y="511"/>
      <point x="471" y="522"/>
      <point x="462" y="543" type="curve" smooth="yes"/>
      <point x="434" y="607"/>
      <point x="388" y="682"/>
      <point x="316" y="682" type="curve" smooth="yes"/>
      <point x="240" y="682"/>
      <point x="210" y="638"/>
      <point x="210" y="577" type="curve" smooth="yes"/>
      <point x="210" y="494"/>
      <point x="269" y="454"/>
      <point x="349" y="412" type="curve" smooth="yes"/>
      <point x="480" y="343"/>
      <point x="562" y="289"/>
      <point x="562" y="171" type="curve" smooth="yes"/>
      <point x="562" y="44"/>
      <point x="460" y="-16"/>
      <point x="308" y="-16" type="curve" smooth="yes"/>
      <point x="249" y="-16"/>
      <point x="171" y="0"/>
      <point x="116" y="23" type="curve" smooth="yes"/>
      <point x="71" y="42"/>
      <point x="65" y="45"/>
    </contour>
  </outline>
</glyph>
<glyph name="U" format="2">
  <advance width="708"/>
  <unicode hex="0055"/>
  <anchor x="372" y="0" name="Bottom"/>
  <anchor x="377" y="762" name="TopCap"/>
  <outline>
    <contour>
      <point x="43" y="664" type="line"/>
      <point x="43" y="693" type="line"/>
      <point x="282" y="693" type="line"/>
      <point x="282" y="664" type="line"/>
      <point x="231" y="664" type="line"/>
      <point x="231" y="176" type="line" smooth="yes"/>
      <point x="231" y="60"/>
      <point x="299" y="13"/>
      <point x="368" y="13" type="curve" smooth="yes"/>
      <point x="500" y="13"/>
      <point x="562" y="99"/>
      <point x="562" y="206" type="curve" smooth="yes"/>
      <point x="562" y="600" type="line" smooth="yes"/>
      <point x="562" y="650"/>
      <point x="528" y="664"/>
      <point x="479" y="664" type="curve"/>
      <point x="479" y="693" type="line"/>
      <point x="682" y="693" type="line"/>
      <point x="682" y="664" type="line"/>
      <point x="645" y="664"/>
      <point x="596" y="645"/>
      <point x="596" y="599" type="curve" smooth="yes"/>
      <point x="596" y="192" type="line" smooth="yes"/>
      <point x="596" y="78"/>
      <point x="512" y="-17"/>
      <point x="370" y="-17" type="curve" smooth="yes"/>
      <point x="199" y="-17"/>
      <point x="94" y="48"/>
      <point x="94" y="243" type="curve" smooth="yes"/>
      <point x="94" y="664" type="line"/>
    </contour>
  </outline>
</glyph>
<glyph name="V" format="2">
  <advance width="683"/>
  <unicode hex="0056"/>
  <anchor x="345" y="0" name="Bottom"/>
  <outline>
    <contour>
      <point x="12" y="664" type="line"/>
      <point x="12" y="693" type="line"/>
      <point x="259" y="693" type="line"/>
      <point x="259" y="664" type="line"/>
      <point x="205" y="664" type="line"/>
      <point x="400" y="168" type="line"/>
      <point x="560" y="594" type="line" smooth="yes"/>
      <point x="564" y="604"/>
      <point x="568" y="618"/>
      <point x="568" y="628" type="curve" smooth="yes"/>
      <point x="568" y="645"/>
      <point x="556" y="664"/>
      <point x="516" y="664" type="curve"/>
      <point x="516" y="693" type="line"/>
      <point x="678" y="693" type="line"/>
      <point x="678" y="664" type="line"/>
      <point x="631" y="664"/>
      <point x="611" y="629"/>
      <point x="597" y="593" type="curve" smooth="yes"/>
      <point x="378" y="15" type="line" smooth="yes"/>
      <point x="373" y="0"/>
      <point x="363" y="-14"/>
      <point x="346" y="-14" type="curve" smooth="yes"/>
      <point x="329" y="-14"/>
      <point x="320" y="0"/>
      <point x="313" y="18" type="curve" smooth="yes"/>
      <point x="59" y="664" type="line"/>
    </contour>
  </outline>
</glyph>
<glyph name="W" format="2">
  <advance width="1034"/>
  <unicode hex="0057"/>
  <anchor x="533" y="0" name="Bottom"/>
  <anchor x="563" y="762" name="TopCap"/>
  <outline>
    <contour>
      <point x="12" y="664" type="line"/>
      <point x="12" y="693" type="line"/>
      <point x="253" y="693" type="line"/>
      <point x="253" y="664" type="line"/>
      <point x="203" y="664" type="line"/>
      <point x="363" y="185" type="line"/>
      <point x="501" y="608" type="line"/>
      <point x="482" y="664" type="line"/>
      <point x="435" y="664" type="line"/>
      <point x="435" y="693" type="line"/>
      <point x="676" y="693" type="line"/>
      <point x="676" y="664" type="line"/>
      <point x="625" y="664" type="line"/>
      <point x="786" y="185" type="line"/>
      <point x="917" y="589" type="line" smooth="yes"/>
      <point x="920" y="600"/>
      <point x="925" y="616"/>
      <point x="925" y="631" type="curve" smooth="yes"/>
      <point x="925" y="648"/>
      <point x="912" y="664"/>
      <point x="873" y="664" type="curve"/>
      <point x="873" y="693" type="line"/>
      <point x="1028" y="693" type="line"/>
      <point x="1028" y="664" type="line"/>
      <point x="990" y="664"/>
      <point x="966" y="630"/>
      <point x="949" y="579" type="curve" smooth="yes"/>
      <point x="767" y="15" type="line"/>
      <point x="762" y="0"/>
      <point x="750" y="-14"/>
      <point x="733" y="-14" type="curve" smooth="yes"/>
      <point x="716" y="-14"/>
      <point x="706" y="0"/>
      <point x="699" y="18" type="curve"/>
      <point x="519" y="555" type="line"/>
      <point x="344" y="15" type="line" smooth="yes"/>
      <point x="339" y="0"/>
      <point x="327" y="-14"/>
      <point x="310" y="-14" type="curve" smooth="yes"/>
      <point x="293" y="-14"/>
      <point x="283" y="0"/>
      <point x="276" y="18" type="curve"/>
      <point x="59" y="664" type="line"/>
    </contour>
  </outline>
</glyph>
<glyph name="X" format="2">
  <advance width="687"/>
  <unicode hex="0058"/>
  <anchor x="330" y="0" name="Bottom"/>
  <outline>
    <contour>
      <point x="27" y="0" type="line"/>
      <point x="27" y="29" type="line"/>
      <point x="71" y="29"/>
      <point x="101" y="68"/>
      <point x="125" y="100" type="curve" smooth="yes"/>
      <point x="294" y="322" type="line"/>
      <point x="98" y="664" type="line"/>
      <point x="47" y="664" type="line"/>
      <point x="47" y="693" type="line"/>
      <point x="292" y="693" type="line"/>
      <point x="292" y="664" type="line"/>
      <point x="240" y="664" type="line"/>
      <point x="375" y="429" type="line"/>
      <point x="507" y="601" type="line" smooth="yes"/>
      <point x="514" y="611"/>
      <point x="524" y="626"/>
      <point x="524" y="639" type="curve" smooth="yes"/>
      <point x="524" y="653"/>
      <point x="518" y="665"/>
      <point x="478" y="665" type="curve"/>
      <point x="478" y="694" type="line"/>
      <point x="645" y="694" type="line"/>
      <point x="645" y="665" type="line"/>
      <point x="602" y="665"/>
      <point x="567" y="625"/>
      <point x="543" y="594" type="curve" smooth="yes"/>
      <point x="394" y="397" type="line"/>
      <point x="605" y="29" type="line"/>
      <point x="656" y="29" type="line"/>
      <point x="656" y="0" type="line"/>
      <point x="415" y="0" type="line"/>
      <point x="415" y="29" type="line"/>
      <point x="463" y="29" type="line"/>
      <point x="312" y="291" type="line"/>
      <point x="162" y="93" type="line" smooth="yes"/>
      <point x="154" y="82"/>
      <point x="149" y="69"/>
      <point x="149" y="58" type="curve" smooth="yes"/>
      <point x="149" y="44"/>
      <point x="154" y="29"/>
      <point x="194" y="29" type="curve"/>
      <point x="194" y="0" type="line"/>
    </contour>
  </outline>
</glyph>
<glyph name="Y" format="2">
  <advance width="693"/>
  <unicode hex="0059"/>
  <anchor x="358" y="0" name="Bottom"/>
  <anchor x="379" y="762" name="TopCap"/>
  <outline>
    <contour>
      <point x="14" y="664" type="line"/>
      <point x="14" y="693" type="line"/>
      <point x="268" y="693" type="line"/>
      <point x="268" y="664" type="line"/>
      <point x="214" y="664" type="line"/>
      <point x="407" y="335" type="line"/>
      <point x="556" y="594" type="line" smooth="yes"/>
      <point x="561" y="604"/>
      <point x="569" y="618"/>
      <point x="569" y="628" type="curve" smooth="yes"/>
      <point x="569" y="645"/>
      <point x="557" y="664"/>
      <point x="517" y="664" type="curve"/>
      <point x="517" y="693" type="line"/>
      <point x="688" y="693" type="line"/>
      <point x="688" y="664" type="line"/>
      <point x="641" y="664"/>
      <point x="616" y="628"/>
      <point x="595" y="593" type="curve" smooth="yes"/>
      <point x="428" y="298" type="line"/>
      <point x="428" y="29" type="line"/>
      <point x="479" y="29" type="line"/>
      <point x="479" y="0" type="line"/>
      <point x="239" y="0" type="line"/>
      <point x="239" y="29" type="line"/>
      <point x="290" y="29" type="line"/>
      <point x="290" y="273" type="line"/>
      <point x="61" y="664" type="line"/>
    </contour>
  </outline>
</glyph>
<glyph name="Z" format="2">
  <advance width="661"/>
  <unicode hex="005A"/>
  <anchor x="343" y="0" name="Bottom"/>
  <anchor x="363" y="762" name="TopCap"/>
  <outline>
    <contour>
      <point x="47" y="0" type="line"/>
      <point x="47" y="29" type="line"/>
      <point x="466" y="664" type="line"/>
      <point x="308" y="664" type="line" smooth="yes"/>
      <point x="252" y="664"/>
      <point x="217" y="648"/>
      <point x="181" y="604" type="curve" smooth="yes"/>
      <point x="157" y="574"/>
      <point x="140" y="543"/>
      <point x="124" y="509" type="curve" smooth="yes"/>
      <point x="119" y="498"/>
      <point x="114" y="492"/>
      <point x="101" y="492" type="curve" smooth="yes"/>
      <point x="91" y="492"/>
      <point x="83" y="498"/>
      <point x="83" y="507" type="curve" smooth="yes"/>
      <point x="83" y="514"/>
      <point x="85" y="527"/>
      <point x="86" y="535" type="curve" smooth="yes"/>
      <point x="107" y="693" type="line"/>
      <point x="620" y="693" type="line"/>
      <point x="620" y="664" type="line"/>
      <point x="200" y="29" type="line"/>
      <point x="348" y="29" type="line" smooth="yes"/>
      <point x="404" y="29"/>
      <point x="464" y="52"/>
      <point x="506" y="95" type="curve" smooth="yes"/>
      <point x="534" y="123"/>
      <point x="564" y="178"/>
      <point x="582" y="220" type="curve" smooth="yes"/>
      <point x="586" y="231"/>
      <point x="591" y="238"/>
      <point x="604" y="238" type="curve" smooth="yes"/>
      <point x="614" y="238"/>
      <point x="622" y="231"/>
      <point x="622" y="222" type="curve" smooth="yes"/>
      <point x="622" y="215"/>
      <point x="620" y="203"/>
      <point x="619" y="195" type="curve" smooth="yes"/>
      <point x="579" y="0" type="line"/>
    </contour>
  </outline>
</glyph>
<glyph name="bracketleft" format="2">
  <advance width="395"/>
  <unicode hex="005B"/>
  <outline>
    <contour>
      <point x="93" y="-146" type="curve" smooth="yes"/>
      <point x="93" y="670" type="line" smooth="yes"/>
      <point x="93" y="686"/>
      <point x="98" y="693"/>
      <point x="114" y="693" type="curve" smooth="yes"/>
      <point x="358" y="693" type="line" smooth="yes"/>
      <point x="359" y="693"/>
      <point x="364" y="691"/>
      <point x="364" y="687" type="curve" smooth="yes"/>
      <point x="364" y="679"/>
      <point x="358" y="664"/>
      <point x="351" y="664" type="curve" smooth="yes"/>
      <point x="208" y="664" type="line" smooth="yes"/>
      <point x="196" y="664"/>
      <point x="190" y="658"/>
      <point x="190" y="646" type="curve" smooth="yes"/>
      <point x="190" y="-122" type="line" smooth="yes"/>
      <point x="190" y="-134"/>
      <point x="196" y="-140"/>
      <point x="208" y="-140" type="curve" smooth="yes"/>
      <point x="358" y="-140" type="line" smooth="yes"/>
      <point x="359" y="-140"/>
      <point x="364" y="-142"/>
      <point x="364" y="-146" type="curve" smooth="yes"/>
      <point x="364" y="-154"/>
      <point x="358" y="-169"/>
      <point x="351" y="-169" type="curve" smooth="yes"/>
      <point x="114" y="-169" type="line" smooth="yes"/>
      <point x="98" y="-169"/>
      <point x="93" y="-162"/>
    </contour>
  </outline>
</glyph>
<glyph name="backslash" format="2">
  <advance width="484"/>
  <unicode hex="005C"/>
  <outline>
    <contour>
      <point x="31" y="669" type="curve" smooth="yes"/>
      <point x="31" y="677"/>
      <point x="35" y="688"/>
      <point x="61" y="703" type="curve" smooth="yes"/>
      <point x="65" y="705"/>
      <point x="70" y="708"/>
      <point x="72" y="708" type="curve" smooth="yes"/>
      <point x="77" y="708"/>
      <point x="82" y="703"/>
      <point x="85" y="697" type="curve" smooth="yes"/>
      <point x="449" y="-58" type="line" smooth="yes"/>
      <point x="451" y="-62"/>
      <point x="453" y="-67"/>
      <point x="453" y="-71" type="curve" smooth="yes"/>
      <point x="453" y="-79"/>
      <point x="449" y="-90"/>
      <point x="423" y="-105" type="curve" smooth="yes"/>
      <point x="419" y="-107"/>
      <point x="414" y="-109"/>
      <point x="412" y="-109" type="curve" smooth="yes"/>
      <point x="407" y="-109"/>
      <point x="402" y="-105"/>
      <point x="399" y="-99" type="curve" smooth="yes"/>
      <point x="35" y="656" type="line" smooth="yes"/>
      <point x="33" y="660"/>
      <point x="31" y="665"/>
    </contour>
  </outline>
</glyph>
<glyph name="bracketright" format="2">
  <advance width="395"/>
  <unicode hex="005D"/>
  <outline>
    <contour>
      <point x="31" y="-146" type="curve" smooth="yes"/>
      <point x="31" y="-142"/>
      <point x="36" y="-140"/>
      <point x="37" y="-140" type="curve" smooth="yes"/>
      <point x="188" y="-140" type="line" smooth="yes"/>
      <point x="200" y="-140"/>
      <point x="205" y="-134"/>
      <point x="205" y="-122" type="curve" smooth="yes"/>
      <point x="205" y="646" type="line" smooth="yes"/>
      <point x="205" y="658"/>
      <point x="200" y="664"/>
      <point x="188" y="664" type="curve" smooth="yes"/>
      <point x="45" y="664" type="line" smooth="yes"/>
      <point x="38" y="664"/>
      <point x="31" y="679"/>
      <point x="31" y="687" type="curve" smooth="yes"/>
      <point x="31" y="691"/>
      <point x="36" y="693"/>
      <point x="37" y="693" type="curve" smooth="yes"/>
      <point x="281" y="693" type="line" smooth="yes"/>
      <point x="297" y="693"/>
      <point x="303" y="686"/>
      <point x="303" y="670" type="curve" smooth="yes"/>
      <point x="303" y="-146" type="line" smooth="yes"/>
      <point x="303" y="-162"/>
      <point x="297" y="-169"/>
      <point x="281" y="-169" type="curve" smooth="yes"/>
      <point x="45" y="-169" type="line" smooth="yes"/>
      <point x="38" y="-169"/>
      <point x="31" y="-154"/>
    </contour>
  </outline>
</glyph>
<glyph name="asciicircum" format="2">
  <advance width="640"/>
  <unicode hex="005E"/>
  <outline>
    <contour>
      <point x="70" y="334" type="curve" smooth="yes"/>
      <point x="70" y="338"/>
      <point x="72" y="341"/>
      <point x="74" y="345" type="curve" smooth="yes"/>
      <point x="285" y="678" type="line" smooth="yes"/>
      <point x="294" y="693"/>
      <point x="304" y="707"/>
      <point x="320" y="707" type="curve" smooth="yes"/>
      <point x="336" y="707"/>
      <point x="347" y="693"/>
      <point x="356" y="678" type="curve" smooth="yes"/>
      <point x="566" y="345" type="line" smooth="yes"/>
      <point x="568" y="341"/>
      <point x="570" y="338"/>
      <point x="570" y="334" type="curve" smooth="yes"/>
      <point x="570" y="329"/>
      <point x="565" y="325"/>
      <point x="545" y="313" type="curve" smooth="yes"/>
      <point x="541" y="310"/>
      <point x="532" y="307"/>
      <point x="528" y="307" type="curve" smooth="yes"/>
      <point x="521" y="307"/>
      <point x="517" y="312"/>
      <point x="514" y="317" type="curve" smooth="yes"/>
      <point x="321" y="623" type="line"/>
      <point x="319" y="623" type="line"/>
      <point x="126" y="317" type="line" smooth="yes"/>
      <point x="123" y="312"/>
      <point x="119" y="307"/>
      <point x="112" y="307" type="curve" smooth="yes"/>
      <point x="108" y="307"/>
      <point x="99" y="310"/>
      <point x="95" y="313" type="curve" smooth="yes"/>
      <point x="75" y="325"/>
      <point x="70" y="329"/>
    </contour>
  </outline>
</glyph>
<glyph name="underscore" format="2">
  <advance width="500"/>
  <unicode hex="005F"/>
  <outline>
    <contour>
      <point x="-21" y="-173" type="curve" smooth="yes"/>
      <point x="-21" y="-167"/>
      <point x="-19" y="-161"/>
      <point x="-13" y="-148" type="curve" smooth="yes"/>
      <point x="-6" y="-132"/>
      <point x="-2" y="-125"/>
      <point x="5" y="-125" type="curve" smooth="yes"/>
      <point x="504" y="-125" type="line" smooth="yes"/>
      <point x="511" y="-125"/>
      <point x="521" y="-130"/>
      <point x="521" y="-136" type="curve" smooth="yes"/>
      <point x="521" y="-142"/>
      <point x="519" y="-148"/>
      <point x="513" y="-161" type="curve" smooth="yes"/>
      <point x="506" y="-177"/>
      <point x="502" y="-185"/>
      <point x="495" y="-185" type="curve" smooth="yes"/>
      <point x="-4" y="-185" type="line" smooth="yes"/>
      <point x="-11" y="-185"/>
      <point x="-21" y="-179"/>
    </contour>
  </outline>
</glyph>
<glyph name="grave" format="2">
  <advance width="429"/>
  <unicode hex="0060"/>
  <outline>
    <contour>
      <point x="86" y="760" type="curve" smooth="yes"/>
      <point x="86" y="774"/>
      <point x="101" y="793"/>
      <point x="121" y="793" type="curve" smooth="yes"/>
      <point x="142" y="793"/>
      <point x="200" y="769"/>
      <point x="207" y="744" type="curve" smooth="yes"/>
      <point x="257" y="566" type="line" smooth="yes"/>
      <point x="258" y="563"/>
      <point x="259" y="557"/>
      <point x="259" y="555" type="curve" smooth="yes"/>
      <point x="259" y="544"/>
      <point x="251" y="536"/>
      <point x="240" y="536" type="curve" smooth="yes"/>
      <point x="228" y="536"/>
      <point x="222" y="544"/>
      <point x="215" y="554" type="curve" smooth="yes"/>
      <point x="98" y="725" type="line" smooth="yes"/>
      <point x="90" y="737"/>
      <point x="86" y="751"/>
    </contour>
  </outline>
</glyph>
<glyph name="a" format="2">
  <advance width="544"/>
  <unicode hex="0061"/>
  <anchor x="242" y="0" name="Bottom"/>
  <anchor x="260" y="557" name="Acute"/>
  <anchor x="260" y="547" name="Grave"/>
  <anchor x="260" y="537" name="Top"/>
  <outline>
    <contour>
      <point x="43" y="79" type="curve" smooth="yes"/>
      <point x="43" y="143"/>
      <point x="90" y="181"/>
      <point x="127" y="202" type="curve" smooth="yes"/>
      <point x="184" y="234"/>
      <point x="240" y="246"/>
      <point x="310" y="261" type="curve"/>
      <point x="310" y="328" type="line" smooth="yes"/>
      <point x="310" y="385"/>
      <point x="252" y="408"/>
      <point x="213" y="408" type="curve" smooth="yes"/>
      <point x="192" y="408"/>
      <point x="156" y="389"/>
      <point x="126" y="365" type="curve" smooth="yes"/>
      <point x="113" y="355"/>
      <point x="88" y="334"/>
      <point x="74" y="334" type="curve" smooth="yes"/>
      <point x="63" y="334"/>
      <point x="57" y="342"/>
      <point x="57" y="353" type="curve" smooth="yes"/>
      <point x="57" y="386"/>
      <point x="184" y="474"/>
      <point x="250" y="474" type="curve" smooth="yes"/>
      <point x="341" y="474"/>
      <point x="422" y="429"/>
      <point x="422" y="348" type="curve" smooth="yes"/>
      <point x="422" y="107" type="line" smooth="yes"/>
      <point x="422" y="70"/>
      <point x="443" y="44"/>
      <point x="467" y="44" type="curve" smooth="yes"/>
      <point x="479" y="44"/>
      <point x="490" y="52"/>
      <point x="501" y="64" type="curve" smooth="yes"/>
      <point x="509" y="73"/>
      <point x="518" y="81"/>
      <point x="525" y="81" type="curve" smooth="yes"/>
      <point x="531" y="81"/>
      <point x="539" y="74"/>
      <point x="539" y="63" type="curve" smooth="yes"/>
      <point x="539" y="47"/>
      <point x="471" y="-18"/>
      <point x="419" y="-18" type="curve" smooth="yes"/>
      <point x="380" y="-18"/>
      <point x="339" y="13"/>
      <point x="325" y="55" type="curve"/>
      <point x="322" y="55" type="line"/>
      <point x="278" y="19"/>
      <point x="195" y="-20"/>
      <point x="149" y="-20" type="curve" smooth="yes"/>
      <point x="105" y="-20"/>
      <point x="43" y="6"/>
    </contour>
    <contour>
      <point x="152" y="108" type="curve" smooth="yes"/>
      <point x="152" y="64"/>
      <point x="185" y="44"/>
      <point x="218" y="44" type="curve" smooth="yes"/>
      <point x="252" y="44"/>
      <point x="286" y="55"/>
      <point x="317" y="82" type="curve"/>
      <point x="313" y="101"/>
      <point x="310" y="123"/>
      <point x="310" y="155" type="curve" smooth="yes"/>
      <point x="310" y="234" type="line"/>
      <point x="270" y="226"/>
      <point x="231" y="216"/>
      <point x="197" y="195" type="curve" smooth="yes"/>
      <point x="163" y="174"/>
      <point x="152" y="137"/>
    </contour>
  </outline>
</glyph>
<glyph name="b" format="2">
  <advance width="600"/>
  <unicode hex="0062"/>
  <anchor x="296" y="0" name="Bottom"/>
  <outline>
    <contour>
      <point x="9" y="727" type="curve" smooth="yes"/>
      <point x="9" y="739"/>
      <point x="12" y="743"/>
      <point x="25" y="743" type="curve" smooth="yes"/>
      <point x="39" y="743"/>
      <point x="80" y="746"/>
      <point x="105" y="748" type="curve" smooth="yes"/>
      <point x="137" y="751"/>
      <point x="164" y="753"/>
      <point x="180" y="753" type="curve" smooth="yes"/>
      <point x="201" y="753"/>
      <point x="202" y="739"/>
      <point x="202" y="725" type="curve" smooth="yes"/>
      <point x="202" y="407" type="line"/>
      <point x="205" y="405" type="line"/>
      <point x="242" y="431"/>
      <point x="304" y="470"/>
      <point x="375" y="470" type="curve" smooth="yes"/>
      <point x="483" y="470"/>
      <point x="554" y="387"/>
      <point x="554" y="259" type="curve" smooth="yes"/>
      <point x="554" y="94"/>
      <point x="409" y="-12"/>
      <point x="296" y="-12" type="curve" smooth="yes"/>
      <point x="261" y="-12"/>
      <point x="227" y="-1"/>
      <point x="195" y="10" type="curve" smooth="yes"/>
      <point x="174" y="17"/>
      <point x="143" y="23"/>
      <point x="120" y="26" type="curve" smooth="yes"/>
      <point x="95" y="29"/>
      <point x="69" y="34"/>
      <point x="69" y="41" type="curve" smooth="yes"/>
      <point x="69" y="49"/>
      <point x="72" y="58"/>
      <point x="77" y="77" type="curve" smooth="yes"/>
      <point x="83" y="98"/>
      <point x="90" y="140"/>
      <point x="90" y="159" type="curve" smooth="yes"/>
      <point x="90" y="668" type="line" smooth="yes"/>
      <point x="90" y="689"/>
      <point x="85" y="697"/>
      <point x="73" y="703" type="curve" smooth="yes"/>
      <point x="61" y="709"/>
      <point x="39" y="712"/>
      <point x="25" y="713" type="curve" smooth="yes"/>
      <point x="14" y="714"/>
      <point x="9" y="714"/>
    </contour>
    <contour>
      <point x="202" y="112" type="line" smooth="yes"/>
      <point x="202" y="51"/>
      <point x="268" y="31"/>
      <point x="317" y="31" type="curve" smooth="yes"/>
      <point x="393" y="31"/>
      <point x="437" y="110"/>
      <point x="437" y="205" type="curve" smooth="yes"/>
      <point x="437" y="298"/>
      <point x="403" y="412"/>
      <point x="298" y="412" type="curve" smooth="yes"/>
      <point x="269" y="412"/>
      <point x="229" y="392"/>
      <point x="202" y="369" type="curve"/>
    </contour>
  </outline>
</glyph>
<glyph name="c" format="2">
  <advance width="474"/>
  <unicode hex="0063"/>
  <anchor x="248" y="0" name="Bottom"/>
  <anchor x="270" y="557" name="Acute"/>
  <anchor x="270" y="547" name="Grave"/>
  <anchor x="270" y="537" name="Top"/>
  <outline>
    <contour>
      <point x="39" y="228" type="curve" smooth="yes"/>
      <point x="39" y="358"/>
      <point x="135" y="478"/>
      <point x="276" y="478" type="curve" smooth="yes"/>
      <point x="322" y="478"/>
      <point x="357" y="468"/>
      <point x="390" y="451" type="curve" smooth="yes"/>
      <point x="419" y="436"/>
      <point x="443" y="415"/>
      <point x="443" y="399" type="curve" smooth="yes"/>
      <point x="443" y="383"/>
      <point x="395" y="338"/>
      <point x="376" y="338" type="curve" smooth="yes"/>
      <point x="361" y="338"/>
      <point x="351" y="349"/>
      <point x="340" y="374" type="curve" smooth="yes"/>
      <point x="326" y="406"/>
      <point x="304" y="444"/>
      <point x="264" y="444" type="curve" smooth="yes"/>
      <point x="212" y="444"/>
      <point x="157" y="386"/>
      <point x="157" y="274" type="curve" smooth="yes"/>
      <point x="157" y="154"/>
      <point x="217" y="62"/>
      <point x="318" y="62" type="curve" smooth="yes"/>
      <point x="345" y="62"/>
      <point x="377" y="78"/>
      <point x="391" y="88" type="curve" smooth="yes"/>
      <point x="411" y="103"/>
      <point x="420" y="109"/>
      <point x="431" y="109" type="curve" smooth="yes"/>
      <point x="441" y="109"/>
      <point x="447" y="102"/>
      <point x="447" y="94" type="curve" smooth="yes"/>
      <point x="447" y="60"/>
      <point x="332" y="-12"/>
      <point x="247" y="-12" type="curve" smooth="yes"/>
      <point x="132" y="-12"/>
      <point x="39" y="89"/>
    </contour>
  </outline>
</glyph>
<glyph name="e" format="2">
  <advance width="494"/>
  <unicode hex="0065"/>
  <anchor x="264" y="0" name="Bottom"/>
  <anchor x="271" y="557" name="Acute"/>
  <anchor x="271" y="547" name="Grave"/>
  <anchor x="271" y="537" name="Top"/>
  <outline>
    <contour>
      <point x="39" y="232" type="curve" smooth="yes"/>
      <point x="39" y="373"/>
      <point x="143" y="478"/>
      <point x="271" y="478" type="curve" smooth="yes"/>
      <point x="414" y="478"/>
      <point x="465" y="383"/>
      <point x="465" y="328" type="curve" smooth="yes"/>
      <point x="465" y="306"/>
      <point x="453" y="294"/>
      <point x="434" y="289" type="curve" smooth="yes"/>
      <point x="160" y="209" type="line"/>
      <point x="176" y="117"/>
      <point x="240" y="60"/>
      <point x="318" y="60" type="curve" smooth="yes"/>
      <point x="355" y="60"/>
      <point x="382" y="79"/>
      <point x="398" y="91" type="curve" smooth="yes"/>
      <point x="415" y="104"/>
      <point x="423" y="110"/>
      <point x="434" y="110" type="curve" smooth="yes"/>
      <point x="444" y="110"/>
      <point x="449" y="103"/>
      <point x="449" y="95" type="curve" smooth="yes"/>
      <point x="449" y="61"/>
      <point x="337" y="-12"/>
      <point x="252" y="-12" type="curve" smooth="yes"/>
      <point x="113" y="-12"/>
      <point x="39" y="111"/>
    </contour>
    <contour>
      <point x="152" y="277" type="curve" smooth="yes"/>
      <point x="152" y="265"/>
      <point x="153" y="251"/>
      <point x="155" y="238" type="curve"/>
      <point x="313" y="284" type="line" smooth="yes"/>
      <point x="338" y="291"/>
      <point x="351" y="304"/>
      <point x="351" y="336" type="curve" smooth="yes"/>
      <point x="351" y="384"/>
      <point x="329" y="444"/>
      <point x="257" y="444" type="curve" smooth="yes"/>
      <point x="205" y="444"/>
      <point x="152" y="385"/>
    </contour>
  </outline>
</glyph>
<glyph name="g" format="2">
  <advance width="535"/>
  <unicode hex="0067"/>
  <anchor x="277" y="537" name="Top"/>
  <anchor x="277" y="547" name="Grave"/>
  <anchor x="277" y="537" name="Acute"/>
  <anchor x="277" y="605" name="HighMark"/>
  <outline>
    <contour>
      <point x="31" y="-145" type="curve" smooth="yes"/>
      <point x="31" y="-119"/>
      <point x="81" y="-72"/>
      <point x="108" y="-72" type="curve" smooth="yes"/>
      <point x="123" y="-72"/>
      <point x="129" y="-83"/>
      <point x="141" y="-107" type="curve" smooth="yes"/>
      <point x="179" y="-185"/>
      <point x="230" y="-230"/>
      <point x="316" y="-230" type="curve" smooth="yes"/>
      <point x="371" y="-230"/>
      <point x="422" y="-205"/>
      <point x="422" y="-153" type="curve" smooth="yes"/>
      <point x="422" y="-105"/>
      <point x="374" y="-67"/>
      <point x="228" y="-49" type="curve" smooth="yes"/>
      <point x="147" y="-39"/>
      <point x="54" y="-24"/>
      <point x="54" y="3" type="curve" smooth="yes"/>
      <point x="54" y="52"/>
      <point x="97" y="118"/>
      <point x="178" y="149" type="curve"/>
      <point x="178" y="151" type="line"/>
      <point x="115" y="172"/>
      <point x="74" y="224"/>
      <point x="74" y="288" type="curve" smooth="yes"/>
      <point x="74" y="419"/>
      <point x="199" y="475"/>
      <point x="305" y="475" type="curve" smooth="yes"/>
      <point x="314" y="475"/>
      <point x="340" y="473"/>
      <point x="353" y="471" type="curve" smooth="yes"/>
      <point x="366" y="469"/>
      <point x="385" y="468"/>
      <point x="392" y="468" type="curve" smooth="yes"/>
      <point x="428" y="468"/>
      <point x="436" y="488"/>
      <point x="436" y="520" type="curve" smooth="yes"/>
      <point x="436" y="537"/>
      <point x="429" y="557"/>
      <point x="420" y="575" type="curve"/>
      <point x="441" y="585"/>
      <point x="478" y="586"/>
      <point x="496" y="586" type="curve" smooth="yes"/>
      <point x="526" y="586"/>
      <point x="535" y="573"/>
      <point x="535" y="562" type="curve" smooth="yes"/>
      <point x="535" y="507"/>
      <point x="484" y="458"/>
      <point x="415" y="448" type="curve"/>
      <point x="415" y="445" type="line"/>
      <point x="450" y="423"/>
      <point x="480" y="382"/>
      <point x="480" y="327" type="curve" smooth="yes"/>
      <point x="480" y="196"/>
      <point x="356" y="141"/>
      <point x="250" y="141" type="curve" smooth="yes"/>
      <point x="220" y="141"/>
      <point x="200" y="136"/>
      <point x="185" y="128" type="curve" smooth="yes"/>
      <point x="167" y="118"/>
      <point x="159" y="106"/>
      <point x="159" y="96" type="curve" smooth="yes"/>
      <point x="159" y="81"/>
      <point x="181" y="72"/>
      <point x="248" y="63" type="curve" smooth="yes"/>
      <point x="430" y="39"/>
      <point x="498" y="-32"/>
      <point x="498" y="-116" type="curve" smooth="yes"/>
      <point x="498" y="-194"/>
      <point x="415" y="-268"/>
      <point x="280" y="-268" type="curve" smooth="yes"/>
      <point x="138" y="-268"/>
      <point x="31" y="-199"/>
    </contour>
    <contour>
      <point x="173" y="331" type="curve" smooth="yes"/>
      <point x="173" y="247"/>
      <point x="235" y="176"/>
      <point x="295" y="176" type="curve" smooth="yes"/>
      <point x="352" y="176"/>
      <point x="382" y="227"/>
      <point x="382" y="284" type="curve" smooth="yes"/>
      <point x="382" y="368"/>
      <point x="320" y="439"/>
      <point x="260" y="439" type="curve" smooth="yes"/>
      <point x="203" y="439"/>
      <point x="173" y="388"/>
    </contour>
  </outline>
</glyph>
<glyph name="l" format="2">
  <advance width="317"/>
  <unicode hex="006C"/>
  <anchor x="153" y="791" name="HighMark"/>
  <anchor x="159" y="0" name="Bottom"/>
  <outline>
    <contour>
      <point x="21" y="8" type="curve" smooth="yes"/>
      <point x="21" y="17"/>
      <point x="25" y="23"/>
      <point x="35" y="23" type="curve" smooth="yes"/>
      <point x="77" y="26" type="line" smooth="yes"/>
      <point x="90" y="27"/>
      <point x="103" y="31"/>
      <point x="103" y="50" type="curve" smooth="yes"/>
      <point x="103" y="668" type="line" smooth="yes"/>
      <point x="103" y="689"/>
      <point x="97" y="697"/>
      <point x="85" y="703" type="curve" smooth="yes"/>
      <point x="73" y="709"/>
      <point x="52" y="712"/>
      <point x="38" y="713" type="curve" smooth="yes"/>
      <point x="27" y="714"/>
      <point x="21" y="714"/>
      <point x="21" y="727" type="curve" smooth="yes"/>
      <point x="21" y="739"/>
      <point x="25" y="743"/>
      <point x="38" y="743" type="curve" smooth="yes"/>
      <point x="52" y="743"/>
      <point x="93" y="746"/>
      <point x="118" y="748" type="curve" smooth="yes"/>
      <point x="150" y="751"/>
      <point x="177" y="753"/>
      <point x="193" y="753" type="curve" smooth="yes"/>
      <point x="214" y="753"/>
      <point x="215" y="739"/>
      <point x="215" y="725" type="curve" smooth="yes"/>
      <point x="215" y="50" type="line" smooth="yes"/>
      <point x="215" y="31"/>
      <point x="227" y="27"/>
      <point x="240" y="26" type="curve" smooth="yes"/>
      <point x="282" y="23" type="line" smooth="yes"/>
      <point x="292" y="23"/>
      <point x="296" y="17"/>
      <point x="296" y="8" type="curve" smooth="yes"/>
      <point x="296" y="-2"/>
      <point x="292" y="-6"/>
      <point x="286" y="-6" type="curve" smooth="yes"/>
      <point x="273" y="-6"/>
      <point x="246" y="-4"/>
      <point x="226" y="-2" type="curve" smooth="yes"/>
      <point x="203" y="0"/>
      <point x="178" y="2"/>
      <point x="159" y="2" type="curve" smooth="yes"/>
      <point x="140" y="2"/>
      <point x="115" y="0"/>
      <point x="92" y="-2" type="curve" smooth="yes"/>
      <point x="72" y="-4"/>
      <point x="45" y="-6"/>
      <point x="32" y="-6" type="curve" smooth="yes"/>
      <point x="26" y="-6"/>
      <point x="21" y="-2"/>
    </contour>
  </outline>
</glyph>
<glyph name="m" format="2">
  <advance width="924"/>
  <unicode hex="006D"/>
  <anchor x="467" y="0" name="Bottom"/>
  <outline>
    <contour>
      <point x="31" y="8" type="curve" smooth="yes"/>
      <point x="31" y="17"/>
      <point x="35" y="23"/>
      <point x="45" y="23" type="curve" smooth="yes"/>
      <point x="87" y="26" type="line" smooth="yes"/>
      <point x="100" y="27"/>
      <point x="112" y="31"/>
      <point x="112" y="50" type="curve" smooth="yes"/>
      <point x="112" y="383" type="line" smooth="yes"/>
      <point x="112" y="404"/>
      <point x="107" y="412"/>
      <point x="95" y="418" type="curve" smooth="yes"/>
      <point x="83" y="424"/>
      <point x="62" y="427"/>
      <point x="48" y="428" type="curve" smooth="yes"/>
      <point x="37" y="429"/>
      <point x="31" y="429"/>
      <point x="31" y="442" type="curve" smooth="yes"/>
      <point x="31" y="454"/>
      <point x="34" y="458"/>
      <point x="47" y="458" type="curve" smooth="yes"/>
      <point x="61" y="458"/>
      <point x="102" y="460"/>
      <point x="127" y="462" type="curve" smooth="yes"/>
      <point x="159" y="465"/>
      <point x="187" y="468"/>
      <point x="203" y="468" type="curve" smooth="yes"/>
      <point x="224" y="468"/>
      <point x="225" y="454"/>
      <point x="225" y="440" type="curve" smooth="yes"/>
      <point x="225" y="397" type="line"/>
      <point x="228" y="394" type="line"/>
      <point x="285" y="430"/>
      <point x="352" y="473"/>
      <point x="409" y="473" type="curve" smooth="yes"/>
      <point x="481" y="473"/>
      <point x="510" y="442"/>
      <point x="519" y="392" type="curve"/>
      <point x="522" y="391" type="line"/>
      <point x="580" y="431"/>
      <point x="655" y="473"/>
      <point x="707" y="473" type="curve" smooth="yes"/>
      <point x="802" y="473"/>
      <point x="822" y="422"/>
      <point x="822" y="340" type="curve" smooth="yes"/>
      <point x="822" y="50" type="line" smooth="yes"/>
      <point x="822" y="31"/>
      <point x="835" y="27"/>
      <point x="848" y="26" type="curve" smooth="yes"/>
      <point x="890" y="23" type="line" smooth="yes"/>
      <point x="900" y="23"/>
      <point x="903" y="17"/>
      <point x="903" y="8" type="curve" smooth="yes"/>
      <point x="903" y="-2"/>
      <point x="899" y="-6"/>
      <point x="893" y="-6" type="curve" smooth="yes"/>
      <point x="880" y="-6"/>
      <point x="853" y="-4"/>
      <point x="833" y="-2" type="curve" smooth="yes"/>
      <point x="810" y="0"/>
      <point x="785" y="2"/>
      <point x="766" y="2" type="curve" smooth="yes"/>
      <point x="747" y="2"/>
      <point x="722" y="0"/>
      <point x="699" y="-2" type="curve" smooth="yes"/>
      <point x="679" y="-4"/>
      <point x="657" y="-6"/>
      <point x="647" y="-6" type="curve" smooth="yes"/>
      <point x="641" y="-6"/>
      <point x="637" y="-2"/>
      <point x="637" y="8" type="curve" smooth="yes"/>
      <point x="637" y="17"/>
      <point x="641" y="23"/>
      <point x="651" y="23" type="curve" smooth="yes"/>
      <point x="685" y="26" type="line" smooth="yes"/>
      <point x="698" y="27"/>
      <point x="710" y="31"/>
      <point x="710" y="50" type="curve" smooth="yes"/>
      <point x="710" y="353" type="line" smooth="yes"/>
      <point x="710" y="380"/>
      <point x="706" y="418"/>
      <point x="654" y="418" type="curve" smooth="yes"/>
      <point x="612" y="418"/>
      <point x="563" y="385"/>
      <point x="523" y="357" type="curve"/>
      <point x="523" y="50" type="line" smooth="yes"/>
      <point x="523" y="31"/>
      <point x="536" y="27"/>
      <point x="549" y="26" type="curve" smooth="yes"/>
      <point x="583" y="23" type="line" smooth="yes"/>
      <point x="593" y="23"/>
      <point x="596" y="17"/>
      <point x="596" y="8" type="curve" smooth="yes"/>
      <point x="596" y="-2"/>
      <point x="592" y="-6"/>
      <point x="586" y="-6" type="curve" smooth="yes"/>
      <point x="576" y="-6"/>
      <point x="554" y="-4"/>
      <point x="534" y="-2" type="curve" smooth="yes"/>
      <point x="511" y="0"/>
      <point x="486" y="2"/>
      <point x="467" y="2" type="curve" smooth="yes"/>
      <point x="448" y="2"/>
      <point x="423" y="0"/>
      <point x="400" y="-2" type="curve" smooth="yes"/>
      <point x="380" y="-4"/>
      <point x="359" y="-6"/>
      <point x="349" y="-6" type="curve" smooth="yes"/>
      <point x="343" y="-6"/>
      <point x="338" y="-2"/>
      <point x="338" y="8" type="curve" smooth="yes"/>
      <point x="338" y="17"/>
      <point x="342" y="23"/>
      <point x="352" y="23" type="curve" smooth="yes"/>
      <point x="386" y="26" type="line" smooth="yes"/>
      <point x="399" y="27"/>
      <point x="411" y="31"/>
      <point x="411" y="50" type="curve" smooth="yes"/>
      <point x="411" y="353" type="line" smooth="yes"/>
      <point x="411" y="380"/>
      <point x="407" y="418"/>
      <point x="355" y="418" type="curve" smooth="yes"/>
      <point x="309" y="418"/>
      <point x="261" y="384"/>
      <point x="225" y="358" type="curve"/>
      <point x="225" y="50" type="line" smooth="yes"/>
      <point x="225" y="31"/>
      <point x="237" y="27"/>
      <point x="250" y="26" type="curve" smooth="yes"/>
      <point x="284" y="23" type="line" smooth="yes"/>
      <point x="294" y="23"/>
      <point x="297" y="17"/>
      <point x="297" y="8" type="curve" smooth="yes"/>
      <point x="297" y="-2"/>
      <point x="293" y="-6"/>
      <point x="287" y="-6" type="curve" smooth="yes"/>
      <point x="277" y="-6"/>
      <point x="255" y="-4"/>
      <point x="235" y="-2" type="curve" smooth="yes"/>
      <point x="212" y="0"/>
      <point x="187" y="2"/>
      <point x="168" y="2" type="curve" smooth="yes"/>
      <point x="149" y="2"/>
      <point x="125" y="0"/>
      <point x="102" y="-2" type="curve" smooth="yes"/>
      <point x="82" y="-4"/>
      <point x="55" y="-6"/>
      <point x="42" y="-6" type="curve" smooth="yes"/>
      <point x="36" y="-6"/>
      <point x="31" y="-2"/>
    </contour>
  </outline>
</glyph>
<glyph name="o" format="2">
  <advance width="572"/>
  <unicode hex="006F"/>
  <anchor x="286" y="547" name="Grave"/>
  <anchor x="286" y="557" name="Acute"/>
  <anchor x="286" y="0" name="Bottom"/>
  <anchor x="286" y="537" name="Top"/>
  <outline>
    <contour>
      <point x="35" y="231" type="curve" smooth="yes"/>
      <point x="35" y="376"/>
      <point x="140" y="476"/>
      <point x="286" y="476" type="curve" smooth="yes"/>
      <point x="432" y="476"/>
      <point x="537" y="376"/>
      <point x="537" y="231" type="curve" smooth="yes"/>
      <point x="537" y="86"/>
      <point x="432" y="-14"/>
      <point x="286" y="-14" type="curve" smooth="yes"/>
      <point x="140" y="-14"/>
      <point x="35" y="86"/>
    </contour>
    <contour>
      <point x="160" y="268" type="curve" smooth="yes"/>
      <point x="160" y="121"/>
      <point x="209" y="17"/>
      <point x="295" y="17" type="curve" smooth="yes"/>
      <point x="371" y="17"/>
      <point x="412" y="91"/>
      <point x="412" y="194" type="curve" smooth="yes"/>
      <point x="412" y="341"/>
      <point x="363" y="445"/>
      <point x="277" y="445" type="curve" smooth="yes"/>
      <point x="201" y="445"/>
      <point x="160" y="371"/>
    </contour>
  </outline>
</glyph>
<glyph name="q" format="2">
  <advance width="591"/>
  <unicode hex="0071"/>
  <anchor x="208" y="0" name="Bottom"/>
  <outline>
    <contour>
      <point x="47" y="199" type="curve" smooth="yes"/>
      <point x="47" y="364"/>
      <point x="191" y="470"/>
      <point x="304" y="470" type="curve" smooth="yes"/>
      <point x="327" y="470"/>
      <point x="356" y="462"/>
      <point x="372" y="455" type="curve" smooth="yes"/>
      <point x="383" y="450"/>
      <point x="397" y="443"/>
      <point x="407" y="443" type="curve" smooth="yes"/>
      <point x="423" y="443"/>
      <point x="440" y="451"/>
      <point x="457" y="461" type="curve" smooth="yes"/>
      <point x="472" y="470"/>
      <point x="484" y="475"/>
      <point x="493" y="475" type="curve" smooth="yes"/>
      <point x="507" y="475"/>
      <point x="511" y="463"/>
      <point x="511" y="442" type="curve" smooth="yes"/>
      <point x="511" y="-236" type="line" smooth="yes"/>
      <point x="511" y="-255"/>
      <point x="523" y="-259"/>
      <point x="536" y="-260" type="curve" smooth="yes"/>
      <point x="578" y="-263" type="line" smooth="yes"/>
      <point x="588" y="-263"/>
      <point x="592" y="-269"/>
      <point x="592" y="-278" type="curve" smooth="yes"/>
      <point x="592" y="-288"/>
      <point x="588" y="-292"/>
      <point x="582" y="-292" type="curve" smooth="yes"/>
      <point x="569" y="-292"/>
      <point x="541" y="-290"/>
      <point x="521" y="-288" type="curve" smooth="yes"/>
      <point x="498" y="-286"/>
      <point x="474" y="-284"/>
      <point x="455" y="-284" type="curve" smooth="yes"/>
      <point x="436" y="-284"/>
      <point x="411" y="-286"/>
      <point x="388" y="-288" type="curve" smooth="yes"/>
      <point x="368" y="-290"/>
      <point x="341" y="-292"/>
      <point x="328" y="-292" type="curve" smooth="yes"/>
      <point x="322" y="-292"/>
      <point x="317" y="-288"/>
      <point x="317" y="-278" type="curve" smooth="yes"/>
      <point x="317" y="-269"/>
      <point x="321" y="-263"/>
      <point x="331" y="-263" type="curve" smooth="yes"/>
      <point x="373" y="-260" type="line" smooth="yes"/>
      <point x="386" y="-259"/>
      <point x="398" y="-255"/>
      <point x="398" y="-236" type="curve" smooth="yes"/>
      <point x="398" y="53" type="line"/>
      <point x="397" y="54" type="line"/>
      <point x="362" y="29"/>
      <point x="298" y="-12"/>
      <point x="225" y="-12" type="curve" smooth="yes"/>
      <point x="117" y="-12"/>
      <point x="47" y="71"/>
    </contour>
    <contour>
      <point x="164" y="253" type="curve" smooth="yes"/>
      <point x="164" y="160"/>
      <point x="197" y="46"/>
      <point x="302" y="46" type="curve" smooth="yes"/>
      <point x="331" y="46"/>
      <point x="371" y="66"/>
      <point x="398" y="89" type="curve"/>
      <point x="398" y="343" type="line" smooth="yes"/>
      <point x="398" y="404"/>
      <point x="333" y="427"/>
      <point x="284" y="427" type="curve" smooth="yes"/>
      <point x="208" y="427"/>
      <point x="164" y="348"/>
    </contour>
  </outline>
</glyph>
<glyph name="r" format="2">
  <advance width="524"/>
  <unicode hex="0072"/>
  <anchor x="289" y="557" name="Acute"/>
  <anchor x="289" y="547" name="Grave"/>
  <anchor x="289" y="537" name="Top"/>
  <anchor x="188" y="0" name="Bottom"/>
  <outline>
    <contour>
      <point x="40" y="8" type="curve" smooth="yes"/>
      <point x="40" y="17"/>
      <point x="44" y="23"/>
      <point x="54" y="23" type="curve" smooth="yes"/>
      <point x="96" y="26" type="line" smooth="yes"/>
      <point x="109" y="27"/>
      <point x="121" y="31"/>
      <point x="121" y="50" type="curve" smooth="yes"/>
      <point x="121" y="383" type="line" smooth="yes"/>
      <point x="121" y="404"/>
      <point x="116" y="412"/>
      <point x="104" y="418" type="curve" smooth="yes"/>
      <point x="92" y="424"/>
      <point x="71" y="427"/>
      <point x="57" y="428" type="curve" smooth="yes"/>
      <point x="46" y="429"/>
      <point x="40" y="429"/>
      <point x="40" y="442" type="curve" smooth="yes"/>
      <point x="40" y="454"/>
      <point x="43" y="458"/>
      <point x="56" y="458" type="curve" smooth="yes"/>
      <point x="70" y="458"/>
      <point x="111" y="460"/>
      <point x="136" y="462" type="curve" smooth="yes"/>
      <point x="168" y="465"/>
      <point x="195" y="468"/>
      <point x="211" y="468" type="curve" smooth="yes"/>
      <point x="232" y="468"/>
      <point x="233" y="454"/>
      <point x="233" y="440" type="curve" smooth="yes"/>
      <point x="233" y="377" type="line"/>
      <point x="237" y="374" type="line"/>
      <point x="288" y="424"/>
      <point x="351" y="473"/>
      <point x="408" y="473" type="curve" smooth="yes"/>
      <point x="471" y="473"/>
      <point x="501" y="427"/>
      <point x="501" y="409" type="curve" smooth="yes"/>
      <point x="501" y="401"/>
      <point x="485" y="385"/>
      <point x="466" y="368" type="curve" smooth="yes"/>
      <point x="445" y="349"/>
      <point x="422" y="332"/>
      <point x="413" y="332" type="curve" smooth="yes"/>
      <point x="402" y="332"/>
      <point x="397" y="340"/>
      <point x="388" y="355" type="curve" smooth="yes"/>
      <point x="374" y="378"/>
      <point x="358" y="399"/>
      <point x="333" y="399" type="curve" smooth="yes"/>
      <point x="305" y="399"/>
      <point x="267" y="366"/>
      <point x="233" y="325" type="curve"/>
      <point x="233" y="50" type="line" smooth="yes"/>
      <point x="233" y="31"/>
      <point x="246" y="27"/>
      <point x="259" y="26" type="curve" smooth="yes"/>
      <point x="301" y="23" type="line" smooth="yes"/>
      <point x="311" y="23"/>
      <point x="314" y="17"/>
      <point x="314" y="8" type="curve" smooth="yes"/>
      <point x="314" y="-2"/>
      <point x="310" y="-6"/>
      <point x="304" y="-6" type="curve" smooth="yes"/>
      <point x="291" y="-6"/>
      <point x="264" y="-4"/>
      <point x="244" y="-2" type="curve" smooth="yes"/>
      <point x="221" y="0"/>
      <point x="196" y="2"/>
      <point x="177" y="2" type="curve" smooth="yes"/>
      <point x="158" y="2"/>
      <point x="133" y="0"/>
      <point x="110" y="-2" type="curve" smooth="yes"/>
      <point x="90" y="-4"/>
      <point x="63" y="-6"/>
      <point x="50" y="-6" type="curve" smooth="yes"/>
      <point x="44" y="-6"/>
      <point x="40" y="-2"/>
    </contour>
  </outline>
</glyph>
<glyph name="s" format="2">
  <advance width="440"/>
  <unicode hex="0073"/>
  <anchor x="230" y="557" name="Acute"/>
  <anchor x="230" y="547" name="Grave"/>
  <anchor x="230" y="537" name="Top"/>
  <anchor x="231" y="0" name="Bottom"/>
  <outline>
    <contour>
      <point x="47" y="156" type="curve" smooth="yes"/>
      <point x="47" y="163"/>
      <point x="53" y="167"/>
      <point x="58" y="167" type="curve" smooth="yes"/>
      <point x="72" y="167"/>
      <point x="78" y="155"/>
      <point x="83" y="144" type="curve" smooth="yes"/>
      <point x="110" y="80"/>
      <point x="157" y="18"/>
      <point x="228" y="18" type="curve" smooth="yes"/>
      <point x="295" y="18"/>
      <point x="319" y="53"/>
      <point x="319" y="89" type="curve" smooth="yes"/>
      <point x="319" y="137"/>
      <point x="280" y="156"/>
      <point x="205" y="189" type="curve" smooth="yes"/>
      <point x="129" y="223"/>
      <point x="62" y="256"/>
      <point x="62" y="349" type="curve" smooth="yes"/>
      <point x="62" y="417"/>
      <point x="115" y="475"/>
      <point x="230" y="475" type="curve" smooth="yes"/>
      <point x="268" y="475"/>
      <point x="309" y="466"/>
      <point x="340" y="454" type="curve" smooth="yes"/>
      <point x="375" y="440"/>
      <point x="381" y="434"/>
      <point x="381" y="418" type="curve" smooth="yes"/>
      <point x="381" y="414"/>
      <point x="380" y="402"/>
      <point x="376" y="380" type="curve" smooth="yes"/>
      <point x="372" y="358"/>
      <point x="366" y="328"/>
      <point x="361" y="328" type="curve" smooth="yes"/>
      <point x="352" y="328"/>
      <point x="347" y="334"/>
      <point x="340" y="348" type="curve" smooth="yes"/>
      <point x="319" y="389"/>
      <point x="283" y="445"/>
      <point x="229" y="445" type="curve" smooth="yes"/>
      <point x="172" y="445"/>
      <point x="148" y="422"/>
      <point x="148" y="382" type="curve" smooth="yes"/>
      <point x="148" y="336"/>
      <point x="191" y="311"/>
      <point x="248" y="285" type="curve" smooth="yes"/>
      <point x="344" y="241"/>
      <point x="409" y="204"/>
      <point x="409" y="128" type="curve" smooth="yes"/>
      <point x="409" y="39"/>
      <point x="343" y="-12"/>
      <point x="226" y="-12" type="curve" smooth="yes"/>
      <point x="194" y="-12"/>
      <point x="124" y="0"/>
      <point x="89" y="11" type="curve" smooth="yes"/>
      <point x="54" y="22"/>
      <point x="51" y="23"/>
      <point x="50" y="39" type="curve" smooth="yes"/>
      <point x="48" y="77"/>
      <point x="47" y="135"/>
    </contour>
  </outline>
</glyph>
<glyph name="t" format="2">
  <advance width="419"/>
  <unicode hex="0074"/>
  <anchor x="234" y="0" name="Bottom"/>
  <outline>
    <contour>
      <point x="14" y="439" type="curve" smooth="yes"/>
      <point x="14" y="452"/>
      <point x="19" y="455"/>
      <point x="30" y="459" type="curve" smooth="yes"/>
      <point x="63" y="472"/>
      <point x="93" y="495"/>
      <point x="120" y="526" type="curve" smooth="yes"/>
      <point x="139" y="548"/>
      <point x="159" y="584"/>
      <point x="168" y="620" type="curve" smooth="yes"/>
      <point x="171" y="631"/>
      <point x="181" y="632"/>
      <point x="194" y="632" type="curve" smooth="yes"/>
      <point x="205" y="632"/>
      <point x="215" y="629"/>
      <point x="215" y="614" type="curve" smooth="yes"/>
      <point x="215" y="606"/>
      <point x="214" y="600"/>
      <point x="213" y="581" type="curve" smooth="yes"/>
      <point x="211" y="554"/>
      <point x="207" y="489"/>
      <point x="207" y="462" type="curve"/>
      <point x="381" y="462" type="line" smooth="yes"/>
      <point x="385" y="462"/>
      <point x="389" y="459"/>
      <point x="389" y="455" type="curve" smooth="yes"/>
      <point x="389" y="448"/>
      <point x="381" y="433"/>
      <point x="370" y="433" type="curve" smooth="yes"/>
      <point x="207" y="433" type="line"/>
      <point x="207" y="116" type="line" smooth="yes"/>
      <point x="207" y="85"/>
      <point x="218" y="51"/>
      <point x="273" y="51" type="curve" smooth="yes"/>
      <point x="303" y="51"/>
      <point x="333" y="71"/>
      <point x="349" y="84" type="curve" smooth="yes"/>
      <point x="357" y="90"/>
      <point x="363" y="96"/>
      <point x="369" y="96" type="curve" smooth="yes"/>
      <point x="377" y="96"/>
      <point x="392" y="80"/>
      <point x="392" y="75" type="curve" smooth="yes"/>
      <point x="392" y="56"/>
      <point x="310" y="-12"/>
      <point x="231" y="-12" type="curve" smooth="yes"/>
      <point x="140" y="-12"/>
      <point x="95" y="29"/>
      <point x="95" y="104" type="curve" smooth="yes"/>
      <point x="95" y="433" type="line"/>
      <point x="21" y="433" type="line" smooth="yes"/>
      <point x="17" y="433"/>
      <point x="14" y="435"/>
    </contour>
  </outline>
</glyph>
<glyph name="u" format="2">
  <advance width="625"/>
  <unicode hex="0075"/>
  <anchor x="311" y="0" name="Bottom"/>
  <anchor x="301" y="557" name="Acute"/>
  <anchor x="301" y="547" name="Grave"/>
  <anchor x="301" y="537" name="Top"/>
  <outline>
    <contour>
      <point x="21" y="442" type="curve" smooth="yes"/>
      <point x="21" y="454"/>
      <point x="25" y="458"/>
      <point x="38" y="458" type="curve" smooth="yes"/>
      <point x="52" y="458"/>
      <point x="93" y="460"/>
      <point x="118" y="462" type="curve" smooth="yes"/>
      <point x="150" y="465"/>
      <point x="177" y="468"/>
      <point x="193" y="468" type="curve" smooth="yes"/>
      <point x="214" y="468"/>
      <point x="215" y="454"/>
      <point x="215" y="440" type="curve" smooth="yes"/>
      <point x="215" y="109" type="line" smooth="yes"/>
      <point x="215" y="82"/>
      <point x="226" y="44"/>
      <point x="278" y="44" type="curve" smooth="yes"/>
      <point x="324" y="44"/>
      <point x="372" y="75"/>
      <point x="409" y="100" type="curve"/>
      <point x="409" y="383" type="line" smooth="yes"/>
      <point x="409" y="404"/>
      <point x="404" y="412"/>
      <point x="392" y="418" type="curve" smooth="yes"/>
      <point x="380" y="424"/>
      <point x="359" y="427"/>
      <point x="345" y="428" type="curve" smooth="yes"/>
      <point x="334" y="429"/>
      <point x="328" y="429"/>
      <point x="328" y="442" type="curve" smooth="yes"/>
      <point x="328" y="454"/>
      <point x="331" y="458"/>
      <point x="344" y="458" type="curve" smooth="yes"/>
      <point x="358" y="458"/>
      <point x="399" y="460"/>
      <point x="424" y="462" type="curve" smooth="yes"/>
      <point x="456" y="465"/>
      <point x="484" y="468"/>
      <point x="500" y="468" type="curve" smooth="yes"/>
      <point x="521" y="468"/>
      <point x="521" y="454"/>
      <point x="521" y="440" type="curve" smooth="yes"/>
      <point x="521" y="76" type="line" smooth="yes"/>
      <point x="521" y="59"/>
      <point x="529" y="51"/>
      <point x="544" y="51" type="curve" smooth="yes"/>
      <point x="550" y="51"/>
      <point x="564" y="52"/>
      <point x="574" y="54" type="curve" smooth="yes"/>
      <point x="587" y="56"/>
      <point x="597" y="58"/>
      <point x="604" y="58" type="curve" smooth="yes"/>
      <point x="610" y="58"/>
      <point x="613" y="52"/>
      <point x="613" y="46" type="curve" smooth="yes"/>
      <point x="613" y="38"/>
      <point x="604" y="29"/>
      <point x="582" y="23" type="curve" smooth="yes"/>
      <point x="554" y="15"/>
      <point x="529" y="6"/>
      <point x="508" y="-2" type="curve" smooth="yes"/>
      <point x="496" y="-7"/>
      <point x="478" y="-10"/>
      <point x="463" y="-10" type="curve" smooth="yes"/>
      <point x="438" y="-10"/>
      <point x="418" y="31"/>
      <point x="410" y="62" type="curve"/>
      <point x="406" y="64" type="line"/>
      <point x="349" y="29"/>
      <point x="282" y="-11"/>
      <point x="225" y="-11" type="curve" smooth="yes"/>
      <point x="130" y="-11"/>
      <point x="103" y="40"/>
      <point x="103" y="122" type="curve" smooth="yes"/>
      <point x="103" y="383" type="line" smooth="yes"/>
      <point x="103" y="404"/>
      <point x="97" y="412"/>
      <point x="85" y="418" type="curve" smooth="yes"/>
      <point x="73" y="424"/>
      <point x="52" y="427"/>
      <point x="38" y="428" type="curve" smooth="yes"/>
      <point x="27" y="429"/>
      <point x="21" y="429"/>
    </contour>
  </outline>
</glyph>
<glyph name="v" format="2">
  <advance width="576"/>
  <unicode hex="0076"/>
  <anchor x="276" y="0" name="Bottom"/>
  <outline>
    <contour>
      <point x="8" y="455" type="curve" smooth="yes"/>
      <point x="8" y="465"/>
      <point x="12" y="469"/>
      <point x="18" y="469" type="curve" smooth="yes"/>
      <point x="28" y="469"/>
      <point x="50" y="467"/>
      <point x="70" y="465" type="curve" smooth="yes"/>
      <point x="93" y="463"/>
      <point x="118" y="461"/>
      <point x="137" y="461" type="curve" smooth="yes"/>
      <point x="156" y="461"/>
      <point x="181" y="463"/>
      <point x="204" y="465" type="curve" smooth="yes"/>
      <point x="224" y="467"/>
      <point x="251" y="469"/>
      <point x="264" y="469" type="curve" smooth="yes"/>
      <point x="270" y="469"/>
      <point x="274" y="465"/>
      <point x="274" y="455" type="curve" smooth="yes"/>
      <point x="274" y="446"/>
      <point x="270" y="440"/>
      <point x="260" y="439" type="curve" smooth="yes"/>
      <point x="236" y="437"/>
      <point x="212" y="436"/>
      <point x="212" y="410" type="curve" smooth="yes"/>
      <point x="212" y="405"/>
      <point x="215" y="395"/>
      <point x="217" y="390" type="curve" smooth="yes"/>
      <point x="319" y="132" type="line" smooth="yes"/>
      <point x="321" y="127"/>
      <point x="323" y="126"/>
      <point x="325" y="126" type="curve" smooth="yes"/>
      <point x="327" y="126"/>
      <point x="331" y="128"/>
      <point x="333" y="132" type="curve" smooth="yes"/>
      <point x="368" y="204"/>
      <point x="400" y="277"/>
      <point x="424" y="350" type="curve" smooth="yes"/>
      <point x="429" y="367"/>
      <point x="434" y="392"/>
      <point x="434" y="402" type="curve" smooth="yes"/>
      <point x="434" y="427"/>
      <point x="407" y="437"/>
      <point x="381" y="439" type="curve" smooth="yes"/>
      <point x="371" y="439"/>
      <point x="367" y="446"/>
      <point x="367" y="455" type="curve" smooth="yes"/>
      <point x="367" y="465"/>
      <point x="372" y="469"/>
      <point x="378" y="469" type="curve" smooth="yes"/>
      <point x="385" y="469"/>
      <point x="397" y="467"/>
      <point x="417" y="465" type="curve" smooth="yes"/>
      <point x="440" y="462"/>
      <point x="454" y="461"/>
      <point x="467" y="461" type="curve" smooth="yes"/>
      <point x="480" y="461"/>
      <point x="494" y="462"/>
      <point x="517" y="465" type="curve" smooth="yes"/>
      <point x="537" y="467"/>
      <point x="549" y="469"/>
      <point x="556" y="469" type="curve" smooth="yes"/>
      <point x="562" y="469"/>
      <point x="572" y="467"/>
      <point x="572" y="455" type="curve" smooth="yes"/>
      <point x="572" y="446"/>
      <point x="562" y="441"/>
      <point x="552" y="439" type="curve" smooth="yes"/>
      <point x="507" y="431"/>
      <point x="481" y="406"/>
      <point x="458" y="344" type="curve" smooth="yes"/>
      <point x="415" y="227"/>
      <point x="354" y="107"/>
      <point x="306" y="14" type="curve" smooth="yes"/>
      <point x="300" y="3"/>
      <point x="290" y="-10"/>
      <point x="276" y="-10" type="curve" smooth="yes"/>
      <point x="261" y="-10"/>
      <point x="249" y="0"/>
      <point x="244" y="14" type="curve" smooth="yes"/>
      <point x="92" y="397" type="line" smooth="yes"/>
      <point x="80" y="428"/>
      <point x="55" y="437"/>
      <point x="21" y="439" type="curve" smooth="yes"/>
      <point x="11" y="439"/>
      <point x="8" y="446"/>
    </contour>
  </outline>
</glyph>
<glyph name="w" format="2">
  <advance width="819"/>
  <unicode hex="0077"/>
  <anchor x="405" y="0" name="Bottom"/>
  <anchor x="440" y="557" name="HighMark"/>
  <anchor x="440" y="547" name="Grave"/>
  <anchor x="440" y="537" name="Top"/>
  <outline>
    <contour>
      <point x="8" y="455" type="curve" smooth="yes"/>
      <point x="8" y="465"/>
      <point x="13" y="469"/>
      <point x="18" y="469" type="curve" smooth="yes"/>
      <point x="28" y="469"/>
      <point x="46" y="467"/>
      <point x="65" y="465" type="curve" smooth="yes"/>
      <point x="86" y="463"/>
      <point x="110" y="461"/>
      <point x="128" y="461" type="curve" smooth="yes"/>
      <point x="146" y="461"/>
      <point x="169" y="463"/>
      <point x="190" y="465" type="curve" smooth="yes"/>
      <point x="209" y="467"/>
      <point x="234" y="469"/>
      <point x="246" y="469" type="curve" smooth="yes"/>
      <point x="251" y="469"/>
      <point x="256" y="465"/>
      <point x="256" y="455" type="curve" smooth="yes"/>
      <point x="256" y="446"/>
      <point x="252" y="440"/>
      <point x="243" y="439" type="curve" smooth="yes"/>
      <point x="222" y="437"/>
      <point x="201" y="436"/>
      <point x="201" y="410" type="curve" smooth="yes"/>
      <point x="201" y="405"/>
      <point x="204" y="395"/>
      <point x="206" y="390" type="curve" smooth="yes"/>
      <point x="295" y="145" type="line" smooth="yes"/>
      <point x="297" y="140"/>
      <point x="299" y="138"/>
      <point x="300" y="138" type="curve" smooth="yes"/>
      <point x="303" y="138"/>
      <point x="305" y="141"/>
      <point x="307" y="145" type="curve" smooth="yes"/>
      <point x="337" y="223"/>
      <point x="381" y="348"/>
      <point x="402" y="417" type="curve" smooth="yes"/>
      <point x="407" y="434"/>
      <point x="420" y="467"/>
      <point x="444" y="467" type="curve" smooth="yes"/>
      <point x="469" y="467"/>
      <point x="484" y="434"/>
      <point x="490" y="417" type="curve" smooth="yes"/>
      <point x="590" y="143" type="line" smooth="yes"/>
      <point x="592" y="138"/>
      <point x="597" y="136"/>
      <point x="598" y="136" type="curve" smooth="yes"/>
      <point x="601" y="136"/>
      <point x="604" y="140"/>
      <point x="606" y="144" type="curve" smooth="yes"/>
      <point x="631" y="208"/>
      <point x="649" y="254"/>
      <point x="668" y="325" type="curve" smooth="yes"/>
      <point x="673" y="344"/>
      <point x="678" y="368"/>
      <point x="678" y="393" type="curve" smooth="yes"/>
      <point x="678" y="430"/>
      <point x="651" y="437"/>
      <point x="625" y="439" type="curve" smooth="yes"/>
      <point x="615" y="439"/>
      <point x="611" y="446"/>
      <point x="611" y="455" type="curve" smooth="yes"/>
      <point x="611" y="465"/>
      <point x="616" y="469"/>
      <point x="622" y="469" type="curve" smooth="yes"/>
      <point x="629" y="469"/>
      <point x="640" y="467"/>
      <point x="660" y="465" type="curve" smooth="yes"/>
      <point x="683" y="462"/>
      <point x="697" y="461"/>
      <point x="710" y="461" type="curve" smooth="yes"/>
      <point x="723" y="461"/>
      <point x="738" y="462"/>
      <point x="761" y="465" type="curve" smooth="yes"/>
      <point x="781" y="467"/>
      <point x="792" y="469"/>
      <point x="799" y="469" type="curve" smooth="yes"/>
      <point x="805" y="469"/>
      <point x="816" y="465"/>
      <point x="816" y="455" type="curve" smooth="yes"/>
      <point x="816" y="446"/>
      <point x="806" y="442"/>
      <point x="796" y="440" type="curve" smooth="yes"/>
      <point x="751" y="432"/>
      <point x="727" y="407"/>
      <point x="706" y="343" type="curve" smooth="yes"/>
      <point x="667" y="221"/>
      <point x="628" y="102"/>
      <point x="579" y="14" type="curve" smooth="yes"/>
      <point x="573" y="3"/>
      <point x="562" y="-10"/>
      <point x="549" y="-10" type="curve" smooth="yes"/>
      <point x="534" y="-10"/>
      <point x="523" y="0"/>
      <point x="517" y="14" type="curve"/>
      <point x="404" y="316" type="line"/>
      <point x="398" y="316" type="line"/>
      <point x="362" y="210"/>
      <point x="320" y="100"/>
      <point x="279" y="14" type="curve" smooth="yes"/>
      <point x="274" y="3"/>
      <point x="263" y="-10"/>
      <point x="250" y="-10" type="curve" smooth="yes"/>
      <point x="235" y="-10"/>
      <point x="226" y="0"/>
      <point x="220" y="14" type="curve"/>
      <point x="82" y="397" type="line" smooth="yes"/>
      <point x="71" y="428"/>
      <point x="50" y="437"/>
      <point x="20" y="439" type="curve" smooth="yes"/>
      <point x="11" y="439"/>
      <point x="8" y="446"/>
    </contour>
  </outline>
</glyph>
<glyph name="x" format="2">
  <advance width="635"/>
  <unicode hex="0078"/>
  <anchor x="303" y="0" name="Bottom"/>
  <outline>
    <contour>
      <point x="31" y="8" type="curve" smooth="yes"/>
      <point x="31" y="17"/>
      <point x="35" y="19"/>
      <point x="45" y="22" type="curve" smooth="yes"/>
      <point x="97" y="42"/>
      <point x="135" y="74"/>
      <point x="168" y="105" type="curve" smooth="yes"/>
      <point x="200" y="135"/>
      <point x="238" y="177"/>
      <point x="269" y="211" type="curve"/>
      <point x="131" y="397" type="line" smooth="yes"/>
      <point x="107" y="430"/>
      <point x="102" y="435"/>
      <point x="62" y="439" type="curve" smooth="yes"/>
      <point x="52" y="440"/>
      <point x="49" y="446"/>
      <point x="49" y="455" type="curve" smooth="yes"/>
      <point x="49" y="465"/>
      <point x="53" y="469"/>
      <point x="59" y="469" type="curve" smooth="yes"/>
      <point x="72" y="469"/>
      <point x="99" y="467"/>
      <point x="119" y="465" type="curve" smooth="yes"/>
      <point x="142" y="463"/>
      <point x="167" y="461"/>
      <point x="186" y="461" type="curve" smooth="yes"/>
      <point x="205" y="461"/>
      <point x="230" y="463"/>
      <point x="253" y="465" type="curve" smooth="yes"/>
      <point x="273" y="467"/>
      <point x="300" y="469"/>
      <point x="313" y="469" type="curve" smooth="yes"/>
      <point x="319" y="469"/>
      <point x="323" y="465"/>
      <point x="323" y="455" type="curve" smooth="yes"/>
      <point x="323" y="446"/>
      <point x="320" y="440"/>
      <point x="310" y="439" type="curve" smooth="yes"/>
      <point x="281" y="437" type="line" smooth="yes"/>
      <point x="272" y="437"/>
      <point x="265" y="426"/>
      <point x="265" y="414" type="curve" smooth="yes"/>
      <point x="265" y="408"/>
      <point x="267" y="401"/>
      <point x="272" y="394" type="curve" smooth="yes"/>
      <point x="348" y="292" type="line"/>
      <point x="387" y="331"/>
      <point x="426" y="375"/>
      <point x="426" y="410" type="curve" smooth="yes"/>
      <point x="426" y="428"/>
      <point x="415" y="437"/>
      <point x="395" y="439" type="curve" smooth="yes"/>
      <point x="385" y="440"/>
      <point x="381" y="446"/>
      <point x="381" y="455" type="curve" smooth="yes"/>
      <point x="381" y="465"/>
      <point x="386" y="469"/>
      <point x="392" y="469" type="curve" smooth="yes"/>
      <point x="399" y="469"/>
      <point x="417" y="467"/>
      <point x="437" y="465" type="curve" smooth="yes"/>
      <point x="460" y="462"/>
      <point x="474" y="461"/>
      <point x="487" y="461" type="curve" smooth="yes"/>
      <point x="500" y="461"/>
      <point x="515" y="462"/>
      <point x="538" y="465" type="curve" smooth="yes"/>
      <point x="558" y="467"/>
      <point x="576" y="469"/>
      <point x="583" y="469" type="curve" smooth="yes"/>
      <point x="589" y="469"/>
      <point x="594" y="465"/>
      <point x="594" y="455" type="curve" smooth="yes"/>
      <point x="594" y="446"/>
      <point x="590" y="442"/>
      <point x="580" y="440" type="curve" smooth="yes"/>
      <point x="536" y="429"/>
      <point x="507" y="408"/>
      <point x="474" y="377" type="curve" smooth="yes"/>
      <point x="438" y="344"/>
      <point x="397" y="304"/>
      <point x="365" y="269" type="curve"/>
      <point x="519" y="65" type="line" smooth="yes"/>
      <point x="543" y="33"/>
      <point x="547" y="27"/>
      <point x="587" y="23" type="curve" smooth="yes"/>
      <point x="597" y="22"/>
      <point x="601" y="17"/>
      <point x="601" y="8" type="curve" smooth="yes"/>
      <point x="601" y="-2"/>
      <point x="596" y="-6"/>
      <point x="590" y="-6" type="curve" smooth="yes"/>
      <point x="577" y="-6"/>
      <point x="550" y="-4"/>
      <point x="530" y="-2" type="curve" smooth="yes"/>
      <point x="507" y="0"/>
      <point x="482" y="2"/>
      <point x="463" y="2" type="curve" smooth="yes"/>
      <point x="444" y="2"/>
      <point x="419" y="0"/>
      <point x="396" y="-2" type="curve" smooth="yes"/>
      <point x="376" y="-4"/>
      <point x="349" y="-6"/>
      <point x="336" y="-6" type="curve" smooth="yes"/>
      <point x="330" y="-6"/>
      <point x="326" y="-2"/>
      <point x="326" y="8" type="curve" smooth="yes"/>
      <point x="326" y="17"/>
      <point x="330" y="22"/>
      <point x="340" y="23" type="curve" smooth="yes"/>
      <point x="366" y="26" type="line" smooth="yes"/>
      <point x="375" y="26"/>
      <point x="382" y="37"/>
      <point x="382" y="49" type="curve" smooth="yes"/>
      <point x="382" y="55"/>
      <point x="380" y="62"/>
      <point x="375" y="69" type="curve" smooth="yes"/>
      <point x="288" y="187" type="line"/>
      <point x="249" y="144"/>
      <point x="203" y="85"/>
      <point x="203" y="52" type="curve" smooth="yes"/>
      <point x="203" y="32"/>
      <point x="214" y="27"/>
      <point x="234" y="23" type="curve" smooth="yes"/>
      <point x="244" y="21"/>
      <point x="248" y="17"/>
      <point x="248" y="8" type="curve" smooth="yes"/>
      <point x="248" y="-2"/>
      <point x="243" y="-6"/>
      <point x="237" y="-6" type="curve" smooth="yes"/>
      <point x="230" y="-6"/>
      <point x="210" y="-4"/>
      <point x="190" y="-2" type="curve" smooth="yes"/>
      <point x="167" y="1"/>
      <point x="153" y="2"/>
      <point x="140" y="2" type="curve" smooth="yes"/>
      <point x="127" y="2"/>
      <point x="110" y="1"/>
      <point x="87" y="-2" type="curve" smooth="yes"/>
      <point x="67" y="-4"/>
      <point x="49" y="-6"/>
      <point x="42" y="-6" type="curve" smooth="yes"/>
      <point x="36" y="-6"/>
      <point x="31" y="-2"/>
    </contour>
  </outline>
</glyph>
<glyph name="y" format="2">
  <advance width="572"/>
  <unicode hex="0079"/>
  <anchor x="436" y="0" name="Bottom"/>
  <anchor x="300" y="557" name="Acute"/>
  <anchor x="300" y="547" name="Grave"/>
  <anchor x="300" y="537" name="Top"/>
  <outline>
    <contour>
      <point x="6" y="455" type="curve" smooth="yes"/>
      <point x="6" y="465"/>
      <point x="10" y="469"/>
      <point x="16" y="469" type="curve" smooth="yes"/>
      <point x="26" y="469"/>
      <point x="48" y="467"/>
      <point x="68" y="465" type="curve" smooth="yes"/>
      <point x="91" y="463"/>
      <point x="116" y="461"/>
      <point x="135" y="461" type="curve" smooth="yes"/>
      <point x="154" y="461"/>
      <point x="179" y="463"/>
      <point x="202" y="465" type="curve" smooth="yes"/>
      <point x="222" y="467"/>
      <point x="249" y="469"/>
      <point x="262" y="469" type="curve" smooth="yes"/>
      <point x="268" y="469"/>
      <point x="272" y="465"/>
      <point x="272" y="455" type="curve" smooth="yes"/>
      <point x="272" y="446"/>
      <point x="268" y="440"/>
      <point x="258" y="439" type="curve" smooth="yes"/>
      <point x="234" y="437"/>
      <point x="209" y="434"/>
      <point x="209" y="408" type="curve" smooth="yes"/>
      <point x="209" y="401"/>
      <point x="215" y="387"/>
      <point x="217" y="382" type="curve" smooth="yes"/>
      <point x="333" y="115" type="line"/>
      <point x="403" y="298" type="line" smooth="yes"/>
      <point x="417" y="335"/>
      <point x="424" y="364"/>
      <point x="424" y="393" type="curve" smooth="yes"/>
      <point x="424" y="420"/>
      <point x="406" y="437"/>
      <point x="375" y="439" type="curve" smooth="yes"/>
      <point x="365" y="440"/>
      <point x="361" y="446"/>
      <point x="361" y="455" type="curve" smooth="yes"/>
      <point x="361" y="465"/>
      <point x="366" y="469"/>
      <point x="372" y="469" type="curve" smooth="yes"/>
      <point x="379" y="469"/>
      <point x="391" y="467"/>
      <point x="411" y="465" type="curve" smooth="yes"/>
      <point x="434" y="462"/>
      <point x="450" y="461"/>
      <point x="463" y="461" type="curve" smooth="yes"/>
      <point x="476" y="461"/>
      <point x="492" y="462"/>
      <point x="515" y="465" type="curve" smooth="yes"/>
      <point x="535" y="467"/>
      <point x="547" y="469"/>
      <point x="554" y="469" type="curve" smooth="yes"/>
      <point x="560" y="469"/>
      <point x="570" y="467"/>
      <point x="570" y="455" type="curve" smooth="yes"/>
      <point x="570" y="446"/>
      <point x="560" y="441"/>
      <point x="550" y="439" type="curve" smooth="yes"/>
      <point x="505" y="431"/>
      <point x="480" y="405"/>
      <point x="456" y="344" type="curve" smooth="yes"/>
      <point x="237" y="-223" type="line" smooth="yes"/>
      <point x="225" y="-253"/>
      <point x="211" y="-288"/>
      <point x="187" y="-288" type="curve" smooth="yes"/>
      <point x="137" y="-288"/>
      <point x="93" y="-272"/>
      <point x="93" y="-255" type="curve" smooth="yes"/>
      <point x="93" y="-249"/>
      <point x="104" y="-239"/>
      <point x="117" y="-229" type="curve" smooth="yes"/>
      <point x="178" y="-179"/>
      <point x="230" y="-121"/>
      <point x="265" y="-58" type="curve" smooth="yes"/>
      <point x="269" y="-50"/>
      <point x="272" y="-40"/>
      <point x="272" y="-35" type="curve" smooth="yes"/>
      <point x="272" y="-31"/>
      <point x="272" y="-26"/>
      <point x="269" y="-20" type="curve" smooth="yes"/>
      <point x="87" y="397" type="line" smooth="yes"/>
      <point x="74" y="428"/>
      <point x="54" y="437"/>
      <point x="20" y="439" type="curve" smooth="yes"/>
      <point x="10" y="439"/>
      <point x="6" y="446"/>
    </contour>
  </outline>
</glyph>
<glyph name="z" format="2">
  <advance width="519"/>
  <unicode hex="007A"/>
  <anchor x="260" y="0" name="Bottom"/>
  <anchor x="269" y="557" name="HighMark"/>
  <anchor x="269" y="547" name="Grave"/>
  <anchor x="269" y="537" name="Top"/>
  <outline>
    <contour>
      <point x="47" y="317" type="curve" smooth="yes"/>
      <point x="47" y="319"/>
      <point x="49" y="329"/>
      <point x="50" y="336" type="curve" smooth="yes"/>
      <point x="72" y="453" type="line" smooth="yes"/>
      <point x="75" y="470"/>
      <point x="86" y="479"/>
      <point x="100" y="479" type="curve" smooth="yes"/>
      <point x="111" y="479"/>
      <point x="123" y="474"/>
      <point x="136" y="469" type="curve" smooth="yes"/>
      <point x="151" y="463"/>
      <point x="163" y="462"/>
      <point x="174" y="462" type="curve" smooth="yes"/>
      <point x="447" y="462" type="line" smooth="yes"/>
      <point x="456" y="462"/>
      <point x="460" y="457"/>
      <point x="460" y="453" type="curve" smooth="yes"/>
      <point x="460" y="447"/>
      <point x="456" y="440"/>
      <point x="451" y="432" type="curve" smooth="yes"/>
      <point x="191" y="29" type="line"/>
      <point x="298" y="29"/>
      <point x="335" y="38"/>
      <point x="385" y="79" type="curve" smooth="yes"/>
      <point x="405" y="95"/>
      <point x="430" y="125"/>
      <point x="447" y="152" type="curve" smooth="yes"/>
      <point x="451" y="159"/>
      <point x="455" y="165"/>
      <point x="466" y="165" type="curve" smooth="yes"/>
      <point x="472" y="165"/>
      <point x="480" y="161"/>
      <point x="480" y="152" type="curve" smooth="yes"/>
      <point x="480" y="148"/>
      <point x="479" y="139"/>
      <point x="478" y="133" type="curve" smooth="yes"/>
      <point x="444" y="0" type="line"/>
      <point x="63" y="0" type="line" smooth="yes"/>
      <point x="52" y="0"/>
      <point x="50" y="5"/>
      <point x="50" y="8" type="curve" smooth="yes"/>
      <point x="50" y="14"/>
      <point x="54" y="23"/>
      <point x="57" y="28" type="curve" smooth="yes"/>
      <point x="317" y="433" type="line"/>
      <point x="243" y="433" type="line" smooth="yes"/>
      <point x="201" y="433"/>
      <point x="163" y="413"/>
      <point x="134" y="387" type="curve" smooth="yes"/>
      <point x="113" y="369"/>
      <point x="93" y="339"/>
      <point x="79" y="317" type="curve" smooth="yes"/>
      <point x="75" y="310"/>
      <point x="71" y="305"/>
      <point x="61" y="305" type="curve" smooth="yes"/>
      <point x="51" y="305"/>
      <point x="47" y="311"/>
    </contour>
  </outline>
</glyph>
<glyph name="braceleft" format="2">
  <advance width="395"/>
  <unicode hex="007B"/>
  <outline>
    <contour>
      <point x="70" y="262" type="curve" smooth="yes"/>
      <point x="70" y="272"/>
      <point x="82" y="277"/>
      <point x="93" y="280" type="curve" smooth="yes"/>
      <point x="140" y="292"/>
      <point x="191" y="316"/>
      <point x="191" y="363" type="curve" smooth="yes"/>
      <point x="191" y="388"/>
      <point x="185" y="426"/>
      <point x="180" y="464" type="curve" smooth="yes"/>
      <point x="175" y="502"/>
      <point x="170" y="540"/>
      <point x="170" y="564" type="curve" smooth="yes"/>
      <point x="170" y="668"/>
      <point x="290" y="711"/>
      <point x="352" y="711" type="curve" smooth="yes"/>
      <point x="353" y="711"/>
      <point x="363" y="710"/>
      <point x="363" y="705" type="curve" smooth="yes"/>
      <point x="363" y="697"/>
      <point x="361" y="685"/>
      <point x="337" y="679" type="curve" smooth="yes"/>
      <point x="303" y="671"/>
      <point x="258" y="658"/>
      <point x="258" y="613" type="curve" smooth="yes"/>
      <point x="258" y="584"/>
      <point x="263" y="547"/>
      <point x="268" y="509" type="curve" smooth="yes"/>
      <point x="273" y="471"/>
      <point x="279" y="433"/>
      <point x="279" y="404" type="curve" smooth="yes"/>
      <point x="279" y="330"/>
      <point x="213" y="288"/>
      <point x="127" y="263" type="curve"/>
      <point x="127" y="261" type="line"/>
      <point x="213" y="236"/>
      <point x="279" y="194"/>
      <point x="279" y="120" type="curve" smooth="yes"/>
      <point x="279" y="91"/>
      <point x="273" y="53"/>
      <point x="268" y="15" type="curve" smooth="yes"/>
      <point x="263" y="-23"/>
      <point x="258" y="-60"/>
      <point x="258" y="-89" type="curve" smooth="yes"/>
      <point x="258" y="-134"/>
      <point x="303" y="-146"/>
      <point x="337" y="-154" type="curve" smooth="yes"/>
      <point x="361" y="-160"/>
      <point x="363" y="-172"/>
      <point x="363" y="-180" type="curve" smooth="yes"/>
      <point x="363" y="-185"/>
      <point x="353" y="-187"/>
      <point x="352" y="-187" type="curve" smooth="yes"/>
      <point x="290" y="-187"/>
      <point x="170" y="-144"/>
      <point x="170" y="-40" type="curve" smooth="yes"/>
      <point x="170" y="-16"/>
      <point x="175" y="22"/>
      <point x="180" y="60" type="curve" smooth="yes"/>
      <point x="185" y="98"/>
      <point x="191" y="136"/>
      <point x="191" y="161" type="curve" smooth="yes"/>
      <point x="191" y="208"/>
      <point x="140" y="232"/>
      <point x="93" y="244" type="curve" smooth="yes"/>
      <point x="82" y="247"/>
      <point x="70" y="252"/>
    </contour>
  </outline>
</glyph>
<glyph name="bar" format="2">
  <advance width="195"/>
  <unicode hex="007C"/>
  <outline>
    <contour>
      <point x="66" y="-155" type="curve" smooth="yes"/>
      <point x="66" y="690" type="line" smooth="yes"/>
      <point x="66" y="697"/>
      <point x="73" y="707"/>
      <point x="79" y="707" type="curve" smooth="yes"/>
      <point x="85" y="707"/>
      <point x="90" y="705"/>
      <point x="104" y="700" type="curve" smooth="yes"/>
      <point x="120" y="694"/>
      <point x="129" y="689"/>
      <point x="129" y="682" type="curve" smooth="yes"/>
      <point x="129" y="-164" type="line" smooth="yes"/>
      <point x="129" y="-171"/>
      <point x="123" y="-181"/>
      <point x="117" y="-181" type="curve" smooth="yes"/>
      <point x="111" y="-181"/>
      <point x="106" y="-178"/>
      <point x="92" y="-173" type="curve" smooth="yes"/>
      <point x="76" y="-167"/>
      <point x="66" y="-162"/>
    </contour>
  </outline>
</glyph>
<glyph name="braceright" format="2">
  <advance width="395"/>
  <unicode hex="007D"/>
  <outline>
    <contour>
      <point x="32" y="-180" type="curve" smooth="yes"/>
      <point x="32" y="-172"/>
      <point x="35" y="-160"/>
      <point x="59" y="-154" type="curve" smooth="yes"/>
      <point x="93" y="-146"/>
      <point x="138" y="-134"/>
      <point x="138" y="-89" type="curve" smooth="yes"/>
      <point x="138" y="-60"/>
      <point x="132" y="-23"/>
      <point x="127" y="15" type="curve" smooth="yes"/>
      <point x="122" y="53"/>
      <point x="117" y="91"/>
      <point x="117" y="120" type="curve" smooth="yes"/>
      <point x="117" y="194"/>
      <point x="183" y="236"/>
      <point x="269" y="261" type="curve"/>
      <point x="269" y="263" type="line"/>
      <point x="183" y="288"/>
      <point x="117" y="330"/>
      <point x="117" y="404" type="curve" smooth="yes"/>
      <point x="117" y="433"/>
      <point x="122" y="471"/>
      <point x="127" y="509" type="curve" smooth="yes"/>
      <point x="132" y="547"/>
      <point x="138" y="584"/>
      <point x="138" y="613" type="curve" smooth="yes"/>
      <point x="138" y="658"/>
      <point x="93" y="671"/>
      <point x="59" y="679" type="curve" smooth="yes"/>
      <point x="35" y="685"/>
      <point x="32" y="697"/>
      <point x="32" y="705" type="curve" smooth="yes"/>
      <point x="32" y="710"/>
      <point x="43" y="711"/>
      <point x="44" y="711" type="curve" smooth="yes"/>
      <point x="106" y="711"/>
      <point x="226" y="668"/>
      <point x="226" y="564" type="curve" smooth="yes"/>
      <point x="226" y="540"/>
      <point x="220" y="502"/>
      <point x="215" y="464" type="curve" smooth="yes"/>
      <point x="210" y="426"/>
      <point x="205" y="388"/>
      <point x="205" y="363" type="curve" smooth="yes"/>
      <point x="205" y="316"/>
      <point x="256" y="292"/>
      <point x="303" y="280" type="curve" smooth="yes"/>
      <point x="314" y="277"/>
      <point x="325" y="272"/>
      <point x="325" y="262" type="curve" smooth="yes"/>
      <point x="325" y="252"/>
      <point x="314" y="247"/>
      <point x="303" y="244" type="curve" smooth="yes"/>
      <point x="256" y="232"/>
      <point x="205" y="208"/>
      <point x="205" y="161" type="curve" smooth="yes"/>
      <point x="205" y="136"/>
      <point x="210" y="98"/>
      <point x="215" y="60" type="curve" smooth="yes"/>
      <point x="220" y="22"/>
      <point x="226" y="-16"/>
      <point x="226" y="-40" type="curve" smooth="yes"/>
      <point x="226" y="-144"/>
      <point x="106" y="-187"/>
      <point x="44" y="-187" type="curve" smooth="yes"/>
      <point x="43" y="-187"/>
      <point x="32" y="-185"/>
    </contour>
  </outline>
</glyph>
<glyph name="asciitilde" format="2">
  <advance width="615"/>
  <unicode hex="007E"/>
  <outline>
    <contour>
      <point x="55" y="177" type="curve" smooth="yes"/>
      <point x="55" y="201"/>
      <point x="157" y="298"/>
      <point x="224" y="298" type="curve" smooth="yes"/>
      <point x="271" y="298"/>
      <point x="307" y="283"/>
      <point x="340" y="268" type="curve" smooth="yes"/>
      <point x="374" y="253"/>
      <point x="410" y="238"/>
      <point x="455" y="238" type="curve" smooth="yes"/>
      <point x="481" y="238"/>
      <point x="499" y="255"/>
      <point x="514" y="271" type="curve" smooth="yes"/>
      <point x="523" y="281"/>
      <point x="532" y="288"/>
      <point x="540" y="288" type="curve" smooth="yes"/>
      <point x="550" y="288"/>
      <point x="561" y="283"/>
      <point x="561" y="273" type="curve" smooth="yes"/>
      <point x="561" y="249"/>
      <point x="458" y="152"/>
      <point x="391" y="152" type="curve" smooth="yes"/>
      <point x="344" y="152"/>
      <point x="308" y="167"/>
      <point x="275" y="182" type="curve" smooth="yes"/>
      <point x="241" y="197"/>
      <point x="205" y="212"/>
      <point x="160" y="212" type="curve" smooth="yes"/>
      <point x="134" y="212"/>
      <point x="116" y="196"/>
      <point x="101" y="180" type="curve" smooth="yes"/>
      <point x="92" y="170"/>
      <point x="83" y="162"/>
      <point x="75" y="162" type="curve" smooth="yes"/>
      <point x="65" y="162"/>
      <point x="55" y="167"/>
    </contour>
  </outline>
</glyph>
<glyph name="exclamdown" format="2">
  <advance width="257"/>
  <unicode hex="00A1"/>
  <outline>
    <contour>
      <point x="38" y="9" type="curve" smooth="yes"/>
      <point x="38" y="31"/>
      <point x="47" y="101"/>
      <point x="50" y="125" type="curve" smooth="yes"/>
      <point x="102" y="474" type="line" smooth="yes"/>
      <point x="104" y="486"/>
      <point x="115" y="496"/>
      <point x="129" y="496" type="curve" smooth="yes"/>
      <point x="143" y="496"/>
      <point x="153" y="492"/>
      <point x="156" y="474" type="curve" smooth="yes"/>
      <point x="199" y="196" type="line" smooth="yes"/>
      <point x="203" y="170"/>
      <point x="211" y="111"/>
      <point x="211" y="101" type="curve" smooth="yes"/>
      <point x="211" y="77"/>
      <point x="182" y="47"/>
      <point x="152" y="25" type="curve" smooth="yes"/>
      <point x="121" y="2"/>
      <point x="85" y="-18"/>
      <point x="69" y="-18" type="curve" smooth="yes"/>
      <point x="44" y="-18"/>
      <point x="38" y="-1"/>
    </contour>
    <contour>
      <point x="51" y="629" type="curve" smooth="yes"/>
      <point x="51" y="672"/>
      <point x="86" y="707"/>
      <point x="129" y="707" type="curve" smooth="yes"/>
      <point x="172" y="707"/>
      <point x="207" y="672"/>
      <point x="207" y="629" type="curve" smooth="yes"/>
      <point x="207" y="586"/>
      <point x="172" y="551"/>
      <point x="129" y="551" type="curve" smooth="yes"/>
      <point x="86" y="551"/>
      <point x="51" y="586"/>
    </contour>
  </outline>
</glyph>
<glyph name="cent" format="2">
  <advance width="472"/>
  <unicode hex="00A2"/>
  <outline>
    <contour>
      <point x="39" y="228" type="curve" smooth="yes"/>
      <point x="39" y="358"/>
      <point x="133" y="478"/>
      <point x="274" y="478" type="curve" smooth="yes"/>
      <point x="289" y="478"/>
      <point x="302" y="475"/>
      <point x="315" y="473" type="curve"/>
      <point x="377" y="645" type="line" smooth="yes"/>
      <point x="379" y="651"/>
      <point x="386" y="658"/>
      <point x="389" y="658" type="curve" smooth="yes"/>
      <point x="392" y="658"/>
      <point x="396" y="653"/>
      <point x="402" y="646" type="curve" smooth="yes"/>
      <point x="408" y="639"/>
      <point x="412" y="633"/>
      <point x="412" y="628" type="curve" smooth="yes"/>
      <point x="412" y="627"/>
      <point x="411" y="625"/>
      <point x="411" y="624" type="curve" smooth="yes"/>
      <point x="352" y="462" type="line"/>
      <point x="365" y="457"/>
      <point x="377" y="450"/>
      <point x="389" y="442" type="curve" smooth="yes"/>
      <point x="416" y="424"/>
      <point x="441" y="403"/>
      <point x="441" y="387" type="curve" smooth="yes"/>
      <point x="441" y="371"/>
      <point x="399" y="334"/>
      <point x="385" y="334" type="curve" smooth="yes"/>
      <point x="372" y="334"/>
      <point x="360" y="352"/>
      <point x="346" y="375" type="curve" smooth="yes"/>
      <point x="340" y="385"/>
      <point x="335" y="393"/>
      <point x="330" y="400" type="curve"/>
      <point x="221" y="101" type="line"/>
      <point x="246" y="76"/>
      <point x="278" y="61"/>
      <point x="317" y="61" type="curve" smooth="yes"/>
      <point x="335" y="61"/>
      <point x="375" y="77"/>
      <point x="388" y="88" type="curve" smooth="yes"/>
      <point x="404" y="102"/>
      <point x="414" y="109"/>
      <point x="425" y="109" type="curve" smooth="yes"/>
      <point x="435" y="109"/>
      <point x="440" y="102"/>
      <point x="440" y="94" type="curve" smooth="yes"/>
      <point x="440" y="60"/>
      <point x="325" y="-12"/>
      <point x="240" y="-12" type="curve" smooth="yes"/>
      <point x="220" y="-12"/>
      <point x="201" y="-9"/>
      <point x="183" y="-3" type="curve"/>
      <point x="122" y="-171" type="line" smooth="yes"/>
      <point x="120" y="-177"/>
      <point x="113" y="-185"/>
      <point x="110" y="-185" type="curve" smooth="yes"/>
      <point x="107" y="-185"/>
      <point x="103" y="-180"/>
      <point x="97" y="-173" type="curve" smooth="yes"/>
      <point x="91" y="-166"/>
      <point x="87" y="-159"/>
      <point x="87" y="-154" type="curve" smooth="yes"/>
      <point x="87" y="-153"/>
      <point x="88" y="-151"/>
      <point x="88" y="-150" type="curve" smooth="yes"/>
      <point x="147" y="13" type="line"/>
      <point x="82" y="51"/>
      <point x="39" y="130"/>
    </contour>
    <contour>
      <point x="155" y="277" type="curve" smooth="yes"/>
      <point x="155" y="226"/>
      <point x="168" y="177"/>
      <point x="192" y="137" type="curve"/>
      <point x="300" y="433" type="line"/>
      <point x="288" y="441"/>
      <point x="276" y="444"/>
      <point x="258" y="444" type="curve" smooth="yes"/>
      <point x="206" y="444"/>
      <point x="155" y="389"/>
    </contour>
  </outline>
</glyph>
<glyph name="sterling" format="2">
  <advance width="654"/>
  <unicode hex="00A3"/>
  <outline>
    <contour>
      <point x="54" y="74" type="curve" smooth="yes"/>
      <point x="54" y="84"/>
      <point x="61" y="105"/>
      <point x="76" y="113" type="curve" smooth="yes"/>
      <point x="100" y="125"/>
      <point x="146" y="132"/>
      <point x="183" y="132" type="curve" smooth="yes"/>
      <point x="215" y="132"/>
      <point x="231" y="152"/>
      <point x="231" y="208" type="curve" smooth="yes"/>
      <point x="231" y="245"/>
      <point x="221" y="298"/>
      <point x="212" y="346" type="curve"/>
      <point x="73" y="346" type="line" smooth="yes"/>
      <point x="69" y="346"/>
      <point x="65" y="349"/>
      <point x="65" y="354" type="curve" smooth="yes"/>
      <point x="65" y="362"/>
      <point x="73" y="381"/>
      <point x="84" y="381" type="curve" smooth="yes"/>
      <point x="206" y="381" type="line"/>
      <point x="200" y="418"/>
      <point x="194" y="456"/>
      <point x="194" y="492" type="curve" smooth="yes"/>
      <point x="194" y="572"/>
      <point x="294" y="709"/>
      <point x="419" y="709" type="curve" smooth="yes"/>
      <point x="505" y="709"/>
      <point x="601" y="667"/>
      <point x="601" y="649" type="curve" smooth="yes"/>
      <point x="601" y="625"/>
      <point x="554" y="583"/>
      <point x="535" y="583" type="curve" smooth="yes"/>
      <point x="507" y="583"/>
      <point x="492" y="593"/>
      <point x="453" y="618" type="curve" smooth="yes"/>
      <point x="415" y="643"/>
      <point x="395" y="648"/>
      <point x="364" y="648" type="curve" smooth="yes"/>
      <point x="329" y="648"/>
      <point x="304" y="608"/>
      <point x="304" y="573" type="curve" smooth="yes"/>
      <point x="304" y="515"/>
      <point x="311" y="447"/>
      <point x="319" y="381" type="curve"/>
      <point x="525" y="381" type="line" smooth="yes"/>
      <point x="529" y="381"/>
      <point x="533" y="378"/>
      <point x="533" y="373" type="curve" smooth="yes"/>
      <point x="533" y="365"/>
      <point x="525" y="346"/>
      <point x="514" y="346" type="curve" smooth="yes"/>
      <point x="322" y="346" type="line"/>
      <point x="323" y="324"/>
      <point x="324" y="301"/>
      <point x="324" y="279" type="curve" smooth="yes"/>
      <point x="324" y="224"/>
      <point x="293" y="166"/>
      <point x="238" y="130" type="curve"/>
      <point x="238" y="127" type="line"/>
      <point x="274" y="118"/>
      <point x="296" y="113"/>
      <point x="329" y="103" type="curve" smooth="yes"/>
      <point x="388" y="86"/>
      <point x="435" y="80"/>
      <point x="477" y="80" type="curve" smooth="yes"/>
      <point x="519" y="80"/>
      <point x="554" y="94"/>
      <point x="576" y="121" type="curve" smooth="yes"/>
      <point x="583" y="130"/>
      <point x="589" y="137"/>
      <point x="595" y="137" type="curve" smooth="yes"/>
      <point x="606" y="137"/>
      <point x="611" y="126"/>
      <point x="611" y="119" type="curve" smooth="yes"/>
      <point x="611" y="82"/>
      <point x="548" y="-12"/>
      <point x="455" y="-12" type="curve" smooth="yes"/>
      <point x="372" y="-12"/>
      <point x="319" y="33"/>
      <point x="282" y="66" type="curve" smooth="yes"/>
      <point x="259" y="87"/>
      <point x="235" y="101"/>
      <point x="219" y="101" type="curve" smooth="yes"/>
      <point x="202" y="101"/>
      <point x="175" y="82"/>
      <point x="145" y="56" type="curve" smooth="yes"/>
      <point x="124" y="38"/>
      <point x="105" y="23"/>
      <point x="92" y="23" type="curve" smooth="yes"/>
      <point x="76" y="23"/>
      <point x="54" y="57"/>
    </contour>
  </outline>
</glyph>
<glyph name="currency" format="2">
  <advance width="722"/>
  <unicode hex="00A4"/>
  <outline>
    <contour>
      <point x="32" y="646" type="curve" smooth="yes"/>
      <point x="32" y="654"/>
      <point x="42" y="659"/>
      <point x="57" y="665" type="curve" smooth="yes"/>
      <point x="67" y="669"/>
      <point x="75" y="672"/>
      <point x="81" y="672" type="curve" smooth="yes"/>
      <point x="84" y="672"/>
      <point x="85" y="671"/>
      <point x="87" y="669" type="curve" smooth="yes"/>
      <point x="183" y="574" type="line"/>
      <point x="232" y="614"/>
      <point x="293" y="637"/>
      <point x="361" y="637" type="curve" smooth="yes"/>
      <point x="429" y="637"/>
      <point x="491" y="614"/>
      <point x="540" y="574" type="curve"/>
      <point x="641" y="675" type="line" smooth="yes"/>
      <point x="644" y="678"/>
      <point x="650" y="681"/>
      <point x="655" y="681" type="curve" smooth="yes"/>
      <point x="663" y="681"/>
      <point x="668" y="671"/>
      <point x="674" y="656" type="curve" smooth="yes"/>
      <point x="678" y="646"/>
      <point x="682" y="638"/>
      <point x="682" y="632" type="curve" smooth="yes"/>
      <point x="682" y="629"/>
      <point x="681" y="627"/>
      <point x="679" y="625" type="curve" smooth="yes"/>
      <point x="584" y="530" type="line"/>
      <point x="624" y="481"/>
      <point x="647" y="420"/>
      <point x="647" y="352" type="curve" smooth="yes"/>
      <point x="647" y="284"/>
      <point x="624" y="222"/>
      <point x="584" y="173" type="curve"/>
      <point x="685" y="72" type="line" smooth="yes"/>
      <point x="688" y="69"/>
      <point x="690" y="63"/>
      <point x="690" y="58" type="curve" smooth="yes"/>
      <point x="690" y="50"/>
      <point x="681" y="45"/>
      <point x="666" y="39" type="curve" smooth="yes"/>
      <point x="656" y="35"/>
      <point x="648" y="31"/>
      <point x="642" y="31" type="curve" smooth="yes"/>
      <point x="639" y="31"/>
      <point x="637" y="32"/>
      <point x="635" y="34" type="curve" smooth="yes"/>
      <point x="540" y="129" type="line"/>
      <point x="491" y="89"/>
      <point x="429" y="66"/>
      <point x="361" y="66" type="curve" smooth="yes"/>
      <point x="293" y="66"/>
      <point x="232" y="89"/>
      <point x="183" y="129" type="curve"/>
      <point x="82" y="28" type="line" smooth="yes"/>
      <point x="79" y="25"/>
      <point x="72" y="22"/>
      <point x="67" y="22" type="curve" smooth="yes"/>
      <point x="59" y="22"/>
      <point x="54" y="32"/>
      <point x="48" y="47" type="curve" smooth="yes"/>
      <point x="44" y="57"/>
      <point x="41" y="65"/>
      <point x="41" y="71" type="curve" smooth="yes"/>
      <point x="41" y="74"/>
      <point x="41" y="76"/>
      <point x="43" y="78" type="curve" smooth="yes"/>
      <point x="139" y="173" type="line"/>
      <point x="99" y="222"/>
      <point x="76" y="284"/>
      <point x="76" y="352" type="curve" smooth="yes"/>
      <point x="76" y="420"/>
      <point x="99" y="481"/>
      <point x="139" y="530" type="curve"/>
      <point x="38" y="631" type="line" smooth="yes"/>
      <point x="35" y="634"/>
      <point x="32" y="641"/>
    </contour>
    <contour>
      <point x="135" y="352" type="curve" smooth="yes"/>
      <point x="135" y="227"/>
      <point x="236" y="125"/>
      <point x="361" y="125" type="curve" smooth="yes"/>
      <point x="486" y="125"/>
      <point x="587" y="227"/>
      <point x="587" y="352" type="curve" smooth="yes"/>
      <point x="587" y="477"/>
      <point x="486" y="578"/>
      <point x="361" y="578" type="curve" smooth="yes"/>
      <point x="236" y="578"/>
      <point x="135" y="477"/>
    </contour>
  </outline>
</glyph>
<glyph name="yen" format="2">
  <advance width="693"/>
  <unicode hex="00A5"/>
  <outline>
    <contour>
      <point x="23" y="686" type="curve" smooth="yes"/>
      <point x="23" y="696"/>
      <point x="28" y="699"/>
      <point x="34" y="699" type="curve" smooth="yes"/>
      <point x="44" y="699"/>
      <point x="65" y="697"/>
      <point x="85" y="695" type="curve" smooth="yes"/>
      <point x="108" y="693"/>
      <point x="133" y="691"/>
      <point x="152" y="691" type="curve" smooth="yes"/>
      <point x="171" y="691"/>
      <point x="196" y="693"/>
      <point x="219" y="695" type="curve" smooth="yes"/>
      <point x="239" y="697"/>
      <point x="266" y="699"/>
      <point x="279" y="699" type="curve" smooth="yes"/>
      <point x="285" y="699"/>
      <point x="290" y="696"/>
      <point x="290" y="686" type="curve" smooth="yes"/>
      <point x="290" y="677"/>
      <point x="286" y="671"/>
      <point x="276" y="670" type="curve" smooth="yes"/>
      <point x="252" y="668"/>
      <point x="229" y="666"/>
      <point x="229" y="641" type="curve" smooth="yes"/>
      <point x="229" y="636"/>
      <point x="231" y="626"/>
      <point x="234" y="620" type="curve" smooth="yes"/>
      <point x="383" y="336" type="line"/>
      <point x="509" y="567" type="line" smooth="yes"/>
      <point x="519" y="586"/>
      <point x="527" y="604"/>
      <point x="527" y="622" type="curve" smooth="yes"/>
      <point x="527" y="648"/>
      <point x="507" y="662"/>
      <point x="481" y="664" type="curve" smooth="yes"/>
      <point x="471" y="664"/>
      <point x="468" y="671"/>
      <point x="468" y="680" type="curve" smooth="yes"/>
      <point x="468" y="690"/>
      <point x="473" y="693"/>
      <point x="479" y="693" type="curve" smooth="yes"/>
      <point x="486" y="693"/>
      <point x="504" y="691"/>
      <point x="524" y="689" type="curve" smooth="yes"/>
      <point x="547" y="686"/>
      <point x="561" y="686"/>
      <point x="574" y="686" type="curve" smooth="yes"/>
      <point x="587" y="686"/>
      <point x="602" y="686"/>
      <point x="625" y="689" type="curve" smooth="yes"/>
      <point x="645" y="691"/>
      <point x="663" y="693"/>
      <point x="670" y="693" type="curve" smooth="yes"/>
      <point x="676" y="693"/>
      <point x="681" y="690"/>
      <point x="681" y="680" type="curve" smooth="yes"/>
      <point x="681" y="671"/>
      <point x="677" y="667"/>
      <point x="667" y="665" type="curve" smooth="yes"/>
      <point x="634" y="658"/>
      <point x="592" y="646"/>
      <point x="563" y="593" type="curve" smooth="yes"/>
      <point x="422" y="336" type="line"/>
      <point x="604" y="336" type="line" smooth="yes"/>
      <point x="608" y="336"/>
      <point x="612" y="333"/>
      <point x="612" y="328" type="curve" smooth="yes"/>
      <point x="612" y="320"/>
      <point x="605" y="301"/>
      <point x="594" y="301" type="curve" smooth="yes"/>
      <point x="404" y="301" type="line"/>
      <point x="396" y="287" type="line"/>
      <point x="396" y="220" type="line"/>
      <point x="604" y="220" type="line" smooth="yes"/>
      <point x="608" y="220"/>
      <point x="612" y="217"/>
      <point x="612" y="212" type="curve" smooth="yes"/>
      <point x="612" y="204"/>
      <point x="605" y="185"/>
      <point x="594" y="185" type="curve" smooth="yes"/>
      <point x="396" y="185" type="line"/>
      <point x="396" y="50" type="line" smooth="yes"/>
      <point x="396" y="31"/>
      <point x="408" y="27"/>
      <point x="421" y="26" type="curve" smooth="yes"/>
      <point x="463" y="23" type="line" smooth="yes"/>
      <point x="473" y="23"/>
      <point x="477" y="17"/>
      <point x="477" y="8" type="curve" smooth="yes"/>
      <point x="477" y="-2"/>
      <point x="473" y="-6"/>
      <point x="467" y="-6" type="curve" smooth="yes"/>
      <point x="454" y="-6"/>
      <point x="427" y="-4"/>
      <point x="407" y="-2" type="curve" smooth="yes"/>
      <point x="384" y="0"/>
      <point x="359" y="2"/>
      <point x="340" y="2" type="curve" smooth="yes"/>
      <point x="321" y="2"/>
      <point x="296" y="0"/>
      <point x="273" y="-2" type="curve" smooth="yes"/>
      <point x="253" y="-4"/>
      <point x="226" y="-6"/>
      <point x="213" y="-6" type="curve" smooth="yes"/>
      <point x="207" y="-6"/>
      <point x="203" y="-2"/>
      <point x="203" y="8" type="curve" smooth="yes"/>
      <point x="203" y="17"/>
      <point x="206" y="23"/>
      <point x="216" y="23" type="curve" smooth="yes"/>
      <point x="258" y="26" type="line" smooth="yes"/>
      <point x="271" y="27"/>
      <point x="284" y="31"/>
      <point x="284" y="50" type="curve" smooth="yes"/>
      <point x="284" y="185" type="line"/>
      <point x="76" y="185" type="line" smooth="yes"/>
      <point x="72" y="185"/>
      <point x="68" y="187"/>
      <point x="68" y="192" type="curve" smooth="yes"/>
      <point x="68" y="200"/>
      <point x="76" y="220"/>
      <point x="87" y="220" type="curve" smooth="yes"/>
      <point x="284" y="220" type="line"/>
      <point x="284" y="292" type="line"/>
      <point x="279" y="301" type="line"/>
      <point x="76" y="301" type="line" smooth="yes"/>
      <point x="72" y="301"/>
      <point x="68" y="304"/>
      <point x="68" y="309" type="curve" smooth="yes"/>
      <point x="68" y="317"/>
      <point x="76" y="336"/>
      <point x="87" y="336" type="curve" smooth="yes"/>
      <point x="260" y="336" type="line"/>
      <point x="107" y="628" type="line" smooth="yes"/>
      <point x="91" y="657"/>
      <point x="71" y="668"/>
      <point x="37" y="670" type="curve" smooth="yes"/>
      <point x="27" y="670"/>
      <point x="23" y="677"/>
    </contour>
  </outline>
</glyph>
<glyph name="brokenbar" format="2">
  <advance width="195"/>
  <unicode hex="00A6"/>
  <outline>
    <contour>
      <point x="66" y="-155" type="curve" smooth="yes"/>
      <point x="66" y="167" type="line" smooth="yes"/>
      <point x="66" y="174"/>
      <point x="73" y="185"/>
      <point x="79" y="185" type="curve" smooth="yes"/>
      <point x="85" y="185"/>
      <point x="90" y="182"/>
      <point x="104" y="177" type="curve" smooth="yes"/>
      <point x="120" y="171"/>
      <point x="129" y="166"/>
      <point x="129" y="159" type="curve" smooth="yes"/>
      <point x="129" y="-164" type="line" smooth="yes"/>
      <point x="129" y="-171"/>
      <point x="123" y="-181"/>
      <point x="117" y="-181" type="curve" smooth="yes"/>
      <point x="111" y="-181"/>
      <point x="106" y="-178"/>
      <point x="92" y="-173" type="curve" smooth="yes"/>
      <point x="76" y="-167"/>
      <point x="66" y="-162"/>
    </contour>
    <contour>
      <point x="66" y="367" type="curve" smooth="yes"/>
      <point x="66" y="690" type="line" smooth="yes"/>
      <point x="66" y="697"/>
      <point x="73" y="707"/>
      <point x="79" y="707" type="curve" smooth="yes"/>
      <point x="85" y="707"/>
      <point x="90" y="705"/>
      <point x="104" y="700" type="curve" smooth="yes"/>
      <point x="120" y="694"/>
      <point x="129" y="689"/>
      <point x="129" y="682" type="curve" smooth="yes"/>
      <point x="129" y="359" type="line" smooth="yes"/>
      <point x="129" y="352"/>
      <point x="123" y="342"/>
      <point x="117" y="342" type="curve" smooth="yes"/>
      <point x="111" y="342"/>
      <point x="106" y="344"/>
      <point x="92" y="349" type="curve" smooth="yes"/>
      <point x="76" y="355"/>
      <point x="66" y="360"/>
    </contour>
  </outline>
</glyph>
